<svg xmlns="http://www.w3.org/2000/svg" width="34" height="30" viewBox="0 0 34 30" fill="none">
  <path d="M18.9025 0.315267C18.796 0.212836 18.6704 0.132379 18.5329 0.0784887C18.3953 0.0245987 18.2485 -0.00166869 18.1007 0.00118671C17.8024 0.00695346 17.5186 0.130993 17.3117 0.346017C17.1049 0.561041 16.9919 0.849437 16.9977 1.14776C17.0034 1.44608 17.1275 1.7299 17.3425 1.93677L29.755 13.8768L1.62549 13.8768C1.32713 13.8768 1.04097 13.9953 0.829998 14.2063C0.619019 14.4172 0.500492 14.7034 0.500492 15.0018C0.500492 15.3001 0.619019 15.5863 0.829998 15.7973C1.04097 16.0082 1.32713 16.1268 1.62549 16.1268L29.752 16.1268L17.341 28.0638C17.2345 28.1662 17.1493 28.2886 17.0901 28.424C17.0309 28.5594 16.999 28.7051 16.9962 28.8528C16.9933 29.0005 17.0196 29.1473 17.0735 29.2849C17.1274 29.4224 17.2078 29.548 17.3102 29.6545C17.4127 29.761 17.5351 29.8462 17.6704 29.9054C17.8058 29.9646 17.9515 29.9965 18.0992 29.9993C18.247 30.0022 18.3938 29.9759 18.5314 29.922C18.6689 29.8682 18.7945 29.7877 18.901 29.6853L33.043 16.0818C33.1884 15.9418 33.3041 15.774 33.3831 15.5883C33.4621 15.4026 33.5028 15.2028 33.5028 15.001C33.5028 14.7992 33.4621 14.5995 33.3831 14.4138C33.3041 14.2281 33.1884 14.0602 33.043 13.9203L18.9025 0.315267Z" fill="#253428"/>
</svg>