<svg xmlns="http://www.w3.org/2000/svg" width="18" height="18" viewBox="0 0 18 18" fill="none">
  <path fill-rule="evenodd" clip-rule="evenodd" d="M1.125 3.375C1.125 2.77826 1.36205 2.20597 1.78401 1.78401C2.20597 1.36205 2.77826 1.125 3.375 1.125H4.404C5.049 1.125 5.6115 1.5645 5.76825 2.19L6.597 5.50725C6.66366 5.77576 6.64985 6.05795 6.5573 6.31867C6.46475 6.57939 6.29754 6.80712 6.0765 6.9735L5.10675 7.701C5.0055 7.77675 4.98375 7.88775 5.01225 7.965C5.43576 9.11601 6.10425 10.1613 6.97148 11.0285C7.83871 11.8958 8.88399 12.5642 10.035 12.9877C10.1123 13.0162 10.2225 12.9945 10.299 12.8932L11.0265 11.9235C11.1929 11.7025 11.4206 11.5353 11.6813 11.4427C11.9421 11.3501 12.2242 11.3363 12.4928 11.403L15.81 12.2318C16.4355 12.3885 16.875 12.951 16.875 13.5968V14.625C16.875 15.2217 16.6379 15.794 16.216 16.216C15.794 16.6379 15.2217 16.875 14.625 16.875H12.9375C6.414 16.875 1.125 11.586 1.125 5.0625V3.375Z" fill="#1B1B1B"/>
</svg>