<svg width="18" height="18" viewBox="0 0 18 18" fill="none" xmlns="http://www.w3.org/2000/svg">
<circle cx="9" cy="9" r="9" fill="#1B1B1B"/>
<path d="M9.00003 13.239C8.41361 13.239 7.86253 13.1277 7.34677 12.905C6.831 12.6823 6.38236 12.3803 6.00084 11.9991C5.61932 11.6178 5.31735 11.1692 5.09494 10.6531C4.87253 10.1371 4.76118 9.586 4.7609 8.99987C4.76061 8.41374 4.87196 7.86266 5.09494 7.34661C5.31792 6.83057 5.61988 6.38193 6.00084 6.00069C6.3818 5.61945 6.83044 5.31748 7.34677 5.09479C7.86309 4.87209 8.41418 4.76074 9.00003 4.76074C9.58587 4.76074 10.137 4.87209 10.6533 5.09479C11.1696 5.31748 11.6183 5.61945 11.9992 6.00069C12.3802 6.38193 12.6823 6.83057 12.9055 7.34661C13.1288 7.86266 13.24 8.41374 13.2392 8.99987V9.61455C13.2392 10.0314 13.0962 10.3865 12.8102 10.6798C12.5242 10.9732 12.1726 11.1197 11.7555 11.1194C11.5082 11.1194 11.275 11.0664 11.056 10.9605C10.837 10.8545 10.6533 10.7026 10.5049 10.5048C10.3 10.7097 10.0686 10.8634 9.81055 10.966C9.55253 11.0686 9.28235 11.1197 9.00003 11.1194C8.41361 11.1194 7.91382 10.9127 7.50065 10.4993C7.08747 10.0858 6.88074 9.586 6.88046 8.99987C6.88018 8.41374 7.08691 7.91395 7.50065 7.50049C7.91438 7.08704 8.41418 6.88031 9.00003 6.88031C9.58587 6.88031 10.0858 7.08704 10.4998 7.50049C10.9139 7.91395 11.1204 8.41374 11.1196 8.99987V9.61455C11.1196 9.79824 11.1796 9.95368 11.2998 10.0809C11.4199 10.208 11.5718 10.2716 11.7555 10.2716C11.9392 10.2716 12.0911 10.208 12.2112 10.0809C12.3313 9.95368 12.3913 9.79824 12.3913 9.61455V8.99987C12.3913 8.05313 12.0628 7.25123 11.4057 6.59417C10.7487 5.9371 9.94676 5.60857 9.00003 5.60857C8.05329 5.60857 7.25138 5.9371 6.59432 6.59417C5.93725 7.25123 5.60872 8.05313 5.60872 8.99987C5.60872 9.94661 5.93725 10.7485 6.59432 11.4056C7.25138 12.0626 8.05329 12.3912 9.00003 12.3912H11.1196V13.239H9.00003ZM9.00003 10.2716C9.35329 10.2716 9.65356 10.148 9.90084 9.90069C10.1481 9.65341 10.2718 9.35313 10.2718 8.99987C10.2718 8.64661 10.1481 8.34634 9.90084 8.09906C9.65356 7.85177 9.35329 7.72813 9.00003 7.72813C8.64676 7.72813 8.34649 7.85177 8.09921 8.09906C7.85193 8.34634 7.72829 8.64661 7.72829 8.99987C7.72829 9.35313 7.85193 9.65341 8.09921 9.90069C8.34649 10.148 8.64676 10.2716 9.00003 10.2716Z" fill="#F7F1EB"/>
</svg>
