<svg xmlns="http://www.w3.org/2000/svg" width="22" height="22" viewBox="0 0 22 22" fill="none">
  <path d="M2.33744 11.4995C2.44316 12.9008 2.89554 14.2539 3.65388 15.437H6.78025C6.47015 14.1462 6.29595 12.8265 6.2605 11.4995H2.33744ZM2.33744 10.187H6.2605C6.30381 8.77213 6.48625 7.43863 6.78025 6.2495H3.65388C2.89554 7.43263 2.44316 8.78569 2.33744 10.187ZM19.3487 11.4995H15.4257C15.3902 12.8265 15.216 14.1462 14.9059 15.437H18.0323C18.7907 14.2539 19.243 12.9008 19.3487 11.4995ZM19.3487 10.187C19.243 8.78569 18.7907 7.43263 18.0323 6.2495H14.9059C15.1999 7.43863 15.3824 8.77213 15.4257 10.187H19.3487ZM7.573 11.4995C7.62156 12.9524 7.82894 14.2912 8.13606 15.437H13.5514C13.8586 14.2912 14.0659 12.9524 14.1145 11.4995H7.573ZM7.573 10.187H14.1145C14.0763 8.85743 13.8874 7.53649 13.5514 6.2495H8.13606C7.80008 7.53649 7.61119 8.85743 7.573 10.187ZM1.021 11.4995H1V10.187H1.021C1.18418 7.69286 2.29003 5.35418 4.11421 3.64545C5.93839 1.93672 8.34427 0.985901 10.8438 0.985901C13.3432 0.985901 15.7491 1.93672 17.5733 3.64545C19.3975 5.35418 20.5033 7.69286 20.6665 10.187H20.6875V11.4995H20.6665C20.5033 13.9936 19.3975 16.3323 17.5733 18.0411C15.7491 19.7498 13.3432 20.7006 10.8438 20.7006C8.34427 20.7006 5.93839 19.7498 4.11421 18.0411C2.29003 16.3323 1.18418 13.9936 1.021 11.4995ZM4.68812 16.7495C5.67268 17.7769 6.89857 18.5416 8.25419 18.9742C7.7977 18.2827 7.43284 17.5349 7.16875 16.7495H4.68812ZM16.9994 16.7495H14.5188C14.2169 17.6118 13.8494 18.3639 13.4333 18.9742C14.7889 18.5416 16.0148 17.7769 16.9994 16.7495ZM8.56262 16.7495C9.19788 18.377 10.0484 19.3745 10.8438 19.3745C11.6391 19.3745 12.4896 18.377 13.1249 16.7495H8.56262ZM4.68812 4.937H7.16875C7.47062 4.07469 7.83812 3.32263 8.25419 2.71232C6.89857 3.14488 5.67268 3.90965 4.68812 4.937ZM16.9994 4.937C16.0148 3.90965 14.7889 3.14488 13.4333 2.71232C13.8494 3.32263 14.2169 4.07469 14.5188 4.937H16.9994ZM8.56262 4.937H13.1249C12.4896 3.3095 11.6391 2.312 10.8438 2.312C10.0484 2.312 9.19788 3.3095 8.56262 4.937Z" fill="#253428"/>
</svg>