<svg xmlns="http://www.w3.org/2000/svg" width="74" height="40" viewBox="0 0 74 40" fill="none">
  <g clip-path="url(#clip0_77_1347)">
    <path d="M18.697 0H14.2197L37.0865 40H46.1179L24.3272 3.20154C23.1358 1.21504 21.0029 0 18.697 0Z" fill="url(#paint0_linear_77_1347)"/>
    <path d="M4.49649 0H0L22.8668 40H31.9174L10.1075 3.20154C8.93534 1.21504 6.80239 0 4.49649 0Z" fill="url(#paint1_linear_77_1347)"/>
    <path d="M33.5315 0H28.4394L51.1524 40L74 0H44.1002L51.2101 12.9412L54.9571 6.48023H61.9901L51.2293 25.0145L39.2386 3.37512C38.0857 1.29219 35.8951 0 33.5315 0Z" fill="url(#paint2_linear_77_1347)"/>
  </g>
  <defs>
    <linearGradient id="paint0_linear_77_1347" x1="30.1688" y1="0" x2="30.1688" y2="40" gradientUnits="userSpaceOnUse">
      <stop stop-color="#3A4535"/>
      <stop offset="1" stop-color="#595F59"/>
    </linearGradient>
    <linearGradient id="paint1_linear_77_1347" x1="15.9587" y1="0" x2="15.9587" y2="40" gradientUnits="userSpaceOnUse">
      <stop stop-color="#3A4535"/>
      <stop offset="1" stop-color="#595F59"/>
    </linearGradient>
    <linearGradient id="paint2_linear_77_1347" x1="51.2197" y1="0" x2="51.2197" y2="40" gradientUnits="userSpaceOnUse">
      <stop stop-color="#3A4535"/>
      <stop offset="1" stop-color="#595F59"/>
    </linearGradient>
    <clipPath id="clip0_77_1347">
      <rect width="74" height="40" fill="white"/>
    </clipPath>
  </defs>
</svg>