<svg xmlns="http://www.w3.org/2000/svg" width="456" height="455" viewBox="0 0 456 455" fill="none">
  <path d="M254.37 0.661901L256.414 0.901434L254.395 18.1341L252.351 17.8946L254.37 0.661901ZM259.268 1.2652L261.509 1.68102L262.759 16.5688L262.807 16.5777L269.629 3.18782L271.894 3.60811L273.433 18.5495L273.481 18.5585L280.062 5.12386L282.182 5.51732L274.005 21.6466L271.812 21.2397L270.279 6.00023L270.23 5.99129L263.307 19.6614L261.09 19.25L259.268 1.2652ZM291.96 8.13364L302.236 11.3178L301.67 13.1436L293.36 10.5688L291.663 16.0463L299.388 18.4399L298.822 20.2657L291.097 17.8722L288.791 25.3161L286.824 24.7068L291.96 8.13364ZM303.15 17.8535L304.948 18.4998L301.07 29.2933L299.272 28.647L303.15 17.8535ZM304.251 13.4838C304.378 13.1302 304.611 12.8669 304.951 12.6939C305.307 12.5264 305.669 12.509 306.038 12.6416C306.407 12.7741 306.667 13.0153 306.819 13.3651C306.987 13.7204 307.007 14.0748 306.88 14.4285C306.742 14.8129 306.506 15.0839 306.171 15.2415C305.837 15.3991 305.477 15.4088 305.093 15.2707C304.709 15.1326 304.438 14.8964 304.28 14.562C304.122 14.2276 304.113 13.8682 304.251 13.4838ZM307.582 22.4253C307.781 21.942 307.953 21.4826 308.097 21.0473C308.241 20.6119 308.385 20.2205 308.528 19.8731L310.205 20.5643C310.086 20.8513 309.975 21.1414 309.872 21.4346C309.769 21.7278 309.655 22.0255 309.531 22.3275L309.576 22.3462C309.803 22.1393 310.072 21.9585 310.383 21.8041C310.709 21.6558 311.06 21.5533 311.437 21.4966C311.82 21.4248 312.222 21.4138 312.644 21.4638C313.071 21.4986 313.504 21.6063 313.942 21.7869C314.636 22.0734 315.19 22.4251 315.601 22.842C316.027 23.2652 316.329 23.7341 316.505 24.2487C316.682 24.7633 316.734 25.3236 316.66 25.9296C316.609 26.5268 316.452 27.1426 316.19 27.7769L313.491 34.3247L311.724 33.5961L314.349 27.2296C314.716 26.3385 314.809 25.5552 314.628 24.8797C314.447 24.2043 313.941 23.6953 313.111 23.3528C312.537 23.1162 311.998 23.0089 311.494 23.0309C311.005 23.0591 310.55 23.1984 310.129 23.4488C309.722 23.7055 309.349 24.055 309.007 24.4974C308.681 24.946 308.393 25.4724 308.144 26.0766L306.014 31.2423L304.247 30.5137L307.582 22.4253ZM320.541 26.5272C321.334 26.2397 322.151 26.1455 322.993 26.2446C323.856 26.3361 324.663 26.5636 325.413 26.9269C326.942 27.6677 327.87 28.5622 328.197 29.6104C328.525 30.6585 328.332 31.9177 327.62 33.388L325.472 37.8208C325.329 38.1149 325.194 38.4308 325.067 38.7685C324.947 39.0915 324.845 39.396 324.761 39.682L323.107 38.8806C323.162 38.6168 323.25 38.3417 323.37 38.0553C323.513 37.7612 323.637 37.5039 323.744 37.2834L323.7 37.262C323.106 37.6274 322.44 37.8403 321.702 37.9007C320.98 37.9681 320.222 37.8095 319.428 37.4248C318.898 37.1684 318.431 36.86 318.024 36.4997C317.632 36.1466 317.321 35.7595 317.089 35.3386C316.879 34.9101 316.764 34.4549 316.743 33.9729C316.723 33.4909 316.833 32.9999 317.076 32.5C317.489 31.6473 318.033 31.0851 318.71 30.8137C319.386 30.5422 320.104 30.4456 320.865 30.5238C321.641 30.6091 322.418 30.804 323.196 31.1085C323.989 31.4201 324.702 31.7291 325.334 32.0354L325.996 32.356L326.145 32.0472C326.508 31.2974 326.555 30.6209 326.284 30.0178C326.028 29.4218 325.496 28.9279 324.687 28.5361C324.129 28.2654 323.531 28.0939 322.895 28.0214C322.28 27.9414 321.674 27.9928 321.077 28.1756L320.541 26.5272ZM323.57 32.9781C322.467 32.4438 321.518 32.1743 320.721 32.1696C319.925 32.1649 319.355 32.5154 319.014 33.2212C318.7 33.8681 318.689 34.4345 318.98 34.9205C319.293 35.3988 319.773 35.7947 320.42 36.1082C320.919 36.3504 321.392 36.4797 321.838 36.496C322.306 36.5048 322.733 36.4301 323.118 36.2718C323.503 36.1136 323.851 35.8827 324.161 35.5793C324.479 35.2611 324.748 34.8924 324.97 34.4732L325.29 33.8116L323.57 32.9781ZM331.516 33.3538C331.772 32.8977 331.997 32.4622 332.192 32.0471C332.388 31.6321 332.577 31.2606 332.761 30.9328L334.343 31.8193C334.191 32.0901 334.046 32.3649 333.909 32.6437C333.771 32.9225 333.623 33.2044 333.463 33.4894L333.506 33.5134C333.756 33.335 334.044 33.1877 334.371 33.0714C334.713 32.9632 335.074 32.9034 335.455 32.8921C335.844 32.8665 336.245 32.9037 336.657 33.0036C337.077 33.0892 337.494 33.2478 337.907 33.4794C338.563 33.8468 339.07 34.262 339.428 34.7251C339.801 35.1962 340.044 35.6977 340.158 36.2297C340.272 36.7617 340.257 37.3242 340.112 37.9172C339.989 38.5039 339.76 39.0965 339.424 39.6951L335.962 45.8737L334.295 44.9393L337.661 38.9318C338.132 38.0909 338.318 37.3243 338.219 36.6321C338.12 35.9398 337.679 35.3741 336.895 34.9349C336.353 34.6314 335.831 34.4605 335.328 34.4222C334.84 34.3918 334.371 34.4758 333.923 34.6741C333.489 34.8804 333.076 35.1828 332.684 35.5812C332.307 35.9877 331.958 36.476 331.639 37.0461L328.907 41.9205L327.24 40.9861L331.516 33.3538ZM350.131 44.6347C350.052 44.0016 349.871 43.4677 349.586 43.0331C349.311 42.5848 348.933 42.2062 348.452 41.8974C347.915 41.5534 347.379 41.3452 346.843 41.2731C346.316 41.1872 345.809 41.221 345.322 41.3746C344.849 41.537 344.403 41.7941 343.983 42.1459C343.572 42.484 343.208 42.9005 342.89 43.3955C342.572 43.8906 342.348 44.4066 342.217 44.9437C342.109 45.4758 342.086 45.9951 342.149 46.5016C342.226 47.0169 342.402 47.4987 342.678 47.9471C342.962 48.3817 343.351 48.7578 343.846 49.0754C344.905 49.7547 345.979 49.8808 347.068 49.4538L347.537 51.3558C346.725 51.5921 345.924 51.6311 345.133 51.4728C344.341 51.3145 343.595 51.0104 342.894 50.5605C342.151 50.0841 341.55 49.5236 341.09 48.8791C340.63 48.2346 340.325 47.5443 340.177 46.8082C340.041 46.0809 340.049 45.3285 340.198 44.5509C340.361 43.7821 340.681 43.0265 341.157 42.2839C341.625 41.5551 342.174 40.9563 342.805 40.4875C343.449 40.0275 344.137 39.7118 344.868 39.5403C345.6 39.3689 346.347 39.3535 347.111 39.4941C347.897 39.6299 348.662 39.9359 349.404 40.4123C350.119 40.8711 350.714 41.4271 351.188 42.0805C351.675 42.7426 351.992 43.4894 352.138 44.3207L350.131 44.6347ZM357.617 57.9841C356.544 58.2956 355.571 58.3572 354.699 58.1687C353.836 57.967 352.968 57.5496 352.095 56.9167C351.368 56.3893 350.804 55.789 350.404 55.1157C350.014 54.4292 349.772 53.7191 349.679 52.9853C349.598 52.2611 349.661 51.5199 349.868 50.7617C350.088 50.013 350.442 49.3014 350.931 48.6268C351.449 47.9125 352.043 47.3441 352.713 46.9215C353.392 46.4857 354.097 46.2096 354.827 46.0932C355.566 45.9635 356.314 45.9906 357.068 46.1745C357.823 46.3583 358.544 46.6996 359.232 47.1983C359.88 47.6682 360.394 48.2121 360.773 48.8302C361.162 49.435 361.395 50.088 361.471 50.7894C361.571 51.4871 361.506 52.217 361.276 52.9788C361.056 53.7275 360.668 54.4854 360.112 55.2526L359.753 55.7486L352.253 50.3113C351.992 50.7273 351.806 51.178 351.696 51.6634C351.609 52.1452 351.597 52.6209 351.661 53.0905C351.733 53.5468 351.891 53.9838 352.133 54.4014C352.375 54.8191 352.708 55.1813 353.131 55.4882C353.805 55.9773 354.46 56.2706 355.096 56.3681C355.732 56.4657 356.402 56.4172 357.108 56.2228L357.617 57.9841ZM359.035 53.2308C359.584 52.418 359.787 51.5961 359.642 50.7651C359.498 49.9341 358.996 49.207 358.137 48.5836C357.277 47.9603 356.41 47.695 355.535 47.7875C354.661 47.8801 353.883 48.2849 353.202 49.0018L359.035 53.2308ZM382.146 63.5459C382.224 62.6736 382.091 61.8539 381.746 61.0867C381.412 60.3073 380.935 59.6402 380.313 59.0855C379.594 58.4438 378.799 57.9973 377.928 57.7461C377.07 57.5057 376.198 57.4397 375.313 57.5479C374.439 57.644 373.587 57.9125 372.756 58.3532C371.935 58.7818 371.21 59.3497 370.579 60.0567C369.905 60.8126 369.396 61.6284 369.052 62.5043C368.72 63.3679 368.549 64.2339 368.541 65.1022C368.555 65.9692 368.736 66.8094 369.083 67.6227C369.443 68.4469 369.988 69.1853 370.72 69.8379C371.512 70.5449 372.355 71.0234 373.249 71.2733C374.153 71.511 375.098 71.544 376.084 71.3721L376.371 73.3691C375.09 73.6273 373.871 73.5694 372.716 73.1955C371.573 72.8325 370.483 72.1888 369.447 71.2643C368.521 70.4377 367.807 69.4948 367.307 68.4356C366.807 67.3764 366.525 66.2816 366.461 65.1513C366.419 64.0197 366.598 62.8871 366.996 61.7536C367.406 60.6309 368.052 59.5759 368.933 58.5884C369.782 57.6375 370.734 56.889 371.791 56.3428C372.859 55.8075 373.958 55.4961 375.087 55.4086C376.216 55.3211 377.341 55.4595 378.461 55.8238C379.581 56.1882 380.622 56.7999 381.585 57.6592C382.463 58.4423 383.163 59.3513 383.685 60.3861C384.219 61.4318 384.439 62.559 384.346 63.7677L382.146 63.5459ZM379.635 72.1792C380.281 71.5539 380.975 71.0968 381.719 70.8081C382.463 70.5194 383.21 70.3866 383.961 70.41C384.723 70.4219 385.472 70.5954 386.206 70.9304C386.94 71.2654 387.614 71.7497 388.228 72.3832C388.842 73.0168 389.305 73.7057 389.617 74.45C389.929 75.1944 390.079 75.9477 390.067 76.7101C390.066 77.4611 389.91 78.2039 389.599 78.9384C389.287 79.673 388.808 80.3529 388.163 80.9783C387.517 81.6036 386.823 82.0607 386.079 82.3494C385.335 82.6381 384.582 82.7765 383.819 82.7646C383.069 82.7413 382.326 82.5621 381.592 82.2271C380.858 81.8921 380.184 81.4078 379.57 80.7743C378.956 80.1407 378.493 79.4518 378.181 78.7075C377.869 77.9631 377.713 77.2155 377.714 76.4645C377.726 75.7021 377.888 74.9536 378.2 74.2191C378.511 73.4845 378.99 72.8046 379.635 72.1792ZM381.068 73.6575C380.634 74.0781 380.292 74.5349 380.041 75.0278C379.814 75.5211 379.685 76.0332 379.653 76.5642C379.633 77.0838 379.712 77.5992 379.889 78.1103C380.089 78.6218 380.405 79.1005 380.837 79.5463C381.269 79.9921 381.732 80.3171 382.225 80.5213C382.742 80.7258 383.261 80.8263 383.78 80.8229C384.312 80.8082 384.822 80.6891 385.311 80.4656C385.823 80.2426 386.296 79.9207 386.73 79.5C387.164 79.0793 387.495 78.6224 387.722 78.1291C387.972 77.6362 388.108 77.13 388.127 76.6104C388.159 76.0794 388.074 75.5581 387.874 75.0466C387.698 74.5355 387.393 74.057 386.961 73.6112C386.529 73.1654 386.055 72.8402 385.538 72.6357C385.044 72.4315 384.532 72.3368 384 72.3516C383.48 72.355 382.964 72.4682 382.452 72.6913C381.963 72.9147 381.502 73.2368 381.068 73.6575ZM392.302 81.0857C392.7 80.7468 393.062 80.4166 393.389 80.0952C393.717 79.7738 394.023 79.4913 394.309 79.2477L395.485 80.6286C395.248 80.8298 395.017 81.0372 394.792 81.2509C394.566 81.4646 394.329 81.6773 394.08 81.8891L394.112 81.9264C394.408 81.8459 394.73 81.808 395.077 81.8127C395.435 81.8299 395.794 81.8993 396.155 82.021C396.529 82.1321 396.892 82.3061 397.243 82.543C397.608 82.7693 397.943 83.0628 398.25 83.4236C398.738 83.9958 399.069 84.5613 399.244 85.1201C399.43 85.6914 399.484 86.2462 399.406 86.7846C399.328 87.3231 399.118 87.8451 398.776 88.3508C398.457 88.8583 398.037 89.3345 397.514 89.7793L392.121 94.3703L390.882 92.9148L396.126 88.4509C396.86 87.826 397.3 87.1718 397.448 86.4883C397.596 85.8048 397.378 85.1209 396.796 84.4367C396.393 83.964 395.963 83.6223 395.505 83.4117C395.057 83.2135 394.589 83.1295 394.099 83.1597C393.621 83.2024 393.129 83.3426 392.623 83.5801C392.128 83.83 391.631 84.1668 391.133 84.5905L386.879 88.2125L385.64 86.757L392.302 81.0857ZM396.642 95.1888C396.493 95.7749 396.442 96.3275 396.488 96.8467C396.545 97.3789 396.781 97.9178 397.197 98.4635C397.375 98.6974 397.579 98.9115 397.81 99.1057C398.05 99.313 398.303 99.4695 398.568 99.5753C398.834 99.681 399.095 99.728 399.353 99.7162C399.624 99.6944 399.883 99.5895 400.13 99.4013C400.377 99.2131 400.534 99.0011 400.601 98.7653C400.677 98.5426 400.698 98.3006 400.664 98.0394C400.642 97.7684 400.574 97.4912 400.461 97.2078C400.348 96.9244 400.223 96.6394 400.087 96.353C399.851 95.8549 399.643 95.3663 399.463 94.8874C399.282 94.4085 399.169 93.9503 399.124 93.5128C399.101 93.0783 399.169 92.6563 399.329 92.2466C399.499 91.8499 399.818 91.4732 400.286 91.1167C400.728 90.7799 401.192 90.5802 401.678 90.5176C402.165 90.455 402.642 90.5019 403.111 90.6584C403.579 90.8148 404.025 91.0499 404.449 91.3635C404.873 91.6772 405.249 92.0484 405.576 92.4772C406.071 93.1268 406.396 93.8235 406.553 94.5673C406.719 95.3241 406.628 96.0813 406.281 96.8388L404.477 96.2108C404.654 95.7683 404.715 95.3104 404.663 94.837C404.633 94.3667 404.445 93.9041 404.098 93.4494C403.94 93.2415 403.75 93.0469 403.53 92.8657C403.319 92.6974 403.098 92.5684 402.865 92.4787C402.632 92.3891 402.387 92.3501 402.129 92.3619C401.894 92.3769 401.672 92.4635 401.464 92.622C401.269 92.7706 401.145 92.9578 401.091 93.1837C401.06 93.4127 401.072 93.6707 401.127 93.9578C401.191 94.258 401.288 94.5742 401.419 94.9064C401.558 95.2517 401.716 95.5936 401.892 95.932C402.121 96.3942 402.309 96.8568 402.457 97.3196C402.617 97.7726 402.697 98.2147 402.698 98.646C402.698 99.0774 402.601 99.4898 402.408 99.8835C402.215 100.277 401.891 100.647 401.437 100.994C400.917 101.39 400.396 101.623 399.874 101.692C399.351 101.762 398.84 101.71 398.338 101.538C397.86 101.368 397.4 101.102 396.96 100.74C396.529 100.39 396.14 99.988 395.794 99.5332C395.199 98.7536 394.801 97.9888 394.599 97.2389C394.42 96.492 394.482 95.6436 394.785 94.6936L396.642 95.1888ZM407.915 111.537C407.482 111.83 407.085 112.118 406.725 112.402C406.364 112.686 406.028 112.933 405.717 113.143L404.7 111.642C404.957 111.468 405.21 111.287 405.458 111.099C405.705 110.912 405.965 110.726 406.235 110.543L406.208 110.503C405.904 110.55 405.576 110.546 405.222 110.489C404.877 110.447 404.525 110.349 404.166 110.198C403.821 110.037 403.486 109.82 403.162 109.546C402.825 109.281 402.524 108.953 402.258 108.56C401.836 107.938 401.565 107.333 401.443 106.745C401.33 106.17 401.341 105.619 401.478 105.093C401.615 104.566 401.869 104.068 402.242 103.599C402.637 103.134 403.119 102.709 403.687 102.324L409.551 98.3521L410.623 99.9347L404.921 103.797C404.123 104.337 403.613 104.939 403.392 105.602C403.17 106.265 403.311 106.969 403.815 107.713C404.163 108.227 404.549 108.607 404.972 108.853C405.404 109.113 405.861 109.248 406.341 109.258C406.831 109.281 407.335 109.196 407.855 109.002C408.384 108.821 408.919 108.548 409.46 108.181L414.086 105.048L415.158 106.631L407.915 111.537ZM423.283 106.209L424.287 107.836L408.517 117.56L407.513 115.933L423.283 106.209ZM421.979 121.169L420.307 118.23L415.323 121.065C414.996 121.251 414.695 121.432 414.419 121.607C414.157 121.775 413.948 121.969 413.792 122.19C413.649 122.402 413.571 122.644 413.556 122.916C413.556 123.179 413.66 123.496 413.87 123.865C414.008 124.106 414.178 124.339 414.38 124.562C414.582 124.785 414.804 124.978 415.047 125.141L413.571 126.065C413.282 125.854 413.008 125.587 412.749 125.264C412.498 124.955 412.284 124.645 412.107 124.332C411.767 123.736 411.575 123.216 411.529 122.772C411.483 122.328 411.546 121.926 411.717 121.566C411.888 121.205 412.159 120.872 412.53 120.567C412.924 120.268 413.377 119.973 413.888 119.682L419.362 116.568L418.126 114.395L419.532 113.596L420.768 115.769L423.601 114.157L424.546 115.818L421.713 117.43L423.385 120.37L421.979 121.169ZM424.627 122.682L425.519 124.372L415.377 129.726L414.484 128.035L424.627 122.682ZM428.387 120.198C428.719 120.023 429.069 119.986 429.437 120.087C429.812 120.203 430.091 120.435 430.275 120.781C430.458 121.128 430.487 121.482 430.364 121.843C430.248 122.218 430.024 122.493 429.691 122.669C429.33 122.859 428.973 122.9 428.62 122.791C428.266 122.682 427.995 122.447 427.804 122.085C427.613 121.724 427.572 121.367 427.682 121.014C427.791 120.661 428.026 120.389 428.387 120.198ZM424.816 129.046C425.289 128.824 425.726 128.6 426.126 128.376C426.526 128.152 426.896 127.96 427.236 127.8L428.008 129.441C427.727 129.573 427.449 129.712 427.175 129.859C426.901 130.006 426.617 130.149 426.321 130.288L426.342 130.333C426.649 130.333 426.969 130.381 427.303 130.476C427.644 130.587 427.973 130.748 428.289 130.96C428.62 131.166 428.925 131.429 429.202 131.75C429.494 132.064 429.741 132.435 429.942 132.864C430.262 133.544 430.433 134.177 430.456 134.762C430.485 135.362 430.392 135.911 430.175 136.411C429.958 136.91 429.619 137.358 429.156 137.756C428.715 138.162 428.184 138.511 427.563 138.803L421.154 141.817L420.341 140.088L426.572 137.157C427.445 136.747 428.042 136.231 428.363 135.611C428.685 134.99 428.655 134.273 428.273 133.46C428.008 132.898 427.683 132.455 427.296 132.132C426.916 131.823 426.486 131.619 426.006 131.519C425.533 131.435 425.021 131.441 424.471 131.537C423.928 131.649 423.36 131.843 422.769 132.121L417.712 134.499L416.899 132.769L424.816 129.046ZM427.023 155.08C425.076 155.845 423.404 155.922 422.006 155.313C420.599 154.725 419.525 153.488 418.785 151.602C418.373 150.553 418.151 149.543 418.121 148.571C418.097 147.616 418.308 146.611 418.754 145.558L420.716 146.262C420.329 147.064 420.105 147.836 420.046 148.579C419.978 149.343 420.105 150.136 420.427 150.957C420.738 151.748 421.116 152.354 421.563 152.775C422 153.218 422.483 153.511 423.013 153.653C423.528 153.802 424.068 153.836 424.633 153.755C425.198 153.673 425.761 153.522 426.324 153.301L427.693 152.763L427.675 152.718C426.823 152.561 426.103 152.203 425.515 151.644C424.927 151.085 424.493 150.448 424.212 149.734C423.883 148.897 423.719 148.076 423.718 147.269C423.717 146.462 423.861 145.712 424.15 145.019C424.44 144.326 424.865 143.711 425.427 143.174C425.989 142.638 426.665 142.214 427.456 141.904C428.322 141.563 429.159 141.393 429.966 141.392C430.773 141.391 431.508 141.541 432.171 141.842C432.854 142.153 433.463 142.607 433.996 143.205C434.529 143.803 434.963 144.528 435.298 145.38C435.441 145.745 435.539 146.127 435.591 146.528C435.658 146.923 435.666 147.324 435.615 147.73C435.585 148.145 435.487 148.544 435.321 148.925C435.17 149.3 434.955 149.648 434.677 149.967L434.695 150.013L436.52 149.296L437.219 151.076L427.023 155.08ZM428.208 143.82C427.661 144.035 427.19 144.334 426.796 144.717C426.418 145.093 426.119 145.518 425.901 145.99C425.704 146.471 425.596 146.978 425.577 147.512C425.559 148.046 425.651 148.572 425.854 149.089C426.093 149.697 426.412 150.195 426.81 150.583C427.208 150.97 427.644 151.255 428.12 151.437C428.616 151.629 429.125 151.718 429.647 151.706C430.184 151.688 430.711 151.578 431.228 151.375C431.806 151.148 432.295 150.851 432.695 150.483C433.109 150.109 433.426 149.687 433.644 149.215C433.863 148.743 433.971 148.235 433.968 147.692C433.981 147.143 433.876 146.587 433.655 146.025C433.434 145.462 433.125 144.987 432.727 144.599C432.35 144.22 431.913 143.935 431.417 143.744C430.942 143.562 430.425 143.476 429.867 143.484C429.324 143.487 428.771 143.599 428.208 143.82ZM435.577 160.636L441.677 184.371L439.969 184.81L433.868 161.075L435.577 160.636ZM451.581 204.162C452.214 203.557 452.653 202.851 452.898 202.047C453.16 201.241 453.239 200.424 453.136 199.597C453.017 198.641 452.712 197.781 452.222 197.019C451.734 196.273 451.121 195.65 450.383 195.149C449.662 194.647 448.844 194.288 447.928 194.073C447.028 193.855 446.108 193.805 445.168 193.923C444.163 194.048 443.243 194.327 442.408 194.761C441.589 195.192 440.89 195.732 440.313 196.38C439.753 197.043 439.337 197.794 439.063 198.635C438.791 199.492 438.716 200.407 438.837 201.38C438.968 202.434 439.288 203.349 439.797 204.125C440.321 204.899 441.011 205.546 441.866 206.065L440.768 207.758C439.634 207.109 438.754 206.264 438.13 205.222C437.509 204.196 437.112 202.995 436.94 201.617C436.786 200.384 436.87 199.205 437.19 198.078C437.511 196.952 438.019 195.942 438.714 195.048C439.428 194.169 440.308 193.434 441.353 192.842C442.401 192.267 443.582 191.898 444.895 191.734C446.159 191.576 447.369 191.64 448.524 191.924C449.681 192.224 450.713 192.713 451.621 193.39C452.529 194.067 453.284 194.911 453.888 195.922C454.491 196.934 454.873 198.08 455.033 199.361C455.178 200.528 455.107 201.673 454.819 202.795C454.533 203.934 453.957 204.928 453.091 205.777L451.581 204.162ZM447.082 209.513C447.603 209.478 448.091 209.429 448.545 209.365C449 209.302 449.414 209.258 449.789 209.233L449.911 211.042C449.601 211.063 449.292 211.092 448.983 211.129C448.675 211.166 448.357 211.196 448.031 211.218L448.035 211.266C448.321 211.378 448.602 211.539 448.878 211.75C449.155 211.977 449.402 212.247 449.62 212.56C449.854 212.872 450.041 213.227 450.183 213.627C450.341 214.026 450.435 214.462 450.467 214.935C450.476 215.065 450.477 215.196 450.469 215.327C450.462 215.459 450.438 215.592 450.398 215.725L448.458 215.733C448.534 215.4 448.56 215.055 448.535 214.696C448.456 213.522 448.016 212.692 447.214 212.206C446.429 211.735 445.376 211.543 444.056 211.632L438.481 212.007L438.353 210.1L447.082 209.513ZM436.282 222.543C435.788 222.357 435.343 222.161 434.947 221.956C434.535 221.767 434.188 221.529 433.905 221.24C433.605 220.968 433.378 220.629 433.224 220.223C433.053 219.834 432.962 219.354 432.952 218.782C432.946 218.504 432.957 218.21 432.984 217.899C433.011 217.604 433.088 217.325 433.214 217.061L434.884 217.275C434.806 217.473 434.761 217.678 434.749 217.891C434.72 218.104 434.708 218.349 434.714 218.627C434.725 219.247 434.905 219.701 435.254 219.989C435.602 220.277 436.064 220.521 436.64 220.723L438.811 221.467L450.262 216.497L450.304 218.727L441.378 222.448L441.379 222.497L450.435 225.734L450.474 227.817L436.282 222.543ZM450.409 229.948L450.333 231.858L448.668 231.792L448.666 231.841C449.265 232.388 449.723 233.011 450.038 233.711C450.353 234.426 450.493 235.2 450.46 236.033C450.424 236.931 450.237 237.741 449.897 238.463C449.573 239.202 449.132 239.822 448.572 240.323C448.013 240.824 447.36 241.207 446.613 241.471C445.867 241.736 445.061 241.851 444.196 241.816C443.331 241.782 442.537 241.603 441.814 241.28C441.091 240.956 440.471 240.523 439.953 239.979C439.434 239.451 439.034 238.83 438.752 238.116C438.486 237.402 438.369 236.646 438.401 235.846C438.442 234.817 438.699 233.92 439.171 233.154C439.658 232.405 440.236 231.864 440.903 231.531L440.905 231.482L433.29 231.178L433.366 229.268L450.409 229.948ZM444.603 231.63C443.999 231.605 443.432 231.673 442.902 231.831C442.388 232.007 441.928 232.267 441.522 232.61C441.133 232.954 440.814 233.367 440.565 233.847C440.333 234.345 440.204 234.904 440.18 235.524C440.155 236.145 440.239 236.704 440.431 237.202C440.64 237.717 440.925 238.162 441.286 238.536C441.663 238.911 442.101 239.198 442.6 239.398C443.115 239.615 443.674 239.735 444.278 239.759C444.882 239.783 445.441 239.708 445.955 239.532C446.484 239.373 446.944 239.122 447.334 238.778C447.74 238.434 448.059 238.014 448.292 237.516C448.54 237.035 448.676 236.485 448.701 235.865C448.726 235.244 448.634 234.676 448.426 234.161C448.233 233.663 447.948 233.227 447.571 232.852C447.209 232.478 446.772 232.182 446.257 231.965C445.758 231.766 445.207 231.654 444.603 231.63ZM447.487 251.252L447.81 247.886L442.102 247.338C441.727 247.302 441.377 247.277 441.05 247.262C440.74 247.248 440.457 247.287 440.202 247.377C439.963 247.469 439.76 247.622 439.592 247.836C439.44 248.051 439.344 248.37 439.303 248.793C439.277 249.069 439.282 249.357 439.319 249.656C439.356 249.955 439.427 250.241 439.532 250.513L437.793 250.421C437.678 250.081 437.607 249.705 437.581 249.292C437.553 248.896 437.557 248.519 437.591 248.161C437.657 247.478 437.798 246.942 438.016 246.552C438.234 246.163 438.517 245.87 438.864 245.673C439.211 245.477 439.624 245.361 440.104 245.324C440.598 245.306 441.137 245.325 441.723 245.381L447.992 245.983L448.231 243.495L449.841 243.649L449.602 246.137L452.847 246.448L452.664 248.351L449.42 248.04L449.097 251.406L447.487 251.252ZM443.188 252.376C444.077 252.507 444.863 252.779 445.545 253.194C446.227 253.608 446.787 254.12 447.226 254.73C447.681 255.342 447.999 256.041 448.18 256.827C448.361 257.613 448.388 258.443 448.259 259.316C448.13 260.189 447.866 260.975 447.465 261.676C447.065 262.377 446.559 262.954 445.947 263.409C445.351 263.866 444.666 264.195 443.894 264.395C443.121 264.595 442.29 264.629 441.402 264.498C440.513 264.367 439.727 264.094 439.045 263.68C438.363 263.266 437.794 262.752 437.34 262.14C436.901 261.531 436.591 260.833 436.41 260.046C436.228 259.26 436.202 258.431 436.331 257.558C436.459 256.685 436.724 255.898 437.124 255.198C437.525 254.497 438.023 253.918 438.619 253.461C439.231 253.006 439.923 252.679 440.696 252.479C441.468 252.279 442.299 252.245 443.188 252.376ZM442.888 254.412C442.29 254.324 441.719 254.331 441.176 254.432C440.646 254.552 440.161 254.762 439.721 255.06C439.297 255.361 438.936 255.737 438.638 256.189C438.354 256.659 438.167 257.201 438.076 257.815C437.986 258.429 438.01 258.994 438.149 259.51C438.301 260.044 438.537 260.517 438.856 260.927C439.192 261.34 439.597 261.672 440.072 261.924C440.56 262.194 441.104 262.373 441.702 262.461C442.3 262.55 442.864 262.534 443.393 262.413C443.937 262.312 444.42 262.111 444.845 261.81C445.285 261.511 445.647 261.127 445.931 260.657C446.229 260.206 446.423 259.673 446.513 259.059C446.604 258.444 446.573 257.87 446.421 257.336C446.282 256.82 446.045 256.355 445.709 255.943C445.39 255.532 444.986 255.192 444.497 254.922C444.023 254.67 443.486 254.5 442.888 254.412ZM431.701 266.795L432.071 264.945L437.512 267.731L437.075 269.918L431.701 266.795ZM443.863 290.911C444.491 290.731 445 290.399 445.39 289.915C445.797 289.435 446.084 288.897 446.252 288.299C446.376 287.859 446.442 287.411 446.451 286.955C446.461 286.499 446.404 286.068 446.281 285.66C446.154 285.268 445.938 284.918 445.633 284.612C445.329 284.306 444.933 284.085 444.446 283.948C444.068 283.841 443.715 283.801 443.385 283.828C443.066 283.874 442.752 283.997 442.44 284.199C442.129 284.4 441.808 284.699 441.475 285.098C441.142 285.497 440.781 285.998 440.391 286.601C440.005 287.188 439.61 287.747 439.206 288.279C438.798 288.826 438.349 289.277 437.859 289.631C437.364 290.001 436.804 290.243 436.179 290.355C435.564 290.488 434.848 290.44 434.03 290.21C433.197 289.975 432.52 289.607 431.999 289.104C431.479 288.602 431.091 288.017 430.837 287.352C430.594 286.707 430.478 286.004 430.488 285.243C430.483 284.478 430.586 283.718 430.798 282.963C430.935 282.475 431.119 282.001 431.351 281.54C431.566 281.074 431.825 280.638 432.126 280.23C432.439 279.843 432.792 279.492 433.185 279.179C433.595 278.87 434.051 278.633 434.556 278.469L435.47 280.559C434.755 280.749 434.15 281.121 433.654 281.678C433.158 282.234 432.808 282.874 432.605 283.598C432.486 284.022 432.429 284.465 432.436 284.925C432.438 285.401 432.508 285.845 432.647 286.257C432.801 286.674 433.028 287.043 433.328 287.365C433.628 287.687 434.014 287.914 434.486 288.047C435.005 288.193 435.446 288.223 435.809 288.139C436.188 288.058 436.546 287.871 436.884 287.575C437.221 287.28 437.562 286.883 437.905 286.386C438.249 285.888 438.65 285.305 439.11 284.637C439.466 284.092 439.834 283.602 440.211 283.165C440.604 282.732 441.027 282.376 441.479 282.095C441.942 281.835 442.449 281.664 442.998 281.581C443.559 281.518 444.185 281.583 444.877 281.778C445.679 282.003 446.335 282.357 446.844 282.84C447.354 283.322 447.73 283.886 447.973 284.532C448.231 285.181 448.368 285.873 448.382 286.607C448.396 287.341 448.3 288.077 448.092 288.816C447.827 289.76 447.436 290.575 446.921 291.262C446.417 291.969 445.717 292.527 444.821 292.937L443.863 290.911ZM439.616 295.259L439.014 297.074L428.127 293.466L428.729 291.652L439.616 295.259ZM444.011 296.251C444.368 296.37 444.637 296.596 444.818 296.932C444.995 297.283 445.021 297.644 444.898 298.017C444.775 298.389 444.54 298.655 444.194 298.816C443.843 298.992 443.489 299.021 443.133 298.903C442.745 298.775 442.468 298.545 442.302 298.215C442.136 297.885 442.117 297.526 442.246 297.138C442.374 296.75 442.604 296.473 442.934 296.307C443.265 296.142 443.624 296.123 444.011 296.251ZM435.13 299.795C435.616 299.99 436.077 300.157 436.514 300.297C436.95 300.436 437.343 300.576 437.692 300.716L437.018 302.399C436.73 302.284 436.439 302.176 436.144 302.076C435.85 301.976 435.551 301.865 435.248 301.743L435.23 301.789C435.439 302.013 435.622 302.28 435.78 302.59C435.932 302.915 436.038 303.265 436.098 303.641C436.174 304.023 436.189 304.425 436.143 304.847C436.113 305.275 436.01 305.709 435.834 306.149C435.603 306.725 435.336 307.172 435.032 307.491C434.738 307.83 434.433 308.087 434.117 308.259C433.817 308.438 433.518 308.547 433.221 308.587C432.932 308.647 432.679 308.687 432.461 308.705C432.94 309.354 433.25 310.007 433.393 310.662C433.55 311.323 433.465 312.064 433.137 312.883C432.834 313.641 432.472 314.236 432.053 314.666C431.65 315.103 431.187 315.402 430.665 315.562C430.158 315.729 429.597 315.768 428.981 315.68C428.381 315.598 427.739 315.42 427.057 315.147L420.595 312.56L421.306 310.785L427.676 313.336C428.04 313.482 428.412 313.586 428.791 313.65C429.17 313.714 429.536 313.702 429.888 313.614C430.24 313.526 430.566 313.349 430.866 313.082C431.167 312.815 431.42 312.424 431.627 311.908C431.778 311.529 431.845 311.142 431.827 310.748C431.809 310.354 431.715 309.973 431.546 309.606C431.37 309.254 431.115 308.923 430.781 308.613C430.457 308.325 430.06 308.087 429.589 307.898L423.447 305.439L424.157 303.664L430.186 306.078C431.369 306.552 432.267 306.727 432.88 306.603C433.508 306.484 433.968 306.061 434.259 305.333C434.49 304.757 434.592 304.217 434.565 303.713C434.532 303.225 434.388 302.771 434.133 302.353C433.872 301.949 433.519 301.579 433.073 301.242C432.621 300.92 432.092 300.638 431.485 300.395L426.298 298.318L427.008 296.543L435.13 299.795ZM429.716 320.232L428.863 321.943L427.372 321.199L427.35 321.243C427.672 321.988 427.833 322.744 427.834 323.511C427.827 324.293 427.638 325.056 427.266 325.802C426.865 326.606 426.361 327.268 425.755 327.787C425.156 328.328 424.499 328.712 423.783 328.939C423.067 329.166 422.315 329.247 421.526 329.182C420.737 329.117 419.955 328.891 419.18 328.505C418.405 328.118 417.754 327.629 417.228 327.038C416.701 326.446 416.314 325.796 416.065 325.088C415.808 324.394 415.698 323.663 415.734 322.896C415.784 322.136 415.988 321.398 416.346 320.682C416.805 319.761 417.408 319.048 418.152 318.543C418.905 318.06 419.653 317.804 420.398 317.774L420.42 317.73L413.601 314.328L414.454 312.617L429.716 320.232ZM423.732 319.382C423.191 319.113 422.646 318.941 422.098 318.869C421.557 318.818 421.031 318.866 420.52 319.012C420.023 319.166 419.563 319.411 419.14 319.748C418.724 320.106 418.377 320.563 418.1 321.119C417.823 321.674 417.67 322.219 417.641 322.752C417.619 323.307 417.696 323.83 417.872 324.319C418.063 324.816 418.344 325.258 418.717 325.645C419.097 326.053 419.558 326.393 420.099 326.663C420.64 326.933 421.181 327.093 421.721 327.144C422.269 327.216 422.792 327.176 423.289 327.022C423.8 326.875 424.264 326.623 424.68 326.264C425.103 325.928 425.454 325.482 425.731 324.926C426.008 324.371 426.157 323.815 426.179 323.26C426.208 322.727 426.127 322.212 425.936 321.715C425.761 321.226 425.483 320.777 425.102 320.368C424.729 319.981 424.272 319.652 423.732 319.382ZM428.908 337.413L427.97 339.079L411.823 329.995L412.761 328.329L428.908 337.413ZM419.775 339.142L418.793 340.783L408.951 334.895L409.933 333.254L419.775 339.142ZM423.85 341.066C424.172 341.259 424.386 341.539 424.49 341.906C424.585 342.287 424.533 342.646 424.331 342.982C424.13 343.319 423.843 343.528 423.471 343.609C423.09 343.705 422.738 343.657 422.415 343.464C422.065 343.254 421.845 342.97 421.755 342.611C421.664 342.253 421.724 341.898 421.934 341.548C422.144 341.197 422.428 340.977 422.786 340.887C423.145 340.797 423.499 340.857 423.85 341.066ZM414.858 344.044L416.206 341.939L417.568 342.811L416.22 344.916L418.387 346.304C418.978 346.683 419.48 347.081 419.891 347.5C420.315 347.927 420.623 348.386 420.813 348.876C420.995 349.381 421.041 349.915 420.951 350.478C420.876 351.051 420.631 351.66 420.217 352.307C420.084 352.513 419.923 352.72 419.732 352.928C419.541 353.135 419.355 353.288 419.176 353.386L417.877 352.234C418.261 351.937 418.563 351.617 418.784 351.273C419.048 350.86 419.179 350.488 419.178 350.157C419.19 349.835 419.105 349.529 418.923 349.237C418.746 348.969 418.487 348.706 418.147 348.449C417.798 348.207 417.418 347.953 417.005 347.689L415.189 346.526L413.682 348.878L412.32 348.006L413.827 345.653L405.531 340.34L406.562 338.73L414.858 344.044ZM412.391 350.781L411.311 352.359L401.845 345.884L402.924 344.306L412.391 350.781ZM416.341 352.949C416.651 353.161 416.847 353.453 416.929 353.826C417.001 354.212 416.927 354.567 416.706 354.89C416.484 355.214 416.185 355.405 415.808 355.464C415.422 355.537 415.074 355.467 414.764 355.255C414.427 355.024 414.224 354.727 414.156 354.364C414.088 354 414.169 353.65 414.4 353.313C414.63 352.976 414.927 352.773 415.291 352.705C415.654 352.637 416.004 352.718 416.341 352.949ZM395.363 358.09C395.071 357.011 395.027 356.037 395.231 355.169C395.448 354.31 395.881 353.449 396.53 352.588C397.071 351.87 397.681 351.318 398.362 350.93C399.055 350.553 399.769 350.324 400.505 350.243C401.23 350.176 401.97 350.253 402.725 350.473C403.469 350.707 404.174 351.074 404.84 351.575C405.545 352.106 406.102 352.71 406.512 353.387C406.936 354.074 407.199 354.784 407.302 355.516C407.418 356.258 407.378 357.004 407.18 357.756C406.983 358.507 406.628 359.222 406.117 359.9C405.636 360.54 405.083 361.043 404.458 361.411C403.846 361.789 403.189 362.01 402.486 362.074C401.787 362.161 401.058 362.083 400.301 361.839C399.556 361.606 398.805 361.204 398.048 360.634L397.559 360.266L403.132 352.866C402.72 352.597 402.273 352.403 401.79 352.285C401.31 352.189 400.834 352.169 400.364 352.223C399.906 352.288 399.466 352.437 399.044 352.672C398.622 352.906 398.254 353.232 397.94 353.65C397.438 354.315 397.133 354.965 397.024 355.599C396.915 356.232 396.951 356.904 397.133 357.613L395.363 358.09ZM400.089 359.594C400.892 360.158 401.71 360.375 402.544 360.246C403.377 360.117 404.113 359.628 404.752 358.78C405.391 357.932 405.672 357.07 405.595 356.194C405.519 355.318 405.128 354.533 404.424 353.839L400.089 359.594ZM387.259 367.577L387.291 367.54C387.03 366.841 386.981 366.045 387.145 365.153C387.311 364.283 387.73 363.457 388.401 362.677C388.922 362.07 389.524 361.595 390.205 361.254C390.898 360.924 391.619 360.736 392.369 360.691C393.108 360.658 393.852 360.77 394.601 361.026C395.351 361.282 396.054 361.692 396.71 362.257C397.367 362.821 397.878 363.455 398.244 364.157C398.61 364.859 398.827 365.584 398.895 366.332C398.964 367.08 398.87 367.828 398.613 368.578C398.359 369.35 397.939 370.077 397.353 370.758C396.81 371.39 396.185 371.855 395.478 372.151C394.76 372.461 393.995 372.611 393.183 372.603L393.151 372.64L399.768 378.326L398.522 379.776L384.471 367.701L385.717 366.251L387.259 367.577ZM390.066 369.989C390.524 370.383 391.009 370.67 391.521 370.852C392.035 371.056 392.551 371.145 393.071 371.117C393.602 371.1 394.114 370.969 394.605 370.723C395.098 370.5 395.547 370.153 395.951 369.683C396.356 369.212 396.637 368.71 396.793 368.177C396.952 367.666 396.999 367.147 396.936 366.619C396.885 366.102 396.726 365.598 396.457 365.109C396.19 364.642 395.827 364.212 395.369 363.818C394.91 363.424 394.424 363.125 393.911 362.92C393.399 362.739 392.877 362.657 392.345 362.674C391.826 362.702 391.32 362.827 390.827 363.049C390.336 363.295 389.888 363.653 389.483 364.124C389.079 364.595 388.797 365.086 388.639 365.596C388.482 366.129 388.429 366.654 388.48 367.172C388.543 367.7 388.708 368.197 388.975 368.664C389.244 369.153 389.607 369.595 390.066 369.989ZM374.03 390.208C374.422 390.669 374.7 391.172 374.865 391.718C375.03 392.265 375.09 392.814 375.046 393.367C375.001 393.92 374.854 394.453 374.604 394.966C374.354 395.479 373.999 395.931 373.539 396.323C373.079 396.715 372.575 396.993 372.029 397.158C371.483 397.323 370.933 397.383 370.38 397.338C369.828 397.294 369.295 397.147 368.782 396.897C368.269 396.647 367.816 396.292 367.424 395.832C367.033 395.371 366.754 394.868 366.59 394.322C366.425 393.775 366.365 393.226 366.409 392.673C366.454 392.12 366.601 391.587 366.851 391.074C367.1 390.561 367.455 390.109 367.916 389.717C368.376 389.325 368.879 389.047 369.426 388.882C369.972 388.717 370.522 388.657 371.074 388.702C371.627 388.746 372.16 388.893 372.673 389.143C373.186 389.393 373.639 389.748 374.03 390.208ZM352.419 417.529L350.686 418.64L341.322 404.033L343.055 402.922L352.419 417.529ZM348.239 420.173L346.241 421.27L335.849 410.536L335.806 410.56L339.001 425.244L336.982 426.352L326.332 415.76L326.289 415.784L329.699 430.349L327.809 431.387L323.929 413.725L325.883 412.651L336.718 423.478L336.761 423.454L333.467 408.489L335.443 407.404L348.239 420.173ZM318.582 435.54L308.613 439.584L307.894 437.813L315.956 434.542L313.8 429.228L306.306 432.268L305.588 430.497L313.082 427.457L310.152 420.236L312.06 419.462L318.582 435.54ZM303.766 435.105L301.964 435.743L298.132 424.934L299.933 424.295L303.766 435.105ZM305.681 439.184C305.806 439.538 305.792 439.89 305.639 440.239C305.47 440.594 305.2 440.836 304.831 440.967C304.461 441.098 304.107 441.077 303.768 440.902C303.413 440.733 303.173 440.472 303.047 440.118C302.911 439.733 302.922 439.373 303.081 439.04C303.24 438.706 303.512 438.471 303.897 438.334C304.282 438.198 304.641 438.209 304.975 438.368C305.309 438.527 305.544 438.799 305.681 439.184ZM297.44 434.371C297.592 434.871 297.749 435.336 297.913 435.764C298.076 436.192 298.213 436.587 298.321 436.946L296.586 437.471C296.496 437.174 296.398 436.879 296.293 436.587C296.187 436.294 296.087 435.992 295.992 435.679L295.946 435.693C295.901 435.997 295.807 436.307 295.664 436.623C295.505 436.945 295.297 437.246 295.041 437.528C294.79 437.826 294.485 438.089 294.127 438.317C293.774 438.56 293.371 438.75 292.917 438.887C292.198 439.105 291.547 439.182 290.965 439.119C290.367 439.061 289.837 438.889 289.375 438.602C288.913 438.315 288.518 437.914 288.191 437.398C287.854 436.903 287.586 436.326 287.387 435.67L285.337 428.89L287.167 428.337L289.16 434.929C289.439 435.851 289.862 436.517 290.43 436.926C290.997 437.335 291.711 437.409 292.571 437.149C293.165 436.969 293.651 436.711 294.027 436.376C294.388 436.045 294.652 435.649 294.82 435.189C294.972 434.733 295.041 434.226 295.026 433.667C294.995 433.113 294.885 432.524 294.696 431.898L293.078 426.55L294.908 425.996L297.44 434.371ZM284.81 439.391C284.379 440.116 283.806 440.707 283.092 441.163C282.366 441.639 281.598 441.974 280.788 442.168C279.135 442.564 277.85 442.46 276.933 441.856C276.016 441.253 275.367 440.156 274.987 438.567L273.84 433.777C273.764 433.459 273.668 433.129 273.553 432.787C273.441 432.461 273.327 432.161 273.211 431.886L274.999 431.459C275.123 431.698 275.229 431.966 275.318 432.264C275.394 432.582 275.46 432.86 275.517 433.098L275.565 433.087C275.793 432.427 276.174 431.841 276.706 431.327C277.222 430.817 277.909 430.459 278.767 430.254C279.339 430.117 279.897 430.059 280.439 430.081C280.966 430.106 281.453 430.208 281.899 430.387C282.332 430.585 282.71 430.864 283.031 431.224C283.353 431.584 283.578 432.034 283.707 432.574C283.928 433.496 283.863 434.276 283.512 434.914C283.16 435.553 282.666 436.083 282.027 436.504C281.373 436.93 280.649 437.271 279.853 437.528C279.042 437.79 278.295 438.002 277.612 438.166L276.897 438.337L276.977 438.671C277.171 439.481 277.564 440.034 278.155 440.329C278.731 440.628 279.455 440.673 280.329 440.464C280.933 440.319 281.504 440.073 282.043 439.726C282.569 439.398 283.005 438.975 283.351 438.455L284.81 439.391ZM278.38 436.319C279.571 436.034 280.477 435.641 281.096 435.14C281.715 434.639 281.934 434.007 281.751 433.244C281.584 432.545 281.233 432.1 280.7 431.908C280.155 431.736 279.533 431.734 278.834 431.901C278.294 432.031 277.846 432.23 277.491 432.5C277.123 432.789 276.841 433.118 276.643 433.484C276.445 433.851 276.322 434.25 276.274 434.681C276.23 435.128 276.255 435.584 276.35 436.049L276.521 436.764L278.38 436.319ZM271.992 441.059C272.082 441.574 272.183 442.054 272.294 442.499C272.405 442.944 272.492 443.351 272.557 443.721L270.771 444.034C270.717 443.728 270.656 443.423 270.586 443.121C270.517 442.818 270.454 442.505 270.398 442.183L270.349 442.192C270.268 442.488 270.138 442.784 269.957 443.081C269.761 443.381 269.519 443.655 269.231 443.905C268.945 444.17 268.611 444.395 268.229 444.577C267.849 444.777 267.426 444.917 266.959 444.998C266.219 445.128 265.563 445.126 264.993 444.994C264.406 444.864 263.901 444.629 263.476 444.289C263.052 443.948 262.709 443.502 262.446 442.951C262.171 442.419 261.974 441.815 261.856 441.139L260.636 434.162L262.519 433.833L263.705 440.617C263.871 441.566 264.211 442.278 264.725 442.752C265.239 443.226 265.939 443.386 266.824 443.231C267.436 443.124 267.948 442.926 268.362 442.639C268.76 442.353 269.07 441.992 269.293 441.555C269.499 441.121 269.628 440.626 269.68 440.07C269.716 439.516 269.677 438.917 269.565 438.274L268.603 432.77L270.486 432.441L271.992 441.059ZM250.438 444.093C250.9 444.533 251.379 444.831 251.874 444.988C252.371 445.16 252.903 445.214 253.471 445.148C254.104 445.075 254.651 444.896 255.112 444.613C255.574 444.345 255.945 443.998 256.224 443.571C256.488 443.146 256.67 442.664 256.772 442.126C256.876 441.604 256.895 441.051 256.827 440.467C256.759 439.882 256.606 439.341 256.367 438.842C256.114 438.362 255.803 437.945 255.433 437.594C255.047 437.244 254.606 436.982 254.109 436.81C253.614 436.653 253.074 436.609 252.49 436.676C251.24 436.821 250.329 437.404 249.757 438.424L248.19 437.249C248.668 436.552 249.264 436.014 249.976 435.635C250.689 435.257 251.459 435.02 252.287 434.924C253.163 434.822 253.984 434.875 254.748 435.083C255.512 435.29 256.185 435.632 256.766 436.107C257.331 436.584 257.802 437.171 258.179 437.868C258.539 438.566 258.77 439.353 258.872 440.23C258.971 441.09 258.926 441.901 258.734 442.663C258.527 443.427 258.194 444.107 257.737 444.703C257.28 445.299 256.711 445.784 256.031 446.159C255.336 446.552 254.551 446.799 253.674 446.901C252.831 446.998 252.018 446.945 251.238 446.739C250.441 446.535 249.723 446.158 249.084 445.607L250.438 444.093ZM236.19 438.504C236.823 437.583 237.537 436.92 238.331 436.513C239.127 436.122 240.063 435.896 241.139 435.833C242.036 435.78 242.852 435.887 243.588 436.155C244.325 436.439 244.962 436.836 245.499 437.344C246.02 437.854 246.441 438.467 246.761 439.185C247.065 439.903 247.241 440.679 247.29 441.51C247.342 442.391 247.243 443.207 246.992 443.958C246.743 444.726 246.372 445.386 245.881 445.938C245.391 446.507 244.795 446.959 244.095 447.295C243.394 447.631 242.62 447.823 241.772 447.873C240.973 447.92 240.231 447.825 239.546 447.587C238.862 447.365 238.268 447.007 237.764 446.513C237.246 446.036 236.834 445.43 236.529 444.695C236.225 443.977 236.045 443.144 235.989 442.198L235.953 441.587L245.201 441.044C245.139 440.557 244.998 440.09 244.775 439.645C244.537 439.217 244.245 438.842 243.899 438.518C243.553 438.211 243.155 437.973 242.703 437.803C242.251 437.633 241.764 437.563 241.242 437.594C240.411 437.643 239.718 437.831 239.164 438.158C238.611 438.485 238.122 438.947 237.699 439.545L236.19 438.504ZM238.103 443.081C238.193 444.057 238.557 444.822 239.195 445.373C239.833 445.925 240.682 446.17 241.742 446.108C242.802 446.045 243.641 445.701 244.259 445.076C244.877 444.451 245.223 443.645 245.296 442.659L238.103 443.081ZM213.685 449.731C214.177 450.456 214.799 451.006 215.552 451.381C216.304 451.773 217.096 451.987 217.928 452.022C218.891 452.064 219.789 451.906 220.622 451.549C221.439 451.191 222.155 450.691 222.771 450.047C223.387 449.419 223.877 448.671 224.241 447.804C224.604 446.953 224.806 446.054 224.847 445.107C224.89 444.095 224.767 443.141 224.479 442.246C224.189 441.367 223.773 440.589 223.229 439.911C222.669 439.249 221.997 438.714 221.213 438.304C220.413 437.894 219.523 437.668 218.544 437.626C217.483 437.58 216.528 437.744 215.678 438.116C214.827 438.505 214.075 439.078 213.421 439.835L211.934 438.471C212.762 437.46 213.742 436.734 214.873 436.291C215.987 435.848 217.238 435.657 218.626 435.716C219.866 435.769 221.015 436.047 222.073 436.55C223.131 437.053 224.043 437.722 224.808 438.556C225.557 439.406 226.136 440.395 226.545 441.525C226.939 442.654 227.107 443.879 227.05 445.201C226.996 446.474 226.733 447.657 226.261 448.749C225.773 449.84 225.119 450.777 224.301 451.559C223.483 452.342 222.525 452.947 221.427 453.374C220.329 453.801 219.136 453.987 217.846 453.932C216.671 453.882 215.554 453.622 214.495 453.151C213.419 452.68 212.535 451.947 211.842 450.953L213.685 449.731ZM210.158 441.46C210.056 442.353 209.808 443.146 209.416 443.841C209.024 444.536 208.53 445.113 207.934 445.57C207.337 446.044 206.648 446.385 205.868 446.591C205.088 446.797 204.26 446.85 203.383 446.749C202.507 446.648 201.712 446.409 200.999 446.031C200.286 445.653 199.692 445.165 199.218 444.568C198.743 443.987 198.392 443.314 198.168 442.548C197.944 441.782 197.883 440.953 197.986 440.06C198.088 439.167 198.336 438.373 198.728 437.679C199.12 436.984 199.615 436.399 200.212 435.925C200.808 435.467 201.496 435.135 202.276 434.929C203.056 434.723 203.884 434.67 204.761 434.771C205.637 434.872 206.432 435.111 207.145 435.489C207.858 435.867 208.452 436.347 208.928 436.928C209.402 437.525 209.752 438.206 209.976 438.972C210.2 439.738 210.261 440.567 210.158 441.46ZM208.113 441.225C208.182 440.624 208.158 440.054 208.039 439.514C207.902 438.989 207.677 438.51 207.365 438.08C207.051 437.665 206.663 437.317 206.203 437.033C205.724 436.765 205.176 436.595 204.559 436.524C203.942 436.453 203.378 436.495 202.867 436.65C202.338 436.819 201.873 437.07 201.473 437.402C201.071 437.751 200.752 438.166 200.516 438.649C200.261 439.146 200.1 439.695 200.031 440.295C199.961 440.896 199.995 441.459 200.132 441.984C200.251 442.524 200.468 443.001 200.782 443.416C201.094 443.846 201.49 444.196 201.968 444.465C202.429 444.748 202.968 444.925 203.585 444.996C204.202 445.067 204.775 445.018 205.304 444.849C205.815 444.694 206.272 444.442 206.673 444.093C207.073 443.761 207.401 443.346 207.655 442.849C207.892 442.367 208.044 441.825 208.113 441.225ZM194.717 442.599C194.623 443.113 194.552 443.599 194.502 444.054C194.452 444.51 194.394 444.923 194.327 445.293L192.543 444.969C192.598 444.663 192.645 444.356 192.685 444.048C192.724 443.74 192.773 443.425 192.832 443.103L192.783 443.095C192.605 443.345 192.38 443.578 192.108 443.794C191.821 444.007 191.498 444.181 191.142 444.316C190.782 444.466 190.391 444.561 189.969 444.601C189.544 444.656 189.098 444.642 188.632 444.557C187.893 444.423 187.278 444.195 186.789 443.873C186.283 443.549 185.89 443.154 185.609 442.688C185.329 442.222 185.16 441.685 185.105 441.077C185.03 440.482 185.054 439.847 185.177 439.172L186.443 432.204L188.324 432.545L187.093 439.321C186.92 440.269 186.994 441.055 187.312 441.677C187.631 442.3 188.232 442.691 189.116 442.852C189.727 442.963 190.277 442.955 190.765 442.827C191.237 442.697 191.652 442.466 192.012 442.132C192.355 441.796 192.647 441.376 192.888 440.872C193.113 440.365 193.284 439.79 193.401 439.147L194.4 433.649L196.281 433.991L194.717 442.599ZM182.431 434.433C182.176 433.885 181.866 433.424 181.501 433.052C181.12 432.675 180.597 432.407 179.929 432.248C179.643 432.18 179.349 432.143 179.048 432.139C178.731 432.13 178.436 432.169 178.164 432.255C177.891 432.341 177.659 432.47 177.467 432.643C177.27 432.831 177.136 433.076 177.064 433.378C176.992 433.68 177.005 433.944 177.102 434.168C177.184 434.389 177.321 434.59 177.513 434.77C177.701 434.967 177.929 435.138 178.196 435.286C178.463 435.434 178.74 435.576 179.027 435.711C179.525 435.948 179.995 436.194 180.438 436.451C180.88 436.708 181.258 436.991 181.57 437.301C181.863 437.623 182.077 437.993 182.212 438.412C182.331 438.826 182.323 439.32 182.186 439.892C182.057 440.432 181.824 440.88 181.487 441.237C181.15 441.593 180.751 441.859 180.289 442.034C179.827 442.209 179.333 442.31 178.806 442.335C178.279 442.361 177.754 442.311 177.229 442.186C176.435 441.996 175.742 441.662 175.15 441.185C174.543 440.704 174.134 440.061 173.923 439.255L175.717 438.6C175.861 439.054 176.103 439.447 176.443 439.781C176.764 440.126 177.202 440.365 177.758 440.498C178.012 440.558 178.282 440.589 178.568 440.59C178.837 440.587 179.09 440.547 179.327 440.469C179.564 440.391 179.779 440.266 179.971 440.094C180.144 439.933 180.26 439.726 180.321 439.472C180.378 439.234 180.356 439.01 180.254 438.801C180.134 438.604 179.961 438.412 179.737 438.224C179.497 438.032 179.222 437.849 178.911 437.674C178.584 437.495 178.246 437.33 177.895 437.18C177.425 436.967 176.987 436.728 176.58 436.462C176.169 436.213 175.827 435.922 175.554 435.588C175.281 435.254 175.095 434.873 174.995 434.446C174.896 434.02 174.912 433.528 175.045 432.972C175.197 432.336 175.453 431.826 175.813 431.442C176.174 431.058 176.603 430.774 177.1 430.59C177.578 430.419 178.102 430.334 178.672 430.336C179.227 430.334 179.783 430.399 180.339 430.532C181.292 430.76 182.084 431.1 182.715 431.553C183.327 432.018 183.816 432.714 184.182 433.641L182.431 434.433ZM163.353 428.913C163.502 428.412 163.626 427.937 163.726 427.49C163.825 427.042 163.929 426.638 164.036 426.278L165.774 426.796C165.685 427.093 165.604 427.393 165.531 427.695C165.458 427.998 165.375 428.305 165.282 428.618L165.329 428.632C165.533 428.404 165.79 428.199 166.1 428.018C166.394 427.833 166.728 427.686 167.101 427.575C167.471 427.481 167.867 427.437 168.291 427.444C168.72 427.436 169.161 427.499 169.615 427.635C170.336 427.849 170.929 428.146 171.396 428.523C171.848 428.897 172.187 429.33 172.415 429.824C172.643 430.319 172.761 430.865 172.77 431.465C172.758 432.075 172.654 432.709 172.458 433.366L170.435 440.154L168.603 439.607L170.571 433.008C170.846 432.084 170.859 431.296 170.611 430.642C170.363 429.988 169.808 429.533 168.947 429.276C168.352 429.099 167.813 429.049 167.329 429.127C166.83 429.199 166.392 429.384 166.013 429.68C165.62 429.972 165.283 430.358 165.004 430.837C164.709 431.312 164.468 431.862 164.281 432.488L162.685 437.843L160.853 437.297L163.353 428.913ZM154.818 442.76L153.012 442.133L159.088 424.631L160.894 425.258L154.818 442.76ZM146.374 430.341L149.527 431.563L151.6 426.216C151.735 425.865 151.855 425.535 151.957 425.224C152.054 424.929 152.094 424.646 152.076 424.376C152.052 424.122 151.96 423.885 151.799 423.665C151.633 423.46 151.352 423.281 150.956 423.128C150.697 423.028 150.419 422.955 150.121 422.909C149.823 422.864 149.529 422.855 149.238 422.883L149.798 421.234C150.156 421.215 150.537 421.248 150.941 421.335C151.331 421.416 151.693 421.521 152.028 421.651C152.668 421.899 153.146 422.18 153.462 422.496C153.777 422.811 153.983 423.162 154.078 423.549C154.173 423.937 154.174 424.366 154.079 424.837C153.962 425.318 153.798 425.832 153.586 426.381L151.31 432.253L153.641 433.157L153.056 434.665L150.725 433.762L149.548 436.801L147.765 436.11L148.943 433.071L145.79 431.849L146.374 430.341ZM143.365 430.84L141.606 430.092L146.09 419.536L147.85 420.284L143.365 430.84ZM142.018 435.14C141.871 435.486 141.623 435.735 141.274 435.889C140.909 436.036 140.547 436.033 140.186 435.879C139.825 435.726 139.579 435.47 139.447 435.113C139.3 434.748 139.3 434.393 139.446 434.047C139.606 433.672 139.857 433.414 140.2 433.276C140.543 433.138 140.902 433.148 141.278 433.308C141.654 433.468 141.911 433.719 142.05 434.062C142.188 434.405 142.177 434.764 142.018 435.14ZM139.199 426.026C138.973 426.498 138.776 426.947 138.608 427.374C138.44 427.8 138.275 428.183 138.113 428.522L136.477 427.739C136.611 427.459 136.738 427.176 136.857 426.889C136.977 426.602 137.107 426.311 137.248 426.016L137.204 425.995C136.966 426.189 136.687 426.355 136.368 426.492C136.034 426.622 135.678 426.705 135.298 426.74C134.912 426.791 134.51 426.78 134.092 426.707C133.667 426.648 133.241 426.517 132.814 426.312C132.136 425.988 131.603 425.606 131.215 425.167C130.813 424.721 130.538 424.236 130.39 423.712C130.242 423.189 130.221 422.626 130.328 422.025C130.413 421.432 130.603 420.826 130.899 420.207L133.957 413.818L135.681 414.644L132.708 420.855C132.292 421.725 132.156 422.502 132.299 423.186C132.442 423.87 132.919 424.407 133.73 424.795C134.29 425.063 134.822 425.199 135.326 425.205C135.816 425.204 136.278 425.09 136.713 424.864C137.132 424.63 137.525 424.301 137.89 423.879C138.241 423.449 138.557 422.939 138.839 422.35L141.251 417.309L142.976 418.135L139.199 426.026ZM121.023 407.258C122.047 405.434 123.293 404.317 124.761 403.905C126.223 403.47 127.838 403.749 129.604 404.741C130.587 405.294 131.397 405.936 132.035 406.669C132.658 407.394 133.13 408.305 133.45 409.403L131.485 410.099C131.278 409.233 130.963 408.494 130.539 407.881C130.109 407.246 129.509 406.712 128.74 406.28C127.999 405.864 127.323 405.634 126.71 405.59C126.092 405.523 125.532 405.602 125.031 405.827C124.538 406.037 124.099 406.353 123.713 406.773C123.327 407.193 122.986 407.667 122.69 408.194L121.969 409.476L122.012 409.5C122.771 409.083 123.555 408.905 124.364 408.966C125.173 409.027 125.912 409.245 126.582 409.621C127.365 410.061 128.013 410.594 128.524 411.218C129.035 411.842 129.398 412.515 129.612 413.234C129.826 413.954 129.885 414.7 129.789 415.47C129.694 416.241 129.438 416.997 129.022 417.738C128.566 418.549 128.025 419.211 127.401 419.722C126.777 420.233 126.112 420.582 125.409 420.767C124.682 420.959 123.924 420.992 123.132 420.866C122.341 420.74 121.547 420.453 120.749 420.005C120.407 419.813 120.089 419.579 119.796 419.301C119.494 419.038 119.234 418.733 119.017 418.386C118.777 418.045 118.601 417.674 118.489 417.274C118.368 416.888 118.315 416.483 118.328 416.059L118.285 416.035L117.325 417.745L115.658 416.809L121.023 407.258ZM127.227 416.729C127.515 416.217 127.69 415.687 127.753 415.142C127.808 414.61 127.771 414.093 127.642 413.589C127.49 413.092 127.252 412.631 126.929 412.205C126.606 411.78 126.202 411.432 125.718 411.16C125.148 410.84 124.586 410.655 124.033 410.607C123.479 410.558 122.961 410.613 122.478 410.773C121.972 410.939 121.521 411.192 121.124 411.531C120.72 411.884 120.381 412.303 120.109 412.788C119.805 413.329 119.615 413.868 119.538 414.406C119.452 414.958 119.475 415.486 119.604 415.989C119.733 416.493 119.971 416.954 120.316 417.373C120.654 417.806 121.086 418.171 121.613 418.467C122.14 418.763 122.681 418.935 123.234 418.984C123.765 419.039 124.284 418.983 124.789 418.817C125.272 418.658 125.727 418.398 126.154 418.038C126.573 417.693 126.931 417.256 127.227 416.729ZM110.894 408.343L91.1375 393.843L92.1815 392.42L111.938 406.921L110.894 408.343ZM70.9439 384.799C70.8389 385.669 70.9466 386.492 71.2669 387.27C71.576 388.059 72.0325 388.741 72.6365 389.315C73.3353 389.979 74.1158 390.45 74.978 390.729C75.8285 390.996 76.6975 391.089 77.5853 391.009C78.4618 390.94 79.3224 390.699 80.167 390.284C81.0003 389.882 81.7433 389.337 82.3961 388.65C83.0938 387.916 83.6281 387.116 83.999 386.252C84.3586 385.399 84.5562 384.539 84.5919 383.671C84.6044 382.804 84.4499 381.959 84.1285 381.135C83.7951 380.3 83.2732 379.545 82.5626 378.869C81.7928 378.138 80.9652 377.633 80.0798 377.355C79.1832 377.089 78.2398 377.027 77.2496 377.167L77.0251 375.162C78.3138 374.945 79.5297 375.041 80.6726 375.451C81.8037 375.849 82.8726 376.527 83.8793 377.484C84.7794 378.339 85.4627 379.304 85.9293 380.378C86.3958 381.453 86.6435 382.556 86.6724 383.687C86.6782 384.82 86.4642 385.946 86.0306 387.067C85.585 388.176 84.9065 389.21 83.9949 390.169C83.1171 391.093 82.1416 391.812 81.0684 392.324C79.9834 392.826 78.8752 393.102 77.7441 393.154C76.6129 393.206 75.4933 393.033 74.3852 392.633C73.2772 392.234 72.2554 391.59 71.3198 390.701C70.4671 389.891 69.7962 388.96 69.3071 387.909C68.8062 386.847 68.6213 385.714 68.7524 384.509L70.9439 384.799ZM71.0317 377.807C70.6502 378.165 70.3037 378.512 69.9922 378.848C69.6807 379.185 69.3879 379.482 69.1137 379.739L67.8737 378.415C68.1003 378.203 68.3212 377.985 68.5366 377.761C68.7519 377.537 68.9788 377.313 69.2173 377.089L69.1837 377.054C68.8917 377.148 68.5721 377.201 68.225 377.213C67.8667 377.213 67.5043 377.161 67.1378 377.056C66.7594 376.963 66.3888 376.807 66.0261 376.587C65.6515 376.378 65.3022 376.101 64.9783 375.755C64.8889 375.66 64.8055 375.559 64.7281 375.452C64.6506 375.346 64.5851 375.228 64.5315 375.099L66.0281 373.865C66.1799 374.17 66.3787 374.454 66.6245 374.716C67.4288 375.575 68.2954 375.938 69.2243 375.807C70.1302 375.674 71.066 375.156 72.0317 374.251L76.1091 370.431L77.4161 371.826L71.0317 377.807ZM71.1285 360.88C71.6288 360.711 72.097 360.581 72.5333 360.488C72.9714 360.373 73.3915 360.337 73.7936 360.381C74.1975 360.402 74.5879 360.52 74.9646 360.735C75.3432 360.928 75.7179 361.242 76.0886 361.677C76.2687 361.889 76.4469 362.123 76.6233 362.381C76.789 362.626 76.9069 362.89 76.9769 363.174L75.5492 364.068C75.4843 363.866 75.3892 363.678 75.264 363.506C75.1511 363.323 75.0047 363.126 74.8246 362.915C74.4221 362.442 73.995 362.205 73.5431 362.203C73.0912 362.202 72.5787 362.306 72.0057 362.515L69.8553 363.316L64.1494 374.419L62.7036 372.721L67.2475 364.184L67.2158 364.147L58.1597 367.384L56.8092 365.798L71.1285 360.88ZM55.508 364.103L54.3589 362.575L55.6906 361.573L55.6611 361.534C54.8507 361.49 54.1022 361.296 53.4155 360.954C52.719 360.599 52.1203 360.088 51.6194 359.423C51.0793 358.704 50.7122 357.958 50.5183 357.184C50.3015 356.407 50.2514 355.647 50.368 354.905C50.4846 354.163 50.7482 353.454 51.1589 352.777C51.5697 352.1 52.121 351.501 52.813 350.981C53.505 350.46 54.2331 350.097 54.9974 349.89C55.7617 349.683 56.5164 349.626 57.2615 349.72C57.9969 349.8 58.6997 350.028 59.3701 350.403C60.0274 350.787 60.5967 351.3 61.0779 351.939C61.6967 352.762 62.0655 353.619 62.1844 354.511C62.2805 355.4 62.1754 356.184 61.8692 356.864L61.8987 356.903L67.9893 352.322L69.1384 353.849L55.508 364.103ZM58.9415 359.128C59.4246 358.764 59.821 358.354 60.1308 357.896C60.4176 357.435 60.6097 356.943 60.707 356.42C60.7912 355.907 60.7774 355.385 60.6655 354.856C60.5308 354.324 60.2768 353.81 59.9036 353.313C59.5304 352.817 59.1116 352.437 58.6472 352.173C58.16 351.906 57.6582 351.742 57.1418 351.68C56.6124 351.629 56.0913 351.684 55.5786 351.844C55.0429 352.002 54.5336 352.262 54.0505 352.626C53.5674 352.989 53.1824 353.402 52.8956 353.863C52.5858 354.321 52.3888 354.806 52.3046 355.319C52.2073 355.842 52.2261 356.37 52.3608 356.902C52.4727 357.431 52.7152 357.944 53.0884 358.44C53.4616 358.936 53.8918 359.318 54.3791 359.585C54.8435 359.849 55.3403 360.007 55.8698 360.059C56.3861 360.12 56.9121 360.072 57.4478 359.914C57.9605 359.753 58.4585 359.491 58.9415 359.128ZM44.2776 345.771L46.1654 348.577L50.9233 345.376C51.2351 345.167 51.5219 344.964 51.7839 344.768C52.0324 344.581 52.2263 344.372 52.3658 344.14C52.4917 343.917 52.5519 343.67 52.5462 343.398C52.527 343.136 52.3988 342.828 52.1617 342.476C52.0066 342.245 51.8199 342.026 51.6016 341.819C51.3832 341.611 51.1468 341.435 50.8925 341.291L52.2951 340.259C52.5995 340.448 52.8928 340.694 53.175 340.996C53.4481 341.285 53.6849 341.579 53.8856 341.877C54.2686 342.446 54.4996 342.951 54.5784 343.39C54.6573 343.829 54.6251 344.235 54.4816 344.607C54.3382 344.979 54.0927 345.331 53.7452 345.663C53.375 345.991 52.9459 346.319 52.458 346.648L47.2324 350.163L48.6277 352.237L47.2857 353.14L45.8904 351.066L43.1861 352.886L42.1191 351.3L44.8234 349.48L42.9356 346.674L44.2776 345.771ZM46.8957 342.182C46.1237 342.642 45.3425 342.927 44.5521 343.037C43.7616 343.146 43.0038 343.103 42.2787 342.908C41.5396 342.721 40.8514 342.379 40.2141 341.884C39.5767 341.389 39.0323 340.763 38.5807 340.005C38.1291 339.247 37.8373 338.47 37.7052 337.674C37.5731 336.878 37.6007 336.11 37.7879 335.371C37.961 334.64 38.2839 333.953 38.7566 333.31C39.2293 332.667 39.8516 332.116 40.6235 331.656C41.3954 331.196 42.1766 330.911 42.9671 330.801C43.7576 330.692 44.5224 330.731 45.2615 330.918C45.9866 331.113 46.6678 331.459 47.3051 331.954C47.9424 332.449 48.4869 333.075 48.9385 333.833C49.3901 334.591 49.6819 335.368 49.814 336.164C49.946 336.96 49.9255 337.724 49.7524 338.454C49.5652 339.194 49.2352 339.885 48.7626 340.528C48.2899 341.171 47.6676 341.722 46.8957 342.182ZM45.8419 340.414C46.3612 340.104 46.7994 339.739 47.1566 339.317C47.4913 338.889 47.7351 338.42 47.888 337.911C48.0268 337.41 48.069 336.89 48.0146 336.352C47.9378 335.808 47.7405 335.27 47.4227 334.736C47.1049 334.203 46.7294 333.78 46.296 333.468C45.8403 333.15 45.359 332.933 44.8522 332.816C44.3314 332.708 43.8075 332.706 43.2804 332.811C42.7309 332.911 42.1965 333.115 41.6772 333.424C41.1579 333.734 40.7309 334.102 40.3962 334.53C40.0391 334.952 39.7911 335.413 39.6523 335.915C39.4994 336.424 39.4614 336.951 39.5382 337.494C39.5926 338.033 39.7787 338.568 40.0965 339.102C40.4143 339.635 40.801 340.061 41.2568 340.379C41.6901 340.691 42.1672 340.901 42.688 341.009C43.1948 341.126 43.7229 341.134 44.2724 341.035C44.7995 340.93 45.3226 340.723 45.8419 340.414ZM46.6541 323.706L47.5439 325.37L41.5715 326.674L40.5199 324.707L46.6541 323.706ZM21.9957 312.76C21.6237 313.296 21.4396 313.876 21.4435 314.498C21.4325 315.126 21.551 315.725 21.7991 316.294C21.982 316.714 22.214 317.103 22.4951 317.461C22.7763 317.82 23.0935 318.118 23.4468 318.356C23.7936 318.579 24.1817 318.713 24.611 318.758C25.0403 318.802 25.4871 318.723 25.9514 318.521C26.3108 318.364 26.6099 318.171 26.8488 317.942C27.0661 317.705 27.2316 317.41 27.3452 317.058C27.4588 316.705 27.5183 316.269 27.5236 315.75C27.5289 315.231 27.4918 314.614 27.4122 313.9C27.3392 313.201 27.2909 312.518 27.2674 311.851C27.2374 311.169 27.2999 310.536 27.455 309.952C27.6035 309.352 27.8843 308.811 28.2975 308.328C28.6891 307.836 29.2743 307.421 30.0531 307.081C30.8468 306.735 31.6042 306.592 32.3254 306.652C33.0466 306.711 33.7162 306.919 34.3341 307.273C34.9305 307.619 35.4655 308.09 35.9391 308.685C36.4276 309.274 36.8286 309.928 37.142 310.647C37.3445 311.111 37.502 311.595 37.6145 312.098C37.7421 312.595 37.8182 313.097 37.8428 313.603C37.846 314.101 37.7944 314.596 37.688 315.087C37.5668 315.586 37.3627 316.058 37.0759 316.504L35.0453 315.464C35.4792 314.865 35.712 314.194 35.7438 313.449C35.7756 312.704 35.6413 311.988 35.3409 311.299C35.1646 310.894 34.9284 310.516 34.6322 310.164C34.3296 309.797 33.9941 309.498 33.6258 309.266C33.2426 309.041 32.833 308.899 32.3971 308.839C31.9613 308.78 31.5187 308.848 31.0694 309.044C30.5752 309.26 30.2143 309.515 29.9866 309.81C29.7439 310.112 29.5854 310.484 29.5109 310.927C29.4365 311.369 29.4237 311.892 29.4725 312.494C29.5213 313.097 29.5794 313.802 29.6467 314.61C29.7151 315.258 29.7415 315.87 29.7258 316.447C29.6952 317.031 29.5935 317.574 29.4207 318.077C29.2265 318.572 28.9429 319.025 28.5701 319.438C28.1758 319.841 27.6491 320.187 26.9902 320.474C26.2264 320.807 25.4947 320.948 24.795 320.896C24.0953 320.845 23.4473 320.646 22.8509 320.3C22.2395 319.961 21.696 319.512 21.2206 318.953C20.7451 318.394 20.3539 317.762 20.047 317.058C19.6552 316.16 19.4416 315.282 19.4061 314.424C19.3492 313.557 19.5378 312.682 19.9721 311.798L21.9957 312.76ZM22.5315 306.711L21.8458 304.926L32.5516 300.812L33.2373 302.597L22.5315 306.711ZM18.5034 308.731C18.1527 308.866 17.8008 308.861 17.4478 308.717C17.0889 308.557 16.8391 308.294 16.6985 307.928C16.5578 307.562 16.5703 307.207 16.7358 306.864C16.8954 306.505 17.1506 306.258 17.5013 306.123C17.8826 305.977 18.2421 305.979 18.5799 306.129C18.9177 306.279 19.1598 306.545 19.3063 306.926C19.4528 307.307 19.4509 307.667 19.3007 308.005C19.1505 308.342 18.8847 308.584 18.5034 308.731ZM23.1266 300.358C22.6278 300.514 22.165 300.677 21.7383 300.845C21.3117 301.013 20.919 301.153 20.5605 301.266L20.0176 299.535C20.3138 299.443 20.6075 299.342 20.8988 299.233C21.1901 299.125 21.4916 299.022 21.8034 298.924L21.7887 298.877C21.4846 298.835 21.1736 298.745 20.8557 298.605C20.5329 298.449 20.2291 298.245 19.9442 297.992C19.6437 297.744 19.3778 297.442 19.1464 297.086C18.8994 296.736 18.705 296.334 18.5632 295.882C18.3773 295.29 18.3012 294.774 18.3348 294.336C18.3479 293.887 18.422 293.495 18.5571 293.162C18.6766 292.833 18.8391 292.56 19.0445 292.341C19.2294 292.112 19.4007 291.921 19.5584 291.769C18.7765 291.569 18.1232 291.26 17.5984 290.843C17.058 290.43 16.6557 289.803 16.3916 288.961C16.147 288.182 16.0507 287.493 16.1027 286.894C16.139 286.301 16.3085 285.777 16.6111 285.322C16.8981 284.872 17.3079 284.487 17.8407 284.166C18.3578 283.849 18.9672 283.581 19.6686 283.361L26.3093 281.277L26.8815 283.101L20.3344 285.156C19.9603 285.273 19.6062 285.427 19.2721 285.617C18.938 285.808 18.6625 286.048 18.4455 286.339C18.2285 286.63 18.0881 286.973 18.0242 287.37C17.9603 287.767 18.0115 288.23 18.1778 288.76C18.3001 289.15 18.493 289.492 18.7565 289.786C19.0199 290.08 19.3336 290.315 19.6973 290.492C20.0561 290.654 20.4627 290.749 20.9169 290.777C21.3506 290.795 21.8091 290.729 22.2923 290.577L28.6056 288.596L29.1778 290.42L22.9815 292.364C21.7656 292.746 20.9596 293.178 20.5635 293.662C20.1518 294.151 20.0633 294.77 20.2981 295.518C20.4839 296.11 20.7467 296.593 21.0863 296.966C21.421 297.323 21.8194 297.583 22.2816 297.746C22.7388 297.894 23.2467 297.957 23.8051 297.936C24.3586 297.899 24.9472 297.783 25.5707 297.588L30.9019 295.915L31.4742 297.739L23.1266 300.358ZM14.3924 281.102L13.9729 279.237L15.5987 278.871L15.5879 278.823C14.8675 278.449 14.2646 277.965 13.7793 277.371C13.2903 276.761 12.9544 276.05 12.7716 275.237C12.5743 274.36 12.5465 273.529 12.6879 272.744C12.8099 271.946 13.0765 271.233 13.4877 270.605C13.899 269.976 14.431 269.438 15.0837 268.99C15.7364 268.541 16.4852 268.222 17.3299 268.032C18.1747 267.842 18.988 267.81 19.7698 267.935C20.5516 268.061 21.2629 268.32 21.9037 268.711C22.5408 269.087 23.0879 269.584 23.5449 270.201C23.986 270.822 24.2945 271.523 24.4702 272.304C24.6961 273.308 24.6799 274.241 24.4217 275.103C24.1439 275.952 23.7257 276.624 23.167 277.118L23.1778 277.166L30.6134 275.493L31.033 277.358L14.3924 281.102ZM19.5675 277.978C20.1573 277.845 20.6875 277.634 21.1581 277.344C21.6092 277.042 21.9865 276.672 22.2902 276.235C22.5779 275.802 22.7795 275.321 22.8951 274.793C22.9912 274.252 22.9711 273.679 22.8348 273.073C22.6985 272.468 22.473 271.949 22.1582 271.518C21.8239 271.074 21.434 270.718 20.9885 270.449C20.5271 270.185 20.0296 270.02 19.496 269.956C18.9429 269.88 18.3715 269.908 17.7818 270.04C17.192 270.173 16.6716 270.391 16.2205 270.693C15.7499 270.983 15.3707 271.345 15.083 271.778C14.7794 272.215 14.5795 272.703 14.4835 273.244C14.3679 273.773 14.3783 274.34 14.5145 274.945C14.6508 275.551 14.8861 276.076 15.2204 276.52C15.5352 276.951 15.9233 277.299 16.3847 277.564C16.8302 277.832 17.3295 278.004 17.8826 278.081C18.4161 278.145 18.9778 278.111 19.5675 277.978ZM4.16064 267.299L3.82985 265.417L22.0772 262.211L22.408 264.093L4.16064 267.299ZM10.1299 260.174L9.84994 258.283L21.1953 256.603L21.4752 258.494L10.1299 260.174ZM5.75819 261.267C5.38647 261.322 5.0441 261.24 4.73107 261.022C4.41565 260.788 4.22923 260.477 4.1718 260.09C4.11437 259.702 4.20389 259.358 4.44035 259.059C4.67441 258.743 4.9773 258.558 5.34902 258.503C5.75305 258.443 6.1035 258.524 6.40037 258.744C6.69724 258.964 6.87558 259.276 6.9354 259.68C6.99522 260.084 6.91498 260.435 6.69469 260.732C6.47439 261.029 6.16222 261.207 5.75819 261.267ZM10.8295 253.266L11.1195 255.749L9.51303 255.937L9.22301 253.454L6.66722 253.752C5.96944 253.834 5.329 253.843 4.74588 253.779C4.14653 253.718 3.6179 253.557 3.15997 253.298C2.70015 253.023 2.32633 252.639 2.03849 252.146C1.73442 251.656 1.53784 251.029 1.44875 250.266C1.42032 250.023 1.41433 249.76 1.43079 249.479C1.44725 249.197 1.49373 248.961 1.57025 248.772L3.30539 248.84C3.19619 249.314 3.16528 249.753 3.21267 250.159C3.26954 250.646 3.40333 251.017 3.61406 251.272C3.80855 251.528 4.06849 251.712 4.39387 251.822C4.70112 251.918 5.0676 251.957 5.4933 251.94C5.91711 251.907 6.37242 251.862 6.85924 251.805L9.00124 251.555L8.6771 248.78L10.2836 248.593L10.6077 251.367L20.3928 250.224L20.6146 252.123L10.8295 253.266ZM8.47473 246.484L8.31428 244.579L19.7428 243.616L19.9033 245.521L8.47473 246.484ZM4.04292 247.3C3.66848 247.331 3.33191 247.229 3.03321 246.991C2.73313 246.738 2.56664 246.416 2.53373 246.025C2.50081 245.634 2.61176 245.297 2.86658 245.013C3.12002 244.713 3.43397 244.547 3.80841 244.516C4.2154 244.482 4.56011 244.584 4.84254 244.822C5.12496 245.061 5.28331 245.384 5.3176 245.791C5.35188 246.198 5.24976 246.542 5.01122 246.825C4.77268 247.107 4.44992 247.266 4.04292 247.3ZM17.0367 230.05C17.9456 230.701 18.596 231.427 18.9877 232.229C19.3631 233.031 19.5724 233.971 19.6154 235.049C19.6513 235.947 19.5285 236.761 19.247 237.492C18.9492 238.223 18.5411 238.852 18.0226 239.38C17.5035 239.891 16.8821 240.3 16.1586 240.607C15.4344 240.898 14.6561 241.06 13.8235 241.093C12.942 241.128 12.1281 241.013 11.3817 240.749C10.619 240.485 9.96607 240.102 9.42281 239.601C8.86323 239.1 8.42217 238.496 8.09963 237.79C7.77709 237.083 7.59886 236.306 7.56495 235.457C7.53299 234.657 7.6424 233.917 7.89318 233.236C8.12763 232.556 8.49659 231.969 9.00006 231.475C9.48656 230.965 10.1001 230.565 10.8406 230.273C11.5647 229.983 12.4002 229.819 13.347 229.781L13.9592 229.756L14.329 239.012C14.8175 238.96 15.2863 238.827 15.7356 238.613C16.1678 238.383 16.5489 238.098 16.8787 237.758C17.1921 237.418 17.438 237.024 17.6162 236.576C17.7945 236.127 17.8732 235.642 17.8524 235.119C17.8191 234.287 17.6441 233.591 17.3275 233.031C17.0108 232.471 16.5577 231.974 15.968 231.54L17.0367 230.05ZM12.4253 231.878C11.4471 231.95 10.6762 232.299 10.1127 232.927C9.54912 233.554 9.28854 234.399 9.33094 235.46C9.37333 236.521 9.70142 237.366 10.3152 237.996C10.929 238.625 11.7282 238.986 12.7129 239.077L12.4253 231.878ZM17.2962 217.571L17.295 217.62C17.9398 217.995 18.4816 218.58 18.9203 219.375C19.343 220.153 19.5422 221.057 19.5178 222.086C19.4988 222.886 19.334 223.634 19.0233 224.329C18.6963 225.024 18.2571 225.626 17.7057 226.136C17.1547 226.63 16.5082 227.015 15.7662 227.291C15.0243 227.568 14.2205 227.696 13.3548 227.675C12.4892 227.655 11.6923 227.489 10.9643 227.177C10.2363 226.866 9.60904 226.443 9.08246 225.907C8.55588 225.372 8.15431 224.733 7.87776 223.991C7.58527 223.232 7.44969 222.404 7.47101 221.505C7.49079 220.672 7.68031 219.917 8.03959 219.239C8.39925 218.545 8.89562 217.944 9.52868 217.436L9.52984 217.387L0.808015 217.18L0.853377 215.269L19.375 215.709L19.3296 217.62L17.2962 217.571ZM13.5968 217.484C12.9924 217.469 12.4348 217.554 11.9238 217.738C11.3969 217.905 10.9413 218.164 10.5571 218.515C10.1566 218.865 9.84419 219.29 9.61984 219.791C9.37955 220.276 9.25204 220.829 9.2373 221.449C9.22257 222.07 9.32352 222.636 9.54017 223.148C9.74087 223.643 10.0329 224.075 10.4164 224.443C10.7835 224.812 11.2261 225.1 11.7441 225.308C12.2462 225.5 12.7994 225.603 13.4037 225.617C14.008 225.632 14.5736 225.555 15.1005 225.388C15.6115 225.204 16.0673 224.937 16.4678 224.587C16.852 224.237 17.1642 223.819 17.4045 223.335C17.6289 222.833 17.7484 222.272 17.7631 221.652C17.7779 221.031 17.6849 220.473 17.4842 219.978C17.2675 219.466 16.9757 219.026 16.6085 218.658C16.2251 218.29 15.7823 218.009 15.2802 217.818C14.7622 217.609 14.2011 217.498 13.5968 217.484ZM13.1784 191.679C12.5836 191.571 12.0495 191.357 11.576 191.039C11.1026 190.72 10.708 190.333 10.3924 189.877C10.0767 189.421 9.8531 188.915 9.72156 188.36C9.59001 187.805 9.5783 187.23 9.68641 186.635C9.79451 186.04 10.0078 185.506 10.3264 185.033C10.6449 184.559 11.0321 184.165 11.488 183.849C11.9439 183.534 12.4495 183.31 13.0048 183.178C13.5601 183.047 14.1351 183.035 14.7299 183.143C15.3246 183.251 15.8587 183.465 16.3322 183.783C16.8056 184.102 17.2002 184.489 17.5159 184.945C17.8315 185.401 18.0551 185.906 18.1867 186.462C18.3182 187.017 18.3299 187.592 18.2218 188.187C18.1137 188.781 17.9004 189.316 17.5818 189.789C17.2633 190.262 16.8761 190.657 16.4202 190.973C15.9643 191.288 15.4587 191.512 14.9034 191.643C14.3481 191.775 13.7731 191.787 13.1784 191.679ZM14.9037 150.123L15.6058 148.188L31.9159 154.106L31.2137 156.041L14.9037 150.123ZM16.6185 145.485L17.5397 143.4L32.3147 145.615L32.3345 145.571L20.8776 135.846L21.8086 133.739L36.7025 135.685L36.7223 135.64L25.1663 126.14L26.0379 124.168L39.848 135.843L38.9467 137.882L23.764 135.862L23.7442 135.907L35.4503 145.795L34.5391 147.857L16.6185 145.485ZM30.8432 115.257L36.3128 105.993L37.9588 106.965L33.5358 114.457L38.4739 117.372L42.5854 110.408L44.2315 111.38L40.12 118.344L46.8307 122.306L45.7842 124.078L30.8432 115.257ZM42.8803 106.613L43.923 105.011L53.5355 111.267L52.4928 112.869L42.8803 106.613ZM38.8809 104.537C38.566 104.332 38.3634 104.044 38.2732 103.673C38.192 103.289 38.2583 102.933 38.4721 102.604C38.686 102.275 38.9806 102.077 39.356 102.01C39.7403 101.929 40.0899 101.99 40.4048 102.195C40.7472 102.418 40.9566 102.71 41.0331 103.072C41.1096 103.434 41.0364 103.786 40.8136 104.128C40.5909 104.47 40.2986 104.68 39.9369 104.756C39.5753 104.833 39.2233 104.76 38.8809 104.537ZM48.3485 103.351C47.9239 103.046 47.5162 102.773 47.1256 102.533C46.735 102.293 46.3871 102.063 46.082 101.844L47.1399 100.371C47.392 100.552 47.6489 100.726 47.9106 100.894C48.1722 101.062 48.4357 101.241 48.7011 101.432L48.7297 101.392C48.5804 101.124 48.4663 100.821 48.3874 100.482C48.3181 100.131 48.2991 99.7653 48.3305 99.3855C48.3486 98.9962 48.4304 98.6024 48.5758 98.2039C48.7079 97.7959 48.9122 97.3995 49.1886 97.0147C49.627 96.4043 50.0964 95.9469 50.5967 95.6425C51.1065 95.3248 51.6321 95.1391 52.1736 95.0854C52.715 95.0318 53.2722 95.1102 53.8452 95.3206C54.4145 95.5083 54.9778 95.8022 55.5351 96.2025L61.2873 100.334L60.1721 101.887L54.5791 97.8694C53.7962 97.3071 53.0553 97.0364 52.3564 97.0573C51.6574 97.0782 51.0458 97.4536 50.5216 98.1834C50.1594 98.6877 49.9311 99.1875 49.8367 99.6829C49.7519 100.165 49.7829 100.64 49.9298 101.108C50.0862 101.562 50.3405 102.006 50.6926 102.44C51.0542 102.861 51.5005 103.262 52.0312 103.643L56.5693 106.903L55.4541 108.455L48.3485 103.351ZM55.3151 91.6811C55.2161 90.8435 55.3109 90.0264 55.5995 89.2297C55.8857 88.41 56.2912 87.6766 56.8161 87.0295C57.8865 85.7099 58.9692 85.0104 60.0644 84.931C61.1595 84.8517 62.3415 85.3266 63.6104 86.3557L67.436 89.4587C67.6897 89.6645 67.9665 89.868 68.2662 90.069C68.5532 90.2597 68.8264 90.4287 69.0857 90.5759L67.9279 92.0034C67.6837 91.8894 67.4359 91.7411 67.1845 91.5582C66.9307 91.3524 66.7087 91.1723 66.5184 91.0179L66.4875 91.056C66.7076 91.7183 66.7628 92.4152 66.6533 93.1468C66.554 93.8657 66.2265 94.5677 65.6708 95.2529C65.3003 95.7097 64.8933 96.0948 64.4497 96.4082C64.0165 96.7089 63.5685 96.924 63.1058 97.0536C62.6407 97.1602 62.1712 97.1685 61.6972 97.0786C61.2232 96.9886 60.7705 96.7687 60.3391 96.4188C59.6032 95.8218 59.1802 95.1632 59.0703 94.443C58.9603 93.7227 59.0302 93.0011 59.28 92.2781C59.5401 91.5424 59.9073 90.8305 60.3814 90.1422C60.8658 89.4412 61.3293 88.8179 61.7718 88.2723L62.2349 87.7014L61.9685 87.4852C61.3214 86.9604 60.6733 86.7608 60.0244 86.8866C59.3857 86.9996 58.7834 87.4051 58.2174 88.103C57.8263 88.5851 57.5228 89.1278 57.307 89.7311C57.0887 90.3114 57.0005 90.913 57.0422 91.5358L55.3151 91.6811ZM62.287 90.2048C61.5151 91.1564 61.036 92.0195 60.8496 92.7939C60.6632 93.5683 60.8746 94.2025 61.4836 94.6965C62.0419 95.1493 62.5908 95.2896 63.1304 95.1171C63.6675 94.9217 64.1625 94.5449 64.6153 93.9866C64.9652 93.5552 65.1991 93.1243 65.3168 92.6938C65.4321 92.2404 65.4567 91.8081 65.3906 91.3969C65.3245 90.9856 65.1791 90.5942 64.9545 90.2228C64.7172 89.841 64.4198 89.4945 64.0621 89.1834L63.4911 88.7202L62.287 90.2048ZM64.4692 82.5556C64.0841 82.2021 63.7121 81.8826 63.353 81.5973C62.9939 81.312 62.676 81.0423 62.3992 80.7881L63.6257 79.4523C63.8543 79.6622 64.0885 79.8662 64.3282 80.0641C64.5679 80.262 64.8081 80.4714 65.0488 80.6924L65.082 80.6563C64.9658 80.3722 64.8888 80.0575 64.8509 79.7122C64.8241 79.3549 64.849 78.9896 64.9255 78.6163C64.9901 78.232 65.1183 77.8507 65.3103 77.4725C65.4903 77.0833 65.7405 76.7141 66.0609 76.3651C66.5692 75.8116 67.0899 75.4135 67.623 75.1711C68.1672 74.9166 68.7112 74.7951 69.2552 74.8066C69.7991 74.8181 70.343 74.9625 70.8867 75.24C71.4295 75.4943 71.9535 75.8535 72.459 76.3176L77.6759 81.1075L76.3831 82.5156L71.3106 77.8582C70.6006 77.2063 69.8974 76.849 69.2009 76.7862C68.5044 76.7234 67.8524 77.0229 67.2446 77.6848C66.8248 78.1421 66.5384 78.6111 66.3854 79.0917C66.2435 79.5603 66.2176 80.0355 66.3075 80.5173C66.4085 80.9871 66.6078 81.4584 66.9055 81.9313C67.2143 82.3923 67.6093 82.8437 68.0907 83.2857L72.2065 87.0646L70.9137 88.4726L64.4692 82.5556ZM79.7083 67.0131C79.0738 66.9464 78.5127 67.0019 78.0249 67.1799C77.5257 67.3461 77.0711 67.6285 76.6611 68.027C76.2042 68.4711 75.8797 68.946 75.6877 69.4516C75.4843 69.9455 75.4021 70.447 75.441 70.9559C75.4918 71.4534 75.6407 71.9465 75.888 72.4353C76.1238 72.9123 76.4467 73.3617 76.8567 73.7835C77.2666 74.2052 77.7182 74.5409 78.2115 74.7906C78.705 75.0171 79.2056 75.1571 79.7132 75.2105C80.2325 75.2525 80.7418 75.1904 81.241 75.0242C81.7287 74.8463 82.1835 74.5523 82.6052 74.1424C83.5073 73.2656 83.8742 72.2483 83.7057 71.0906L85.6644 71.0664C85.7102 71.9104 85.5661 72.6998 85.2322 73.4345C84.8983 74.1692 84.4325 74.8269 83.8351 75.4077C83.2024 76.0226 82.5201 76.4808 81.7879 76.7824C81.0557 77.0839 80.3143 77.2236 79.5637 77.2014C78.8247 77.1678 78.0936 76.9899 77.3703 76.6676C76.6587 76.334 75.9954 75.8509 75.3805 75.2183C74.777 74.5974 74.3186 73.9265 74.0053 73.2058C73.7038 72.4736 73.5526 71.732 73.5517 70.981C73.5508 70.23 73.7056 69.4986 74.0161 68.7867C74.3269 68.0517 74.7987 67.3767 75.4313 66.7618C76.0405 66.1696 76.717 65.7171 77.4609 65.4042C78.2165 65.0798 79.0156 64.941 79.8584 64.9876L79.7083 67.0131ZM94.4133 62.7736C94.4713 63.8898 94.3089 64.851 93.9261 65.6571C93.5326 66.451 92.928 67.2005 92.1124 67.9058C91.4327 68.4935 90.7194 68.9051 89.9726 69.1405C89.2151 69.3635 88.4685 69.4368 87.7328 69.3602C87.0094 69.273 86.3022 69.0421 85.6113 68.6677C84.9327 68.2825 84.3209 67.7748 83.7759 67.1446C83.1988 66.4772 82.7811 65.7693 82.5226 65.0209C82.2535 64.26 82.1457 63.5109 82.1992 62.7735C82.242 62.0237 82.4392 61.3025 82.7906 60.6099C83.142 59.9172 83.639 59.2931 84.2816 58.7374C84.8872 58.2138 85.5341 57.8379 86.2225 57.6099C86.9001 57.3695 87.5891 57.2921 88.2895 57.3776C88.9915 57.4402 89.6871 57.6702 90.3764 58.0677C91.055 58.4528 91.7042 59.0038 92.324 59.7205L92.7248 60.184L85.7177 66.243C86.063 66.5924 86.4594 66.876 86.9069 67.0938C87.3561 67.2885 87.8165 67.4088 88.288 67.4546C88.7489 67.488 89.2103 67.4346 89.6722 67.2944C90.1341 67.1542 90.5628 66.9131 90.9583 66.5711C91.5885 66.0261 92.0238 65.4554 92.2639 64.8589C92.5041 64.2625 92.6102 63.5984 92.5822 62.8666L94.4133 62.7736ZM90.1097 60.307C89.4438 59.5868 88.6899 59.202 87.848 59.1525C87.006 59.103 86.1834 59.4256 85.3801 60.1202C84.5768 60.8148 84.1204 61.5982 84.0107 62.4706C83.9011 63.3429 84.1175 64.1926 84.6598 65.0195L90.1097 60.307ZM105.423 40.1553C104.591 39.8808 103.763 39.8239 102.937 39.9844C102.102 40.1316 101.344 40.4447 100.662 40.9235C99.873 41.4775 99.257 42.1497 98.8138 42.9401C98.3841 43.721 98.121 44.5546 98.0247 45.4408C97.919 46.3136 97.9859 47.2049 98.2256 48.1147C98.4558 49.0111 98.8433 49.847 99.3879 50.6224C99.97 51.4514 100.648 52.1329 101.423 52.6671C102.188 53.1879 102.992 53.5514 103.836 53.7575C104.683 53.9409 105.542 53.9563 106.414 53.8037C107.298 53.6417 108.141 53.2791 108.943 52.7157C109.813 52.1053 110.471 51.3936 110.918 50.5805C111.355 49.754 111.603 48.8415 111.66 47.8429L113.67 48.0185C113.629 49.3249 113.295 50.4979 112.668 51.5375C112.054 52.5677 111.179 53.4818 110.042 54.2799C109.026 54.9936 107.945 55.4731 106.8 55.7184C105.655 55.9638 104.524 55.989 103.409 55.7939C102.298 55.5761 101.236 55.1441 100.223 54.4979C99.2235 53.8423 98.3435 52.973 97.5829 51.89C96.8505 50.8472 96.3389 49.7491 96.048 48.5959C95.7705 47.4332 95.7179 46.2923 95.8901 45.1731C96.0624 44.0539 96.4536 42.9906 97.0637 41.9831C97.6738 40.9757 98.507 40.1011 99.5632 39.3593C100.526 38.6832 101.57 38.2091 102.697 37.937C103.837 37.6555 104.985 37.6979 106.14 38.0642L105.423 40.1553ZM113.254 44.5719C112.793 43.8005 112.507 43.0196 112.397 42.2293C112.286 41.4389 112.328 40.6811 112.523 39.9558C112.709 39.2164 113.05 38.5278 113.544 37.89C114.038 37.2521 114.664 36.7069 115.422 36.2545C116.179 35.8021 116.956 35.5094 117.752 35.3764C118.548 35.2435 119.315 35.2702 120.055 35.4565C120.786 35.6289 121.473 35.951 122.116 36.423C122.76 36.8949 123.312 37.5166 123.773 38.288C124.234 39.0594 124.519 39.8403 124.63 40.6307C124.741 41.421 124.703 42.1858 124.516 42.9252C124.322 43.6505 123.977 44.3321 123.483 44.97C122.988 45.6078 122.362 46.153 121.605 46.6054C120.848 47.0579 120.071 47.3506 119.275 47.4835C118.479 47.6165 117.715 47.5968 116.984 47.4244C116.245 47.2381 115.554 46.9089 114.91 46.437C114.267 45.965 113.715 45.3433 113.254 44.5719ZM115.021 43.5162C115.331 44.0352 115.697 44.473 116.12 44.8296C116.548 45.1639 117.016 45.4071 117.526 45.5594C118.027 45.6977 118.547 45.7393 119.085 45.6843C119.629 45.6069 120.167 45.409 120.7 45.0907C121.233 44.7723 121.655 44.3962 121.967 43.9625C122.285 43.5065 122.502 43.025 122.617 42.518C122.725 41.9971 122.726 41.4731 122.62 40.9462C122.521 40.3968 122.316 39.8627 122.006 39.3437C121.696 38.8248 121.327 38.3982 120.899 38.0639C120.476 37.7073 120.014 37.4598 119.513 37.3215C119.003 37.1693 118.477 37.1318 117.933 37.2092C117.395 37.2642 116.86 37.4509 116.327 37.7693C115.794 38.0877 115.368 38.4749 115.051 38.931C114.739 39.3647 114.529 39.842 114.422 40.3629C114.306 40.8698 114.298 41.398 114.398 41.9473C114.503 42.4743 114.711 42.9973 115.021 43.5162ZM124.825 34.283C124.586 33.818 124.347 33.3896 124.109 32.9977C123.871 32.6058 123.666 32.2427 123.494 31.9085L125.107 31.0795C125.249 31.3556 125.398 31.6279 125.555 31.8965C125.711 32.1651 125.864 32.4448 126.013 32.7354L126.057 32.713C126.046 32.4062 126.083 32.0843 126.167 31.7472C126.265 31.4027 126.415 31.0686 126.616 30.7449C126.81 30.4066 127.062 30.0933 127.373 29.8048C127.676 29.5019 128.039 29.2421 128.46 29.0255C129.129 28.682 129.755 28.4887 130.339 28.4457C130.938 28.3952 131.49 28.4694 131.996 28.6683C132.503 28.8673 132.963 29.191 133.377 29.6394C133.798 30.0658 134.166 30.5842 134.48 31.1945L137.717 37.4935L136.017 38.3673L132.869 32.2427C132.429 31.3853 131.892 30.8068 131.261 30.5069C130.629 30.207 129.913 30.2625 129.114 30.6732C128.562 30.957 128.131 31.298 127.821 31.696C127.526 32.0865 127.337 32.5234 127.255 33.0065C127.187 33.4822 127.211 33.9934 127.327 34.5402C127.457 35.0794 127.672 35.6397 127.97 36.2209L130.525 41.1904L128.824 42.0642L124.825 34.283ZM139.54 33.2856C140.076 33.5653 140.602 33.7421 141.118 33.8162C141.649 33.8835 142.228 33.7775 142.855 33.498C143.123 33.3782 143.379 33.2286 143.621 33.0492C143.878 32.8631 144.088 32.653 144.252 32.4189C144.416 32.1848 144.522 31.9408 144.569 31.6869C144.611 31.4182 144.568 31.142 144.442 30.8585C144.315 30.575 144.145 30.3737 143.931 30.2545C143.732 30.1287 143.501 30.0526 143.239 30.0264C142.97 29.9853 142.685 29.9873 142.383 30.0325C142.081 30.0776 141.775 30.1336 141.465 30.2003C140.926 30.3154 140.403 30.4056 139.895 30.471C139.388 30.5363 138.916 30.541 138.479 30.4851C138.051 30.4077 137.656 30.244 137.294 29.9939C136.947 29.7372 136.654 29.3403 136.414 28.8031C136.188 28.2958 136.101 27.7983 136.151 27.3105C136.202 26.8228 136.358 26.3689 136.617 25.9489C136.877 25.5289 137.209 25.1486 137.611 24.808C138.014 24.4675 138.462 24.1874 138.954 23.9678C139.7 23.6351 140.453 23.4783 141.213 23.4973C141.987 23.5096 142.704 23.7716 143.361 24.2834L142.335 25.8945C141.945 25.6213 141.514 25.456 141.041 25.3985C140.576 25.3194 140.083 25.3964 139.561 25.6292C139.322 25.7357 139.089 25.8753 138.862 26.0481C138.65 26.2143 138.473 26.4003 138.333 26.6061C138.192 26.812 138.098 27.0419 138.05 27.2957C138.01 27.528 138.044 27.7635 138.15 28.0023C138.25 28.2261 138.404 28.3901 138.611 28.4944C138.827 28.5771 139.081 28.6248 139.373 28.6378C139.68 28.644 140.01 28.622 140.363 28.5718C140.731 28.515 141.1 28.4399 141.47 28.3465C141.972 28.2298 142.466 28.1529 142.95 28.1158C143.428 28.0638 143.877 28.0873 144.296 28.1863C144.716 28.2853 145.096 28.474 145.434 28.7522C145.773 29.0305 146.059 29.4307 146.292 29.953C146.558 30.5498 146.665 31.1104 146.612 31.6347C146.56 32.1589 146.392 32.6452 146.109 33.0934C145.834 33.52 145.47 33.9062 145.016 34.2518C144.576 34.5907 144.096 34.8766 143.573 35.1095C142.678 35.5087 141.842 35.7204 141.066 35.7446C140.298 35.7472 139.487 35.4919 138.632 34.9787L139.54 33.2856ZM158.041 26.0667C158.227 26.5553 158.417 27.0075 158.61 27.4234C158.804 27.8393 158.967 28.2228 159.101 28.574L157.406 29.2193C157.296 28.9292 157.178 28.642 157.052 28.3577C156.926 28.0734 156.805 27.7786 156.689 27.4733L156.643 27.4907C156.62 27.7968 156.54 28.1155 156.404 28.447C156.283 28.7727 156.108 29.0929 155.878 29.4077C155.643 29.7072 155.354 29.9831 155.013 30.2353C154.678 30.5028 154.289 30.7208 153.847 30.8894C153.144 31.1568 152.493 31.2825 151.892 31.2664C151.307 31.2445 150.774 31.1066 150.293 30.8528C149.811 30.599 149.385 30.2369 149.013 29.7664C148.652 29.2749 148.348 28.7085 148.104 28.0673L145.584 21.4485L147.37 20.7683L149.821 27.2039C150.164 28.1047 150.633 28.7391 151.227 29.107C151.822 29.475 152.539 29.4991 153.379 29.1794C153.959 28.9585 154.418 28.6703 154.754 28.3148C155.106 27.9536 155.342 27.5403 155.462 27.075C155.597 26.6039 155.63 26.0932 155.561 25.5428C155.506 24.9867 155.363 24.4032 155.13 23.7925L153.142 18.5707L154.928 17.8906L158.041 26.0667ZM156.396 9.88366L158.21 9.283L164.032 26.8714L162.218 27.472L156.396 9.88366ZM170.65 14.6035L167.404 15.5528L169.014 21.0568C169.119 21.4174 169.226 21.7523 169.333 22.0613C169.436 22.3547 169.577 22.6029 169.755 22.806C169.929 22.9934 170.147 23.1256 170.407 23.2025C170.664 23.2638 170.996 23.2348 171.403 23.1155C171.67 23.0376 171.935 22.9259 172.199 22.7807C172.463 22.6354 172.702 22.4633 172.916 22.2645L173.475 23.9139C173.203 24.1467 172.88 24.3518 172.506 24.5292C172.148 24.702 171.797 24.8389 171.452 24.9397C170.793 25.1324 170.243 25.1998 169.8 25.1419C169.358 25.0841 168.981 24.9305 168.669 24.681C168.358 24.4316 168.097 24.091 167.886 23.6592C167.685 23.2071 167.503 22.6988 167.337 22.1343L165.569 16.0894L163.17 16.7911L162.716 15.2387L165.115 14.537L164.201 11.4087L166.035 10.8722L166.95 14.0005L170.196 13.0511L170.65 14.6035ZM172.736 12.3773L174.587 11.9008L177.446 23.0077L175.595 23.4842L172.736 12.3773ZM171.19 8.14418C171.097 7.78028 171.142 7.43126 171.326 7.09713C171.526 6.75892 171.815 6.54094 172.195 6.44319C172.575 6.34545 172.926 6.39847 173.248 6.60228C173.586 6.80201 173.802 7.08383 173.896 7.44773C173.998 7.84328 173.955 8.20021 173.767 8.51852C173.579 8.83683 173.287 9.0469 172.891 9.14872C172.496 9.25054 172.139 9.20746 171.821 9.01948C171.502 8.83149 171.292 8.53973 171.19 8.14418ZM178.97 13.6635C178.862 13.152 178.745 12.6758 178.618 12.235C178.492 11.7941 178.389 11.3899 178.312 11.0222L180.086 10.6475C180.15 10.9512 180.222 11.2532 180.303 11.5536C180.383 11.8539 180.457 12.1639 180.524 12.4836L180.572 12.4735C180.642 12.1748 180.763 11.8739 180.932 11.5708C181.118 11.2644 181.351 10.9816 181.63 10.7222C181.906 10.4469 182.232 10.2111 182.607 10.0148C182.98 9.80253 183.398 9.64744 183.862 9.54953C184.597 9.39424 185.252 9.37278 185.827 9.48516C186.418 9.59417 186.931 9.81135 187.367 10.1367C187.803 10.4621 188.162 10.8956 188.443 11.4373C188.737 11.9596 188.955 12.5565 189.097 13.2278L190.56 20.1573L188.69 20.5523L187.267 13.8147C187.068 12.8715 186.703 12.1721 186.173 11.7164C185.642 11.2607 184.938 11.1257 184.059 11.3114C183.451 11.4396 182.946 11.655 182.542 11.9573C182.154 12.2562 181.857 12.6279 181.65 13.0723C181.46 13.5134 181.348 14.0128 181.315 14.5707C181.299 15.1252 181.358 15.7222 181.493 16.3616L182.648 21.8285L180.778 22.2234L178.97 13.6635ZM204.803 17.5162C205.097 19.5867 204.785 21.2314 203.869 22.4503C202.971 23.6832 201.52 24.4417 199.514 24.726C198.398 24.8842 197.364 24.8658 196.412 24.6706C195.476 24.4732 194.548 24.0355 193.627 23.3575L194.766 21.612C195.456 22.1743 196.155 22.5701 196.865 22.7996C197.592 23.043 198.393 23.1028 199.266 22.979C200.107 22.8598 200.784 22.6318 201.298 22.295C201.83 21.9721 202.226 21.5694 202.488 21.0868C202.752 20.6204 202.909 20.103 202.961 19.5347C203.012 18.9663 202.996 18.3829 202.911 17.7844L202.704 16.3286L202.656 16.3355C202.306 17.1276 201.791 17.7451 201.112 18.1879C200.432 18.6308 199.712 18.9061 198.952 19.0139C198.062 19.14 197.224 19.1102 196.439 18.9245C195.654 18.7388 194.957 18.4249 194.35 17.983C193.743 17.541 193.243 16.9848 192.851 16.3143C192.459 15.6438 192.204 14.888 192.084 14.0469C191.954 13.1248 191.981 12.2711 192.167 11.4858C192.353 10.7004 192.669 10.0203 193.115 9.44551C193.576 8.85222 194.159 8.36535 194.864 7.98489C195.569 7.60444 196.374 7.35001 197.28 7.22162C197.668 7.16659 198.064 7.1601 198.465 7.20213C198.865 7.22798 199.257 7.31274 199.64 7.45642C200.037 7.58162 200.402 7.76917 200.735 8.01907C201.065 8.25279 201.353 8.54192 201.6 8.88645L201.649 8.87957L201.374 6.93846L203.266 6.67021L204.803 17.5162ZM194.123 13.758C194.205 14.3403 194.387 14.8673 194.669 15.339C194.948 15.7944 195.291 16.183 195.7 16.5046C196.123 16.8077 196.591 17.03 197.106 17.1715C197.621 17.3131 198.154 17.3448 198.704 17.2669C199.351 17.1752 199.909 16.9805 200.379 16.683C200.848 16.3855 201.226 16.0266 201.513 15.6064C201.814 15.1677 202.019 14.6932 202.128 14.1827C202.235 13.656 202.249 13.1177 202.171 12.5677C202.084 11.953 201.908 11.4087 201.643 10.9347C201.375 10.4446 201.037 10.0388 200.629 9.71716C200.22 9.39555 199.751 9.17323 199.222 9.05019C198.691 8.91098 198.126 8.88379 197.528 8.96862C196.929 9.05345 196.395 9.24464 195.926 9.54217C195.471 9.82124 195.092 10.1801 194.792 10.6188C194.505 11.039 194.301 11.5216 194.18 12.0668C194.057 12.5957 194.038 13.1595 194.123 13.758ZM220.75 8.12443C220.739 7.52003 220.844 6.95448 221.063 6.42779C221.283 5.9011 221.585 5.43834 221.971 5.0395C222.356 4.64066 222.808 4.32236 223.327 4.08461C223.845 3.84686 224.407 3.72274 225.011 3.71227C225.616 3.70179 226.181 3.80637 226.708 4.026C227.235 4.24563 227.697 4.54807 228.096 4.93332C228.495 5.31857 228.813 5.77057 229.051 6.28933C229.289 6.80809 229.413 7.36967 229.424 7.97407C229.434 8.57847 229.329 9.14402 229.11 9.67071C228.89 10.1974 228.588 10.6602 228.202 11.059C227.817 11.4578 227.365 11.7761 226.846 12.0139C226.328 12.2516 225.766 12.3758 225.162 12.3862C224.557 12.3967 223.992 12.2921 223.465 12.0725C222.938 11.8529 222.476 11.5504 222.077 11.1652C221.678 10.7799 221.36 10.3279 221.122 9.80917C220.884 9.29041 220.76 8.72883 220.75 8.12443Z" fill="#51644C"/>
</svg>