<svg width="182" height="183" viewBox="0 0 182 183" fill="none" xmlns="http://www.w3.org/2000/svg">
<circle cx="90.7297" cy="91.4403" r="90.7297" fill="#4D5F52"/>
<circle cx="90.7297" cy="91.4403" r="73.5388" fill="#A4B69E"/>
<path d="M174.008 118.44C175.681 118.983 176.602 120.781 176.002 122.433C169.271 140.954 156.678 156.811 140.096 167.564C122.622 178.896 101.781 183.871 81.0728 181.655C60.3643 179.438 41.0489 170.164 26.3693 155.391C12.4389 141.371 3.48806 123.208 0.829589 103.682C0.592399 101.94 1.87362 100.378 3.62299 100.202L6.30478 99.9319C8.05415 99.7559 9.60857 101.033 9.85254 102.774C12.2984 120.23 20.3337 136.459 32.7978 149.003C46.0111 162.301 63.3973 170.649 82.0373 172.644C100.677 174.639 119.436 170.161 135.165 159.961C150.002 150.339 161.29 136.179 167.375 119.636C167.982 117.986 169.772 117.067 171.444 117.609L174.008 118.44Z" fill="url(#paint0_linear_160_1036)"/>
<path d="M60.9104 9.12905C60.3115 7.47599 61.1646 5.6448 62.8376 5.10427C77.6823 0.308388 93.5321 -0.584161 108.853 2.53913C125.215 5.87465 140.339 13.6609 152.56 25.0405C164.78 36.42 173.623 50.9514 178.115 67.0343C182.321 82.094 182.559 97.9671 178.832 113.115C178.412 114.823 176.646 115.804 174.955 115.324L172.35 114.586C170.658 114.106 169.682 112.347 170.095 110.638C173.371 97.0982 173.131 82.9263 169.375 69.4755C165.332 55.0012 157.373 41.9233 146.375 31.6819C135.377 21.4406 121.766 14.4332 107.04 11.4313C93.3561 8.64164 79.2031 9.41172 65.9308 13.6425C64.2556 14.1765 62.4316 13.3282 61.8328 11.6752L60.9104 9.12905Z" fill="url(#paint1_linear_160_1036)"/>
<defs>
<linearGradient id="paint0_linear_160_1036" x1="162.246" y1="145.878" x2="120.673" y2="41.1643" gradientUnits="userSpaceOnUse">
<stop stop-color="#D8FACD"/>
<stop offset="1" stop-color="#C2E6B6"/>
</linearGradient>
<linearGradient id="paint1_linear_160_1036" x1="79.9059" y1="4.53107" x2="174.137" y2="125.822" gradientUnits="userSpaceOnUse">
<stop stop-color="#D8FACD"/>
<stop offset="1" stop-color="#799B72"/>
<stop offset="1" stop-color="#70C1FA"/>
</linearGradient>
</defs>
</svg>
