
<svg width="182" height="183" viewBox="0 0 182 183" fill="none" xmlns="http://www.w3.org/2000/svg">
<circle cx="90.7297" cy="91.4403" r="90.7297" fill="#4D5F52"/>
<circle cx="90.7297" cy="91.4403" r="73.5388" fill="#A4B69E"/>
<path d="M60.9104 9.12905C60.3115 7.47599 61.1646 5.6448 62.8376 5.10427C77.6823 0.308388 93.5321 -0.584161 108.853 2.53913C125.215 5.87465 140.339 13.6609 152.56 25.0405C164.78 36.42 173.623 50.9514 178.115 67.0343C182.321 82.094 182.559 97.9671 178.832 113.115C178.412 114.823 176.646 115.804 174.955 115.324L172.35 114.586C170.658 114.106 169.682 112.347 170.095 110.638C173.371 97.0982 173.131 82.9263 169.375 69.4755C165.332 55.0012 157.373 41.9233 146.375 31.6819C135.377 21.4406 121.766 14.4332 107.04 11.4313C93.3561 8.64164 79.2031 9.41172 65.9308 13.6425C64.2556 14.1765 62.4316 13.3282 61.8328 11.6752L60.9104 9.12905Z" fill="url(#paint0_linear_160_1045)"/>
<defs>
<linearGradient id="paint0_linear_160_1045" x1="79.9059" y1="4.53107" x2="174.137" y2="125.822" gradientUnits="userSpaceOnUse">
<stop stop-color="#D8FACD"/>
<stop offset="1" stop-color="#799B72"/>
<stop offset="1" stop-color="#70C1FA"/>
</linearGradient>
</defs>
</svg>
