<svg width="354" height="353" viewBox="0 0 354 353" fill="none" xmlns="http://www.w3.org/2000/svg">
<circle cx="177.545" cy="176.966" r="156.464" stroke="#E0E4DF" stroke-width="30.1617"/>
<path d="M280.103 50.3905L276.584 47.7305L269.422 57.2045L268.159 56.2497L275.32 46.7757L271.802 44.1157L272.688 42.9427L280.989 49.2175L280.103 50.3905ZM277.095 53.4569C277.741 53.3956 278.368 53.4829 278.975 53.7189C279.601 53.9534 280.157 54.2782 280.646 54.6932C281.642 55.5396 282.161 56.3846 282.202 57.2282C282.244 58.0718 281.858 58.9724 281.044 59.9301L278.591 62.8174C278.428 63.0089 278.267 63.2182 278.107 63.4451C277.955 63.6625 277.82 63.8696 277.702 64.0664L276.625 63.1508C276.717 62.9651 276.835 62.7771 276.98 62.587C277.143 62.3955 277.286 62.2279 277.408 62.0843L277.379 62.0599C276.866 62.2174 276.329 62.2477 275.768 62.1505C275.217 62.0615 274.683 61.7973 274.166 61.3578C273.821 61.0649 273.532 60.7451 273.299 60.3985C273.075 60.06 272.918 59.7117 272.826 59.3536C272.752 58.994 272.754 58.6328 272.832 58.2699C272.909 57.9069 273.086 57.5627 273.363 57.2371C273.835 56.6816 274.349 56.368 274.905 56.2961C275.461 56.2242 276.015 56.2907 276.566 56.4956C277.127 56.7086 277.668 57.0034 278.189 57.3802C278.72 57.7651 279.191 58.1325 279.603 58.4824L280.034 58.8486L280.205 58.6475C280.62 58.1591 280.785 57.6643 280.699 57.163C280.624 56.6699 280.322 56.1995 279.796 55.7519C279.432 55.4427 279.02 55.1997 278.56 55.0231C278.117 54.845 277.656 54.7666 277.176 54.7877L277.095 53.4569ZM278.108 58.8445C277.389 58.2342 276.734 57.8505 276.142 57.6935C275.55 57.5365 275.058 57.6879 274.667 58.1476C274.309 58.5689 274.192 58.9886 274.315 59.4066C274.456 59.8231 274.737 60.2104 275.158 60.5685C275.484 60.8452 275.811 61.0326 276.14 61.1307C276.487 61.2274 276.819 61.2539 277.136 61.2103C277.454 61.1667 277.757 61.0618 278.047 60.8956C278.345 60.7199 278.616 60.4972 278.862 60.2276L279.228 59.7967L278.108 58.8445ZM289.165 55.2362L290.225 56.2553L283.77 62.9678L289.356 62.9518L290.864 64.4022L285.01 64.3434L285.062 71.0619L283.499 69.5593L283.561 63.1852L280.347 66.5279L279.287 65.5087L289.165 55.2362ZM292.224 76.5288C291.367 76.5979 290.625 76.494 289.996 76.2174C289.377 75.9322 288.788 75.4838 288.227 74.8721C287.761 74.3623 287.429 73.8229 287.231 73.2538C287.043 72.6763 286.97 72.1038 287.013 71.5364C287.064 70.9783 287.226 70.4294 287.499 69.8899C287.78 69.3597 288.157 68.8781 288.63 68.4453C289.131 67.9869 289.666 67.6502 290.236 67.4351C290.815 67.2115 291.388 67.1122 291.957 67.1372C292.534 67.1537 293.093 67.2894 293.633 67.5444C294.173 67.7995 294.664 68.168 295.106 68.6499C295.522 69.104 295.825 69.5933 296.015 70.1175C296.215 70.6333 296.289 71.1614 296.239 71.7018C296.206 72.243 296.045 72.7829 295.754 73.3216C295.473 73.8519 295.063 74.3631 294.526 74.8554L294.178 75.1737L289.366 69.9186C289.105 70.1918 288.895 70.5028 288.738 70.8517C288.598 71.2013 288.516 71.558 288.491 71.9216C288.475 72.2767 288.526 72.6303 288.644 72.9824C288.762 73.3345 288.957 73.6588 289.228 73.9554C289.661 74.4281 290.11 74.7502 290.574 74.9218C291.037 75.0934 291.55 75.1605 292.113 75.1229L292.224 76.5288ZM294.026 73.1656C294.566 72.6378 294.845 72.0497 294.865 71.4012C294.884 70.7527 294.618 70.1273 294.066 69.5249C293.515 68.9224 292.902 68.5886 292.229 68.5234C291.556 68.4583 290.907 68.6432 290.283 69.0783L294.026 73.1656ZM304.639 82.3977L303.05 80.3379L299.557 83.0324C299.328 83.2089 299.118 83.3789 298.927 83.5424C298.746 83.6982 298.607 83.8685 298.512 84.0533C298.426 84.2304 298.392 84.4232 298.41 84.6316C298.438 84.8323 298.552 85.062 298.751 85.3207C298.882 85.4899 299.036 85.6487 299.214 85.7971C299.392 85.9455 299.582 86.0686 299.785 86.1664L298.759 87.0287C298.516 86.8988 298.279 86.7248 298.047 86.5067C297.823 86.2986 297.627 86.0851 297.458 85.8662C297.136 85.4483 296.933 85.0727 296.851 84.7395C296.768 84.4063 296.773 84.0933 296.864 83.8005C296.956 83.5076 297.127 83.225 297.377 82.9527C297.645 82.6826 297.958 82.4093 298.316 82.133L302.152 79.1737L300.977 77.6513L301.962 76.8913L303.137 78.4138L305.122 76.8823L306.02 78.0465L304.035 79.578L305.624 81.6377L304.639 82.3977ZM311.221 80.1533L312.053 81.3662L306.563 85.1277L306.585 85.1588C306.787 85.1423 307.005 85.1604 307.239 85.2132C307.483 85.2589 307.73 85.3412 307.979 85.46C308.235 85.5892 308.485 85.7533 308.728 85.9524C308.971 86.1515 309.189 86.391 309.38 86.6709C309.707 87.1478 309.915 87.607 310.004 88.0485C310.101 88.5005 310.098 88.9293 309.995 89.3349C309.892 89.7406 309.689 90.1232 309.387 90.4826C309.102 90.8452 308.742 91.1758 308.307 91.4741L303.813 94.5537L302.982 93.3407L307.351 90.3464C307.963 89.9273 308.353 89.4622 308.521 88.9511C308.688 88.4401 308.577 87.8994 308.186 87.3292C307.916 86.9353 307.614 86.6394 307.281 86.4414C306.954 86.2539 306.602 86.1521 306.226 86.1359C305.856 86.1302 305.468 86.1979 305.062 86.339C304.663 86.4905 304.257 86.7083 303.842 86.9925L300.296 89.422L299.465 88.2091L311.221 80.1533ZM310.459 102.49C309.606 102.381 308.901 102.127 308.343 101.726C307.796 101.32 307.311 100.76 306.889 100.046C306.537 99.451 306.323 98.8547 306.247 98.2572C306.182 97.6533 306.228 97.0782 306.387 96.5317C306.552 95.996 306.824 95.4923 307.202 95.0205C307.586 94.5595 308.054 94.1659 308.606 93.8396C309.19 93.494 309.783 93.2747 310.385 93.1815C310.997 93.0818 311.579 93.1027 312.13 93.2441C312.692 93.3791 313.211 93.627 313.687 93.9877C314.163 94.3485 314.568 94.8101 314.9 95.3726C315.214 95.9026 315.41 96.4438 315.488 96.996C315.578 97.5419 315.542 98.074 315.381 98.5924C315.238 99.1153 314.969 99.6104 314.573 100.078C314.189 100.539 313.683 100.955 313.056 101.326L312.65 101.566L309.022 95.4328C308.711 95.6464 308.442 95.9077 308.216 96.2166C308.007 96.53 307.853 96.862 307.754 97.2127C307.665 97.557 307.642 97.9136 307.685 98.2824C307.728 98.6512 307.852 99.0087 308.057 99.3549C308.383 99.9065 308.756 100.314 309.174 100.577C309.593 100.841 310.081 101.012 310.639 101.091L310.459 102.49ZM312.915 99.5695C313.551 99.164 313.945 98.646 314.098 98.0154C314.251 97.3848 314.119 96.718 313.703 96.0149C313.287 95.3119 312.757 94.8591 312.111 94.6568C311.466 94.4545 310.793 94.502 310.093 94.7994L312.915 99.5695ZM319.629 107.121L318.791 105.39L319.911 104.848L320.749 106.579L322.531 105.717C323.017 105.482 323.48 105.314 323.92 105.212C324.371 105.106 324.795 105.089 325.194 105.162C325.597 105.246 325.966 105.43 326.299 105.716C326.644 105.996 326.945 106.402 327.202 106.933C327.284 107.103 327.355 107.292 327.414 107.501C327.473 107.71 327.499 107.893 327.491 108.05L326.213 108.438C326.173 108.066 326.084 107.739 325.948 107.456C325.783 107.117 325.593 106.881 325.375 106.749C325.169 106.612 324.934 106.544 324.67 106.546C324.422 106.554 324.146 106.618 323.841 106.737C323.541 106.868 323.222 107.016 322.882 107.18L321.389 107.903L322.325 109.837L321.205 110.379L320.269 108.444L313.447 111.744L312.807 110.421L319.629 107.121ZM323.05 111.462L323.643 112.807L315.572 116.368L314.978 115.023L323.05 111.462ZM326.069 109.759C326.334 109.643 326.604 109.633 326.881 109.731C327.163 109.84 327.364 110.033 327.486 110.309C327.608 110.585 327.612 110.858 327.497 111.128C327.388 111.41 327.201 111.609 326.937 111.725C326.649 111.852 326.373 111.864 326.108 111.761C325.843 111.659 325.647 111.464 325.52 111.176C325.393 110.889 325.381 110.612 325.484 110.347C325.587 110.082 325.782 109.886 326.069 109.759ZM322.865 116.35C323.239 116.201 323.584 116.05 323.902 115.896C324.219 115.742 324.512 115.612 324.78 115.505L325.298 116.8C325.076 116.889 324.856 116.983 324.639 117.083C324.422 117.183 324.197 117.28 323.964 117.373L323.977 117.408C324.213 117.422 324.457 117.474 324.709 117.563C324.966 117.663 325.211 117.802 325.444 117.98C325.689 118.153 325.91 118.369 326.108 118.628C326.318 118.882 326.491 119.179 326.626 119.517C326.663 119.611 326.695 119.706 326.72 119.805C326.746 119.903 326.76 120.005 326.762 120.113L325.344 120.577C325.321 120.316 325.258 120.057 325.156 119.8C324.82 118.96 324.301 118.456 323.599 118.29C322.913 118.131 322.097 118.24 321.152 118.618L317.16 120.211L316.615 118.845L322.865 116.35ZM321.159 124.155C320.909 124.548 320.739 124.939 320.649 125.33C320.563 125.732 320.606 126.183 320.779 126.682C320.854 126.895 320.952 127.101 321.073 127.298C321.199 127.507 321.346 127.682 321.515 127.823C321.684 127.964 321.864 128.061 322.055 128.114C322.259 128.163 322.473 128.149 322.699 128.07C322.924 127.992 323.09 127.874 323.195 127.718C323.304 127.574 323.378 127.402 323.415 127.203C323.464 126.999 323.481 126.78 323.466 126.546C323.451 126.312 323.428 126.074 323.398 125.832C323.345 125.411 323.31 125.004 323.293 124.611C323.276 124.218 323.303 123.855 323.374 123.525C323.462 123.202 323.613 122.91 323.828 122.649C324.048 122.399 324.371 122.2 324.798 122.052C325.202 121.912 325.589 121.877 325.959 121.948C326.33 122.019 326.668 122.167 326.973 122.394C327.278 122.621 327.547 122.899 327.782 123.23C328.017 123.561 328.202 123.922 328.338 124.314C328.545 124.908 328.616 125.495 328.552 126.076C328.492 126.669 328.244 127.201 327.809 127.671L326.641 126.78C326.876 126.499 327.031 126.179 327.106 125.82C327.197 125.469 327.17 125.086 327.025 124.671C326.959 124.481 326.868 124.293 326.75 124.108C326.637 123.934 326.505 123.787 326.357 123.666C326.208 123.544 326.038 123.457 325.847 123.404C325.671 123.358 325.489 123.369 325.299 123.435C325.121 123.497 324.985 123.604 324.891 123.756C324.814 123.916 324.761 124.107 324.732 124.33C324.707 124.565 324.702 124.819 324.718 125.093C324.737 125.379 324.771 125.667 324.818 125.957C324.875 126.349 324.901 126.733 324.898 127.106C324.907 127.476 324.86 127.818 324.756 128.133C324.653 128.449 324.484 128.727 324.248 128.969C324.013 129.21 323.687 129.403 323.272 129.547C322.797 129.712 322.36 129.758 321.962 129.683C321.564 129.609 321.202 129.448 320.877 129.202C320.568 128.964 320.296 128.659 320.06 128.288C319.829 127.93 319.642 127.543 319.497 127.127C319.25 126.415 319.142 125.76 319.174 125.164C319.222 124.575 319.471 123.97 319.92 123.348L321.159 124.155ZM330.002 134.527L329.271 132.03L325.038 133.269C324.76 133.35 324.503 133.432 324.265 133.515C324.039 133.594 323.848 133.702 323.692 133.839C323.548 133.973 323.446 134.141 323.387 134.341C323.34 134.538 323.362 134.794 323.454 135.107C323.514 135.312 323.6 135.516 323.712 135.719C323.823 135.922 323.956 136.106 324.109 136.271L322.84 136.701C322.661 136.492 322.503 136.243 322.367 135.956C322.234 135.68 322.128 135.41 322.051 135.145C321.903 134.638 321.851 134.214 321.895 133.874C321.94 133.534 322.058 133.244 322.25 133.004C322.441 132.765 322.703 132.564 323.036 132.401C323.383 132.247 323.774 132.107 324.209 131.98L328.858 130.619L328.318 128.774L329.513 128.424L330.052 130.27L332.459 129.566L332.872 130.977L330.465 131.681L331.196 134.178L330.002 134.527ZM326.601 142.702C326.304 143.06 326.085 143.427 325.946 143.803C325.809 144.191 325.796 144.644 325.904 145.16C325.951 145.382 326.022 145.598 326.118 145.809C326.216 146.032 326.34 146.224 326.489 146.386C326.639 146.547 326.805 146.666 326.988 146.743C327.184 146.817 327.398 146.83 327.632 146.781C327.866 146.732 328.045 146.636 328.169 146.495C328.296 146.365 328.39 146.204 328.453 146.011C328.527 145.816 328.572 145.601 328.587 145.366C328.602 145.132 328.609 144.893 328.609 144.649C328.61 144.225 328.627 143.817 328.66 143.425C328.693 143.032 328.766 142.677 328.878 142.358C329.006 142.048 329.193 141.778 329.44 141.546C329.689 141.327 330.035 141.171 330.478 141.077C330.896 140.989 331.284 141.004 331.643 141.121C332.001 141.238 332.317 141.429 332.591 141.692C332.865 141.956 333.097 142.266 333.288 142.624C333.479 142.982 333.617 143.364 333.702 143.77C333.832 144.385 333.828 144.977 333.691 145.545C333.556 146.125 333.243 146.622 332.752 147.033L331.706 146.001C331.975 145.752 332.169 145.454 332.289 145.108C332.423 144.771 332.445 144.388 332.355 143.957C332.313 143.761 332.246 143.563 332.153 143.364C332.062 143.178 331.951 143.015 331.819 142.876C331.687 142.736 331.529 142.628 331.346 142.551C331.178 142.484 330.996 142.471 330.799 142.512C330.614 142.551 330.466 142.64 330.354 142.779C330.257 142.928 330.18 143.111 330.123 143.329C330.069 143.559 330.032 143.81 330.012 144.084C329.995 144.37 329.992 144.66 330.002 144.953C330.009 145.35 329.987 145.733 329.936 146.104C329.898 146.471 329.808 146.805 329.665 147.104C329.523 147.404 329.319 147.659 329.055 147.868C328.791 148.078 328.444 148.228 328.013 148.319C327.522 148.422 327.083 148.412 326.697 148.288C326.311 148.163 325.973 147.958 325.681 147.673C325.405 147.397 325.174 147.06 324.987 146.663C324.804 146.278 324.667 145.87 324.576 145.44C324.421 144.702 324.397 144.039 324.504 143.451C324.627 142.873 324.95 142.304 325.475 141.745L326.601 142.702ZM334.06 154.11L333.651 151.541L329.295 152.235C329.009 152.28 328.743 152.329 328.497 152.381C328.263 152.431 328.06 152.514 327.888 152.631C327.728 152.745 327.606 152.898 327.522 153.09C327.45 153.279 327.44 153.536 327.491 153.858C327.525 154.069 327.584 154.282 327.67 154.498C327.755 154.713 327.863 154.913 327.994 155.095L326.681 155.362C326.53 155.131 326.405 154.865 326.306 154.562C326.208 154.272 326.138 153.991 326.095 153.718C326.012 153.197 326.014 152.77 326.101 152.438C326.188 152.106 326.342 151.833 326.562 151.62C326.783 151.407 327.068 151.24 327.418 151.121C327.783 151.012 328.188 150.922 328.635 150.851L333.42 150.089L333.117 148.19L334.346 147.995L334.648 149.894L337.124 149.499L337.355 150.951L334.879 151.346L335.289 153.915L334.06 154.11ZM329.163 164.41C328.432 163.957 327.897 163.432 327.556 162.836C327.227 162.239 327.019 161.528 326.932 160.703C326.859 160.016 326.913 159.385 327.092 158.81C327.284 158.233 327.565 157.73 327.937 157.299C328.309 156.88 328.766 156.535 329.306 156.263C329.847 156.003 330.436 155.84 331.074 155.773C331.749 155.701 332.379 155.748 332.965 155.914C333.564 156.078 334.084 156.339 334.527 156.696C334.981 157.053 335.35 157.494 335.633 158.02C335.917 158.546 336.092 159.134 336.161 159.784C336.226 160.396 336.179 160.97 336.021 161.505C335.875 162.038 335.621 162.508 335.26 162.912C334.912 163.328 334.461 163.667 333.908 163.927C333.366 164.187 332.733 164.355 332.008 164.431L331.54 164.481L330.79 157.395C330.418 157.459 330.065 157.585 329.731 157.772C329.411 157.97 329.132 158.208 328.896 158.486C328.673 158.762 328.504 159.077 328.39 159.431C328.275 159.784 328.239 160.161 328.282 160.56C328.349 161.198 328.518 161.723 328.79 162.137C329.061 162.551 329.434 162.909 329.908 163.213L329.163 164.41ZM332.61 162.775C333.358 162.671 333.932 162.364 334.333 161.854C334.734 161.344 334.891 160.683 334.805 159.871C334.72 159.058 334.425 158.426 333.922 157.973C333.42 157.521 332.788 157.285 332.028 157.264L332.61 162.775ZM336.528 166.306L336.583 167.775L335.302 167.823L335.304 167.861C335.796 168.245 336.184 168.696 336.468 169.213C336.752 169.743 336.906 170.329 336.93 170.969C336.955 171.66 336.86 172.292 336.642 172.866C336.438 173.453 336.136 173.954 335.737 174.372C335.337 174.789 334.859 175.121 334.303 175.369C333.746 175.616 333.135 175.752 332.469 175.777C331.804 175.802 331.184 175.712 330.61 175.507C330.037 175.302 329.535 175.007 329.106 174.62C328.677 174.246 328.333 173.794 328.074 173.263C327.828 172.731 327.693 172.158 327.67 171.543C327.64 170.751 327.784 170.048 328.1 169.433C328.43 168.829 328.84 168.38 329.332 168.085L329.331 168.047L323.472 168.267L323.417 166.797L336.528 166.306ZM332.175 167.94C331.711 167.958 331.28 168.043 330.883 168.196C330.5 168.362 330.162 168.588 329.871 168.876C329.593 169.163 329.373 169.498 329.211 169.881C329.062 170.277 328.997 170.713 329.015 171.19C329.033 171.668 329.13 172.092 329.308 172.462C329.498 172.845 329.743 173.169 330.042 173.434C330.354 173.699 330.707 173.894 331.102 174.017C331.509 174.153 331.945 174.212 332.41 174.195C332.874 174.177 333.299 174.086 333.682 173.921C334.079 173.767 334.417 173.547 334.695 173.26C334.986 172.972 335.206 172.631 335.355 172.235C335.516 171.852 335.588 171.422 335.57 170.945C335.553 170.467 335.448 170.037 335.258 169.655C335.081 169.284 334.836 168.966 334.524 168.701C334.225 168.436 333.872 168.235 333.464 168.1C333.07 167.976 332.64 167.923 332.175 167.94ZM335.246 188.086L335.382 185.488L330.976 185.258C330.688 185.243 330.418 185.235 330.166 185.234C329.927 185.234 329.711 185.273 329.518 185.351C329.338 185.43 329.186 185.554 329.064 185.724C328.955 185.894 328.891 186.143 328.874 186.469C328.863 186.682 328.877 186.903 328.915 187.132C328.954 187.36 329.018 187.578 329.108 187.784L327.768 187.77C327.668 187.513 327.601 187.227 327.568 186.91C327.533 186.606 327.523 186.316 327.538 186.04C327.565 185.513 327.656 185.096 327.811 184.79C327.965 184.483 328.173 184.249 328.433 184.086C328.693 183.924 329.007 183.821 329.374 183.777C329.753 183.746 330.169 183.743 330.62 183.767L335.458 184.02L335.559 182.1L336.801 182.165L336.701 184.085L339.205 184.216L339.128 185.684L336.624 185.553L336.488 188.151L335.246 188.086ZM331.975 189.076C332.662 189.152 333.273 189.34 333.809 189.64C334.345 189.939 334.79 190.317 335.144 190.774C335.511 191.231 335.775 191.76 335.936 192.359C336.097 192.959 336.141 193.596 336.066 194.27C335.991 194.945 335.81 195.557 335.521 196.107C335.233 196.657 334.86 197.115 334.402 197.481C333.957 197.849 333.44 198.121 332.852 198.296C332.263 198.471 331.626 198.521 330.939 198.445C330.252 198.369 329.64 198.181 329.104 197.881C328.568 197.582 328.117 197.203 327.751 196.745C327.396 196.289 327.139 195.761 326.977 195.162C326.816 194.562 326.773 193.925 326.847 193.251C326.922 192.576 327.104 191.964 327.392 191.414C327.68 190.865 328.047 190.406 328.493 190.038C328.95 189.671 329.473 189.4 330.062 189.225C330.65 189.05 331.288 189 331.975 189.076ZM331.801 190.65C331.339 190.599 330.9 190.62 330.485 190.713C330.081 190.82 329.714 190.995 329.384 191.236C329.066 191.479 328.799 191.779 328.583 192.134C328.378 192.503 328.249 192.925 328.197 193.4C328.144 193.875 328.178 194.308 328.299 194.701C328.431 195.108 328.626 195.464 328.883 195.771C329.152 196.079 329.473 196.323 329.845 196.503C330.228 196.697 330.65 196.82 331.113 196.871C331.575 196.922 332.008 196.894 332.412 196.787C332.827 196.694 333.193 196.526 333.511 196.283C333.841 196.041 334.108 195.736 334.314 195.366C334.53 195.011 334.664 194.596 334.717 194.121C334.769 193.647 334.73 193.206 334.598 192.799C334.477 192.407 334.282 192.056 334.012 191.748C333.755 191.442 333.435 191.191 333.052 190.997C332.68 190.817 332.263 190.701 331.801 190.65ZM326.487 207.227L326.494 207.19C326.05 206.827 325.709 206.317 325.472 205.66C325.245 205.018 325.203 204.308 325.347 203.529C325.458 202.923 325.674 202.375 325.994 201.885C326.327 201.396 326.733 200.992 327.214 200.671C327.692 200.363 328.23 200.149 328.827 200.029C329.424 199.909 330.05 199.909 330.705 200.029C331.36 200.15 331.946 200.372 332.461 200.697C332.976 201.022 333.401 201.419 333.736 201.89C334.072 202.361 334.299 202.894 334.42 203.491C334.55 204.103 334.552 204.749 334.427 205.429C334.312 206.059 334.076 206.61 333.721 207.081C333.364 207.565 332.914 207.962 332.371 208.271L332.365 208.308L338.965 209.522L338.699 210.968L324.683 208.39L324.949 206.944L326.487 207.227ZM329.287 207.742C329.744 207.826 330.178 207.829 330.589 207.751C331.009 207.688 331.387 207.547 331.721 207.327C332.067 207.11 332.356 206.824 332.588 206.47C332.829 206.131 332.993 205.727 333.079 205.257C333.165 204.788 333.157 204.345 333.055 203.93C332.962 203.53 332.793 203.167 332.546 202.84C332.312 202.516 332.01 202.243 331.642 202.022C331.284 201.816 330.876 201.671 330.419 201.587C329.962 201.502 329.523 201.492 329.102 201.555C328.692 201.633 328.313 201.781 327.966 201.998C327.632 202.218 327.344 202.497 327.103 202.836C326.872 203.19 326.713 203.601 326.627 204.071C326.541 204.541 326.544 204.976 326.636 205.376C326.739 205.791 326.907 206.161 327.141 206.485C327.388 206.811 327.69 207.078 328.049 207.284C328.417 207.505 328.83 207.658 329.287 207.742ZM331.677 212.391C332.016 212.945 332.213 213.546 332.268 214.195C332.332 214.86 332.285 215.503 332.127 216.124C331.805 217.391 331.274 218.228 330.534 218.637C329.795 219.045 328.816 219.094 327.598 218.784L323.926 217.849C323.683 217.787 323.424 217.734 323.15 217.69C322.888 217.649 322.643 217.619 322.414 217.6L322.763 216.23C322.97 216.231 323.191 216.255 323.426 216.302C323.669 216.364 323.882 216.418 324.065 216.464L324.074 216.428C323.707 216.036 323.444 215.567 323.285 215.021C323.123 214.487 323.125 213.891 323.293 213.233C323.404 212.795 323.564 212.394 323.773 212.033C323.979 211.683 324.223 211.388 324.504 211.149C324.795 210.925 325.12 210.767 325.48 210.678C325.84 210.588 326.227 210.595 326.641 210.701C327.347 210.881 327.855 211.205 328.164 211.672C328.473 212.14 328.657 212.666 328.715 213.252C328.77 213.85 328.743 214.465 328.634 215.099C328.521 215.744 328.398 216.329 328.265 216.853L328.125 217.401L328.381 217.466C329.002 217.624 329.519 217.555 329.932 217.258C330.342 216.973 330.632 216.496 330.802 215.826C330.92 215.363 330.957 214.886 330.914 214.395C330.879 213.92 330.747 213.471 330.517 213.049L331.677 212.391ZM327.283 215.669C327.515 214.756 327.572 213.998 327.452 213.397C327.333 212.796 326.981 212.421 326.397 212.273C325.861 212.136 325.432 212.215 325.111 212.509C324.799 212.819 324.574 213.242 324.438 213.778C324.332 214.192 324.308 214.568 324.364 214.907C324.43 215.26 324.552 215.57 324.731 215.836C324.909 216.102 325.137 216.329 325.413 216.516C325.702 216.706 326.022 216.852 326.372 216.954L326.92 217.094L327.283 215.669ZM318.903 222.129C318.591 221.87 318.315 221.617 318.078 221.369C317.825 221.129 317.631 220.869 317.497 220.588C317.347 220.316 317.266 220.013 317.255 219.679C317.227 219.353 317.281 218.981 317.415 218.562C317.48 218.359 317.561 218.147 317.658 217.928C317.751 217.72 317.877 217.536 318.034 217.375L319.197 217.946C319.091 218.071 319.007 218.209 318.945 218.36C318.871 218.508 318.801 218.684 318.736 218.887C318.59 219.342 318.608 219.717 318.79 220.014C318.973 220.31 319.248 220.603 319.617 220.893L321.012 221.974L330.584 221.206L330.06 222.839L322.637 223.327L322.625 223.363L328.412 227.972L327.922 229.498L318.903 222.129ZM319.222 244.809C319.637 245.019 319.984 245.294 320.263 245.633C320.543 245.971 320.749 246.343 320.881 246.749C321.014 247.154 321.068 247.576 321.043 248.014C321.019 248.452 320.901 248.879 320.691 249.294C320.481 249.708 320.206 250.055 319.868 250.335C319.529 250.614 319.157 250.82 318.752 250.953C318.346 251.086 317.924 251.139 317.486 251.115C317.048 251.09 316.621 250.972 316.207 250.762C315.792 250.552 315.445 250.278 315.166 249.939C314.886 249.6 314.68 249.228 314.548 248.823C314.415 248.418 314.361 247.996 314.386 247.558C314.41 247.119 314.528 246.693 314.738 246.278C314.948 245.863 315.222 245.516 315.561 245.237C315.9 244.958 316.272 244.752 316.677 244.619C317.083 244.486 317.504 244.432 317.943 244.457C318.381 244.482 318.807 244.599 319.222 244.809ZM305.343 277.048L307.933 273.477L298.32 266.504L299.249 265.222L308.863 272.196L311.453 268.625L312.643 269.488L306.533 277.911L305.343 277.048ZM302.218 274.101C302.292 274.746 302.217 275.374 301.993 275.986C301.77 276.616 301.456 277.179 301.051 277.675C300.224 278.687 299.389 279.223 298.547 279.281C297.704 279.339 296.796 278.971 295.823 278.176L292.888 275.779C292.694 275.62 292.481 275.462 292.251 275.307C292.031 275.16 291.821 275.029 291.622 274.915L292.517 273.82C292.704 273.908 292.894 274.023 293.087 274.164C293.282 274.323 293.452 274.462 293.598 274.582L293.622 274.552C293.455 274.042 293.414 273.506 293.5 272.944C293.578 272.391 293.832 271.852 294.261 271.326C294.548 270.976 294.862 270.681 295.204 270.441C295.538 270.211 295.883 270.046 296.239 269.948C296.597 269.867 296.958 269.862 297.323 269.932C297.687 270.003 298.035 270.173 298.366 270.443C298.93 270.905 299.254 271.412 299.337 271.967C299.419 272.521 299.364 273.076 299.169 273.631C298.967 274.197 298.683 274.743 298.317 275.271C297.942 275.809 297.584 276.288 297.242 276.706L296.884 277.144L297.089 277.311C297.585 277.717 298.083 277.872 298.583 277.777C299.074 277.691 299.539 277.381 299.976 276.846C300.278 276.476 300.513 276.059 300.68 275.596C300.85 275.15 300.919 274.687 300.889 274.208L302.218 274.101ZM296.851 275.218C297.447 274.488 297.818 273.826 297.963 273.23C298.109 272.635 297.948 272.147 297.481 271.765C297.053 271.415 296.631 271.306 296.215 271.437C295.801 271.586 295.42 271.875 295.07 272.303C294.8 272.634 294.619 272.965 294.527 273.296C294.437 273.644 294.417 273.977 294.467 274.293C294.517 274.61 294.627 274.911 294.799 275.197C294.981 275.492 295.209 275.759 295.483 275.999L295.921 276.357L296.851 275.218ZM300.671 286.206L299.672 287.285L292.838 280.958L292.96 286.543L291.539 288.078L291.487 282.224L284.77 282.403L286.243 280.812L292.617 280.753L289.214 277.603L290.213 276.524L300.671 286.206ZM279.444 289.682C279.358 288.827 279.447 288.082 279.71 287.449C279.983 286.824 280.419 286.225 281.019 285.653C281.519 285.176 282.052 284.833 282.617 284.624C283.19 284.424 283.761 284.339 284.329 284.371C284.889 284.41 285.441 284.561 285.986 284.823C286.521 285.093 287.011 285.46 287.453 285.924C287.921 286.415 288.269 286.943 288.496 287.509C288.731 288.083 288.842 288.655 288.829 289.223C288.824 289.801 288.7 290.362 288.456 290.908C288.212 291.453 287.853 291.951 287.381 292.402C286.935 292.827 286.452 293.141 285.932 293.342C285.42 293.552 284.894 293.637 284.352 293.598C283.811 293.576 283.268 293.426 282.723 293.146C282.187 292.876 281.668 292.477 281.165 291.95L280.839 291.609L285.995 286.69C285.716 286.434 285.401 286.231 285.049 286.081C284.697 285.948 284.339 285.873 283.975 285.856C283.619 285.847 283.267 285.906 282.917 286.031C282.567 286.156 282.247 286.357 281.956 286.635C281.492 287.077 281.18 287.532 281.017 287.999C280.855 288.467 280.799 288.981 280.848 289.542L279.444 289.682ZM282.844 291.416C283.382 291.944 283.976 292.211 284.625 292.218C285.274 292.224 285.894 291.945 286.485 291.381C287.076 290.817 287.397 290.198 287.448 289.524C287.5 288.85 287.302 288.205 286.854 287.59L282.844 291.416ZM273.814 302.199L275.847 300.575L273.093 297.129C272.912 296.904 272.738 296.696 272.572 296.508C272.413 296.329 272.24 296.194 272.054 296.101C271.875 296.019 271.682 295.988 271.474 296.01C271.274 296.041 271.046 296.159 270.791 296.363C270.624 296.496 270.468 296.653 270.322 296.834C270.177 297.014 270.057 297.206 269.963 297.41L269.083 296.4C269.209 296.155 269.379 295.915 269.593 295.679C269.797 295.452 270.007 295.252 270.223 295.079C270.635 294.749 271.007 294.541 271.339 294.452C271.671 294.364 271.984 294.363 272.278 294.45C272.573 294.536 272.858 294.702 273.135 294.948C273.409 295.211 273.688 295.519 273.97 295.873L276.995 299.657L278.497 298.457L279.274 299.429L277.772 300.629L279.337 302.588L278.189 303.506L276.623 301.547L274.591 303.171L273.814 302.199ZM276.192 308.733L274.996 309.588L271.125 304.176L271.094 304.198C271.114 304.399 271.101 304.618 271.053 304.853C271.012 305.098 270.935 305.347 270.821 305.598C270.697 305.857 270.538 306.109 270.343 306.356C270.149 306.603 269.914 306.826 269.638 307.023C269.168 307.359 268.713 307.577 268.273 307.675C267.823 307.78 267.395 307.786 266.987 307.691C266.579 307.596 266.193 307.401 265.827 307.106C265.459 306.829 265.121 306.476 264.814 306.046L261.645 301.615L262.841 300.76L265.923 305.068C266.354 305.671 266.827 306.052 267.341 306.209C267.856 306.367 268.394 306.244 268.956 305.842C269.344 305.564 269.634 305.257 269.826 304.919C270.006 304.589 270.101 304.235 270.11 303.858C270.108 303.489 270.033 303.102 269.883 302.699C269.724 302.303 269.498 301.901 269.206 301.492L266.705 297.996L267.901 297.141L276.192 308.733ZM253.845 308.427C253.936 307.572 254.176 306.861 254.564 306.295C254.959 305.74 255.509 305.243 256.214 304.806C256.802 304.442 257.393 304.216 257.989 304.127C258.591 304.05 259.167 304.084 259.717 304.231C260.256 304.385 260.765 304.646 261.245 305.014C261.714 305.389 262.117 305.849 262.455 306.393C262.812 306.97 263.044 307.559 263.15 308.158C263.262 308.769 263.253 309.351 263.124 309.905C263 310.469 262.763 310.993 262.413 311.477C262.062 311.96 261.609 312.374 261.053 312.719C260.53 313.043 259.993 313.25 259.442 313.34C258.899 313.441 258.366 313.416 257.844 313.267C257.318 313.134 256.818 312.875 256.342 312.49C255.873 312.115 255.447 311.618 255.063 310.999L254.814 310.598L260.871 306.843C260.651 306.536 260.384 306.273 260.07 306.053C259.753 305.851 259.417 305.704 259.065 305.612C258.719 305.531 258.362 305.515 257.994 305.566C257.626 305.617 257.271 305.748 256.929 305.96C256.385 306.298 255.985 306.679 255.73 307.103C255.476 307.527 255.315 308.018 255.247 308.577L253.845 308.427ZM256.816 310.821C257.235 311.449 257.761 311.832 258.394 311.972C259.028 312.111 259.692 311.966 260.386 311.535C261.08 311.105 261.522 310.565 261.711 309.916C261.9 309.266 261.838 308.595 261.526 307.901L256.816 310.821ZM249.396 317.675L251.11 316.804L251.673 317.913L249.959 318.784L250.857 320.549C251.101 321.03 251.279 321.49 251.389 321.928C251.504 322.376 251.529 322.801 251.465 323.2C251.389 323.605 251.211 323.977 250.932 324.317C250.659 324.667 250.26 324.976 249.733 325.244C249.565 325.329 249.377 325.403 249.17 325.467C248.962 325.53 248.78 325.559 248.622 325.555L248.209 324.284C248.58 324.237 248.905 324.142 249.185 323.999C249.521 323.829 249.753 323.633 249.881 323.413C250.014 323.204 250.078 322.968 250.07 322.704C250.057 322.456 249.988 322.181 249.862 321.879C249.725 321.582 249.571 321.265 249.401 320.929L248.649 319.451L246.733 320.425L246.169 319.315L248.085 318.341L244.65 311.586L245.961 310.92L249.396 317.675ZM245.12 321.181L243.786 321.8L240.074 313.797L241.408 313.178L245.12 321.181ZM246.88 324.168C247.001 324.43 247.016 324.701 246.923 324.979C246.819 325.263 246.631 325.468 246.357 325.595C246.083 325.722 245.811 325.731 245.538 325.622C245.254 325.518 245.052 325.335 244.93 325.072C244.798 324.787 244.781 324.511 244.879 324.244C244.976 323.977 245.168 323.778 245.453 323.645C245.738 323.513 246.014 323.496 246.281 323.594C246.548 323.692 246.747 323.883 246.88 324.168ZM240.23 321.09C240.387 321.461 240.545 321.803 240.705 322.117C240.865 322.432 241.002 322.722 241.114 322.988L239.829 323.531C239.736 323.311 239.638 323.094 239.533 322.879C239.428 322.664 239.327 322.44 239.229 322.209L239.195 322.224C239.185 322.46 239.139 322.704 239.055 322.958C238.96 323.217 238.825 323.464 238.653 323.701C238.485 323.95 238.273 324.175 238.018 324.379C237.768 324.594 237.475 324.772 237.139 324.914C237.047 324.953 236.952 324.986 236.854 325.014C236.757 325.042 236.654 325.058 236.547 325.062L236.054 323.654C236.315 323.625 236.572 323.557 236.827 323.45C237.661 323.097 238.153 322.568 238.305 321.863C238.451 321.174 238.325 320.36 237.929 319.423L236.256 315.464L237.61 314.891L240.23 321.09ZM232.397 319.537C231.999 319.295 231.604 319.133 231.212 319.05C230.808 318.971 230.358 319.023 229.863 319.206C229.651 319.284 229.447 319.386 229.253 319.512C229.046 319.641 228.874 319.792 228.736 319.963C228.598 320.135 228.505 320.316 228.455 320.509C228.41 320.713 228.429 320.927 228.511 321.151C228.594 321.375 228.714 321.538 228.873 321.641C229.019 321.748 229.192 321.818 229.392 321.851C229.596 321.896 229.816 321.909 230.049 321.89C230.283 321.871 230.521 321.843 230.763 321.808C231.182 321.747 231.588 321.704 231.981 321.68C232.374 321.655 232.737 321.676 233.069 321.741C233.393 321.822 233.688 321.968 233.953 322.178C234.207 322.393 234.411 322.712 234.568 323.137C234.716 323.538 234.758 323.924 234.694 324.296C234.63 324.668 234.488 325.008 234.267 325.317C234.046 325.626 233.773 325.901 233.446 326.142C233.12 326.383 232.762 326.576 232.373 326.719C231.784 326.936 231.198 327.019 230.616 326.965C230.022 326.917 229.485 326.679 229.007 326.253L229.876 325.068C230.161 325.298 230.484 325.447 230.844 325.515C231.197 325.599 231.579 325.565 231.992 325.413C232.181 325.343 232.366 325.248 232.549 325.127C232.721 325.01 232.866 324.876 232.984 324.726C233.103 324.575 233.187 324.403 233.236 324.211C233.278 324.034 233.265 323.852 233.195 323.663C233.13 323.486 233.02 323.353 232.866 323.262C232.705 323.188 232.512 323.138 232.289 323.113C232.054 323.093 231.799 323.093 231.526 323.114C231.24 323.139 230.953 323.177 230.664 323.23C230.273 323.294 229.89 323.328 229.517 323.332C229.147 323.348 228.804 323.307 228.487 323.21C228.17 323.112 227.888 322.948 227.642 322.718C227.396 322.487 227.197 322.165 227.045 321.752C226.871 321.281 226.818 320.845 226.885 320.445C226.951 320.046 227.105 319.681 227.345 319.351C227.578 319.038 227.877 318.76 228.243 318.518C228.597 318.28 228.981 318.085 229.394 317.933C230.101 317.672 230.753 317.552 231.35 317.572C231.94 317.609 232.55 317.847 233.18 318.284L232.397 319.537ZM222.197 328.582L224.678 327.802L223.355 323.594C223.268 323.318 223.181 323.062 223.093 322.826C223.01 322.602 222.898 322.413 222.757 322.26C222.62 322.118 222.451 322.02 222.249 321.965C222.051 321.922 221.797 321.949 221.485 322.048C221.281 322.112 221.079 322.202 220.878 322.317C220.677 322.433 220.496 322.569 220.335 322.726L219.879 321.466C220.085 321.282 220.33 321.12 220.615 320.977C220.887 320.839 221.155 320.728 221.419 320.645C221.923 320.487 222.345 320.427 222.686 320.464C223.027 320.502 223.32 320.614 223.563 320.801C223.806 320.988 224.012 321.246 224.182 321.575C224.343 321.919 224.491 322.307 224.627 322.739L226.081 327.36L227.915 326.783L228.288 327.97L226.454 328.547L227.207 330.939L225.804 331.38L225.052 328.988L222.57 329.769L222.197 328.582ZM213.965 325.349C213.602 325.059 213.231 324.847 212.853 324.715C212.462 324.585 212.009 324.58 211.495 324.698C211.274 324.748 211.059 324.823 210.85 324.923C210.629 325.025 210.439 325.152 210.28 325.305C210.122 325.457 210.006 325.626 209.932 325.81C209.861 326.007 209.852 326.222 209.906 326.454C209.959 326.687 210.058 326.864 210.202 326.986C210.333 327.111 210.496 327.202 210.69 327.261C210.887 327.332 211.103 327.373 211.337 327.383C211.572 327.394 211.811 327.397 212.055 327.393C212.479 327.386 212.887 327.395 213.28 327.421C213.673 327.447 214.029 327.514 214.351 327.621C214.662 327.743 214.936 327.925 215.172 328.167C215.396 328.412 215.558 328.755 215.66 329.196C215.755 329.613 215.748 330.001 215.637 330.362C215.526 330.723 215.342 331.042 215.083 331.321C214.825 331.599 214.518 331.837 214.164 332.034C213.809 332.232 213.43 332.377 213.026 332.469C212.413 332.61 211.822 332.617 211.251 332.49C210.668 332.365 210.166 332.061 209.746 331.578L210.759 330.514C211.013 330.778 211.314 330.967 211.663 331.08C212.002 331.209 212.385 331.224 212.814 331.125C213.01 331.081 213.207 331.01 213.404 330.913C213.588 330.819 213.749 330.705 213.886 330.57C214.023 330.436 214.128 330.276 214.202 330.092C214.266 329.922 214.276 329.739 214.231 329.543C214.188 329.36 214.097 329.213 213.956 329.104C213.805 329.009 213.621 328.936 213.402 328.883C213.171 328.832 212.919 328.8 212.645 328.785C212.359 328.774 212.069 328.776 211.776 328.791C211.379 328.805 210.996 328.79 210.624 328.746C210.256 328.714 209.921 328.63 209.619 328.493C209.317 328.356 209.058 328.157 208.844 327.897C208.629 327.637 208.473 327.292 208.375 326.864C208.262 326.374 208.265 325.935 208.382 325.547C208.5 325.159 208.698 324.817 208.979 324.52C209.249 324.239 209.582 324.002 209.976 323.808C210.357 323.617 210.763 323.473 211.191 323.375C211.926 323.206 212.589 323.17 213.178 323.267C213.758 323.379 214.333 323.692 214.902 324.206L213.965 325.349ZM202.697 333.026L205.257 332.566L204.476 328.224C204.425 327.94 204.371 327.675 204.314 327.43C204.259 327.197 204.172 326.996 204.052 326.826C203.934 326.668 203.779 326.549 203.585 326.469C203.394 326.401 203.138 326.396 202.817 326.454C202.606 326.492 202.394 326.556 202.181 326.645C201.967 326.735 201.77 326.847 201.59 326.981L201.297 325.674C201.524 325.518 201.788 325.388 202.089 325.283C202.377 325.18 202.657 325.104 202.929 325.055C203.448 324.961 203.875 324.955 204.208 325.035C204.542 325.116 204.818 325.264 205.036 325.48C205.253 325.696 205.425 325.978 205.552 326.326C205.668 326.688 205.766 327.092 205.846 327.537L206.704 332.305L208.597 331.965L208.817 333.189L206.925 333.53L207.369 335.997L205.922 336.258L205.478 333.79L202.917 334.251L202.697 333.026ZM192.305 328.326C192.745 327.588 193.259 327.042 193.848 326.69C194.439 326.35 195.146 326.128 195.969 326.026C196.655 325.94 197.287 325.981 197.865 326.149C198.445 326.33 198.954 326.602 199.392 326.965C199.818 327.33 200.171 327.78 200.454 328.315C200.723 328.851 200.898 329.437 200.977 330.073C201.062 330.746 201.026 331.378 200.872 331.967C200.719 332.569 200.468 333.094 200.119 333.543C199.772 334.004 199.338 334.381 198.817 334.674C198.296 334.968 197.712 335.155 197.063 335.236C196.452 335.312 195.878 335.276 195.34 335.128C194.804 334.993 194.33 334.748 193.918 334.394C193.496 334.054 193.149 333.61 192.878 333.061C192.608 332.525 192.428 331.895 192.338 331.172L192.279 330.704L199.35 329.82C199.278 329.449 199.146 329.099 198.952 328.768C198.748 328.452 198.505 328.178 198.223 327.948C197.942 327.729 197.624 327.566 197.269 327.459C196.914 327.351 196.536 327.322 196.137 327.372C195.501 327.452 194.979 327.631 194.571 327.91C194.162 328.189 193.811 328.569 193.516 329.049L192.305 328.326ZM194.005 331.742C194.123 332.488 194.441 333.056 194.959 333.447C195.476 333.838 196.14 333.983 196.951 333.882C197.762 333.781 198.388 333.474 198.831 332.963C199.274 332.452 199.498 331.816 199.504 331.055L194.005 331.742ZM190.547 335.726L189.079 335.807L189.008 334.527L188.97 334.529C188.595 335.028 188.151 335.424 187.639 335.717C187.114 336.01 186.532 336.175 185.892 336.21C185.201 336.249 184.567 336.164 183.99 335.957C183.4 335.763 182.893 335.471 182.468 335.079C182.044 334.687 181.703 334.215 181.446 333.663C181.188 333.111 181.041 332.502 181.004 331.837C180.967 331.172 181.046 330.551 181.241 329.974C181.435 329.397 181.722 328.89 182.1 328.453C182.466 328.018 182.913 327.666 183.439 327.397C183.966 327.142 184.537 326.997 185.152 326.963C185.942 326.919 186.648 327.049 187.269 327.355C187.879 327.673 188.335 328.076 188.639 328.563L188.677 328.561L188.352 322.707L189.82 322.625L190.547 335.726ZM188.834 331.403C188.809 330.938 188.716 330.509 188.555 330.115C188.383 329.735 188.151 329.402 187.858 329.116C187.566 328.842 187.227 328.628 186.84 328.474C186.442 328.332 186.005 328.275 185.528 328.301C185.051 328.327 184.629 328.433 184.262 328.617C183.883 328.814 183.563 329.065 183.303 329.369C183.044 329.685 182.856 330.042 182.739 330.438C182.611 330.848 182.56 331.285 182.585 331.749C182.611 332.214 182.71 332.636 182.882 333.017C183.043 333.411 183.269 333.744 183.561 334.018C183.854 334.303 184.199 334.517 184.597 334.659C184.983 334.813 185.415 334.878 185.892 334.851C186.368 334.825 186.797 334.713 187.176 334.516C187.543 334.332 187.857 334.081 188.116 333.765C188.376 333.461 188.57 333.104 188.698 332.694C188.815 332.297 188.86 331.867 188.834 331.403ZM168.748 334.853L171.348 334.94L171.495 330.531C171.505 330.243 171.508 329.972 171.503 329.721C171.499 329.482 171.456 329.266 171.374 329.075C171.292 328.896 171.165 328.747 170.993 328.629C170.82 328.522 170.571 328.464 170.244 328.453C170.031 328.446 169.81 328.463 169.582 328.506C169.355 328.549 169.139 328.617 168.934 328.711L168.922 327.371C169.177 327.266 169.463 327.194 169.778 327.155C170.082 327.114 170.371 327.099 170.648 327.108C171.175 327.126 171.594 327.209 171.903 327.357C172.212 327.506 172.451 327.709 172.618 327.966C172.786 328.223 172.895 328.535 172.945 328.901C172.983 329.28 172.994 329.695 172.979 330.147L172.818 334.989L174.739 335.053L174.698 336.297L172.776 336.233L172.693 338.738L171.223 338.689L171.307 336.184L168.707 336.097L168.748 334.853ZM167.693 331.603C167.631 332.292 167.456 332.907 167.168 333.449C166.879 333.99 166.51 334.443 166.061 334.806C165.611 335.182 165.088 335.457 164.492 335.63C163.896 335.804 163.26 335.86 162.584 335.8C161.908 335.739 161.292 335.57 160.737 335.293C160.181 335.016 159.716 334.652 159.34 334.202C158.963 333.764 158.681 333.253 158.493 332.668C158.306 332.084 158.244 331.447 158.306 330.759C158.368 330.07 158.543 329.455 158.831 328.913C159.12 328.371 159.489 327.912 159.939 327.536C160.388 327.173 160.911 326.905 161.507 326.731C162.103 326.558 162.739 326.501 163.415 326.562C164.091 326.623 164.707 326.792 165.262 327.069C165.818 327.346 166.284 327.703 166.661 328.141C167.037 328.591 167.318 329.109 167.505 329.693C167.693 330.278 167.755 330.915 167.693 331.603ZM166.116 331.461C166.158 330.998 166.128 330.56 166.026 330.147C165.911 329.746 165.729 329.382 165.481 329.057C165.231 328.744 164.927 328.484 164.567 328.275C164.193 328.077 163.769 327.957 163.293 327.914C162.818 327.871 162.385 327.914 161.995 328.043C161.591 328.183 161.238 328.385 160.937 328.648C160.635 328.924 160.397 329.25 160.225 329.625C160.038 330.012 159.924 330.437 159.883 330.9C159.841 331.364 159.878 331.796 159.993 332.197C160.095 332.61 160.27 332.973 160.52 333.286C160.768 333.611 161.079 333.872 161.452 334.07C161.812 334.279 162.23 334.405 162.706 334.448C163.181 334.491 163.621 334.442 164.025 334.301C164.415 334.172 164.761 333.97 165.063 333.695C165.365 333.431 165.608 333.106 165.795 332.719C165.967 332.344 166.074 331.924 166.116 331.461ZM149.441 326.479L149.478 326.485C149.832 326.034 150.336 325.684 150.988 325.434C151.626 325.195 152.335 325.139 153.116 325.267C153.724 325.367 154.276 325.572 154.773 325.883C155.268 326.206 155.68 326.604 156.01 327.079C156.327 327.551 156.551 328.084 156.683 328.679C156.815 329.274 156.827 329.9 156.719 330.557C156.611 331.214 156.4 331.804 156.085 332.325C155.771 332.847 155.381 333.28 154.917 333.624C154.453 333.968 153.924 334.206 153.329 334.338C152.72 334.48 152.075 334.495 151.392 334.383C150.76 334.279 150.205 334.055 149.726 333.709C149.236 333.361 148.831 332.919 148.511 332.382L148.474 332.376L147.388 338.999L145.937 338.761L148.243 324.697L149.694 324.935L149.441 326.479ZM148.98 329.288C148.905 329.747 148.91 330.181 148.996 330.59C149.068 331.009 149.216 331.384 149.442 331.714C149.666 332.056 149.957 332.339 150.315 332.564C150.659 332.798 151.066 332.954 151.538 333.031C152.009 333.109 152.451 333.092 152.864 332.981C153.262 332.881 153.623 332.705 153.944 332.452C154.264 332.211 154.531 331.905 154.744 331.532C154.944 331.17 155.081 330.76 155.156 330.301C155.232 329.842 155.234 329.403 155.162 328.984C155.077 328.575 154.922 328.199 154.698 327.857C154.472 327.527 154.187 327.245 153.843 327.01C153.485 326.786 153.07 326.635 152.599 326.558C152.128 326.48 151.693 326.492 151.295 326.592C150.882 326.703 150.515 326.878 150.196 327.119C149.874 327.372 149.614 327.679 149.414 328.041C149.2 328.414 149.056 328.829 148.98 329.288ZM144.377 331.766C143.83 332.115 143.233 332.324 142.584 332.391C141.921 332.467 141.277 332.432 140.653 332.286C139.381 331.987 138.534 331.471 138.112 330.74C137.69 330.008 137.623 329.03 137.91 327.807L138.777 324.118C138.834 323.874 138.882 323.614 138.921 323.339C138.957 323.076 138.982 322.83 138.997 322.602L140.374 322.925C140.377 323.132 140.357 323.354 140.315 323.589C140.257 323.834 140.207 324.048 140.164 324.231L140.2 324.24C140.585 323.866 141.049 323.594 141.593 323.424C142.124 323.252 142.719 323.244 143.38 323.399C143.821 323.503 144.224 323.655 144.589 323.857C144.943 324.057 145.242 324.295 145.486 324.572C145.716 324.858 145.879 325.18 145.976 325.539C146.072 325.897 146.072 326.284 145.974 326.7C145.807 327.41 145.493 327.923 145.031 328.241C144.569 328.558 144.046 328.752 143.462 328.821C142.865 328.887 142.249 328.872 141.614 328.774C140.966 328.673 140.379 328.561 139.853 328.438L139.303 328.308L139.242 328.565C139.096 329.189 139.175 329.705 139.479 330.112C139.771 330.516 140.254 330.798 140.927 330.956C141.392 331.065 141.869 331.093 142.359 331.041C142.834 330.997 143.28 330.857 143.698 330.619L144.377 331.766ZM141.019 327.434C141.936 327.649 142.694 327.692 143.293 327.561C143.892 327.431 144.26 327.072 144.398 326.485C144.524 325.946 144.438 325.519 144.137 325.204C143.822 324.897 143.395 324.681 142.857 324.554C142.441 324.456 142.064 324.439 141.727 324.502C141.374 324.574 141.067 324.702 140.804 324.885C140.541 325.069 140.319 325.3 140.137 325.58C139.952 325.873 139.812 326.195 139.717 326.547L139.587 327.097L141.019 327.434ZM134.387 319.179C134.639 318.861 134.887 318.581 135.13 318.338C135.364 318.081 135.62 317.882 135.898 317.742C136.167 317.586 136.469 317.499 136.802 317.481C137.127 317.446 137.5 317.492 137.922 317.618C138.127 317.679 138.34 317.756 138.561 317.849C138.771 317.937 138.958 318.059 139.122 318.213L138.574 319.387C138.448 319.284 138.308 319.202 138.155 319.144C138.006 319.073 137.829 319.007 137.624 318.946C137.166 318.809 136.791 318.835 136.499 319.023C136.207 319.211 135.919 319.493 135.637 319.867L134.584 321.284L135.548 330.838L133.904 330.347L133.265 322.936L133.228 322.925L128.738 328.804L127.203 328.346L134.387 319.179ZM106.989 317.687C106.773 318.098 106.493 318.441 106.15 318.715C105.807 318.989 105.432 319.19 105.025 319.316C104.618 319.443 104.195 319.491 103.757 319.459C103.32 319.428 102.895 319.304 102.483 319.088C102.072 318.872 101.729 318.592 101.455 318.249C101.18 317.906 100.98 317.531 100.853 317.124C100.727 316.717 100.679 316.294 100.71 315.856C100.742 315.418 100.866 314.994 101.082 314.582C101.298 314.17 101.578 313.827 101.921 313.553C102.264 313.279 102.639 313.079 103.046 312.952C103.453 312.826 103.876 312.778 104.314 312.809C104.752 312.841 105.176 312.964 105.588 313.181C106 313.397 106.342 313.677 106.616 314.02C106.891 314.362 107.091 314.737 107.218 315.145C107.344 315.552 107.392 315.975 107.361 316.413C107.329 316.85 107.205 317.275 106.989 317.687ZM74.9444 303.37L78.481 306.006L85.579 296.485L86.8485 297.431L79.7506 306.953L83.2872 309.589L82.4084 310.768L74.0656 304.549L74.9444 303.37ZM77.9319 300.28C77.2863 300.344 76.6592 300.26 76.0505 300.027C75.4242 299.795 74.8659 299.473 74.3757 299.06C73.376 298.218 72.8534 297.375 72.8079 296.532C72.7624 295.688 73.1444 294.786 73.954 293.825L76.3948 290.926C76.5567 290.734 76.7171 290.524 76.8759 290.297C77.0267 290.079 77.1606 289.871 77.2774 289.674L78.3589 290.584C78.2678 290.77 78.1501 290.959 78.0059 291.15C77.844 291.342 77.7024 291.51 77.5809 291.654L77.6098 291.679C78.1223 291.519 78.6591 291.486 79.2202 291.581C79.7717 291.667 80.3069 291.929 80.826 292.366C81.1721 292.658 81.4625 292.976 81.6972 293.322C81.9223 293.659 82.0814 294.007 82.1745 294.365C82.2499 294.724 82.2496 295.085 82.1737 295.448C82.0978 295.812 81.9222 296.157 81.647 296.483C81.1774 297.041 80.6649 297.357 80.1094 297.431C79.5538 297.506 78.9998 297.442 78.4473 297.239C77.8852 297.029 77.3429 296.736 76.8203 296.362C76.288 295.979 75.8152 295.614 75.4019 295.266L74.9693 294.902L74.7993 295.103C74.3865 295.594 74.2238 296.089 74.3113 296.59C74.3892 297.083 74.6925 297.552 75.2211 297.997C75.5864 298.305 75.9995 298.546 76.4604 298.721C76.9036 298.897 77.365 298.973 77.8447 298.95L77.9319 300.28ZM76.8955 294.897C77.6164 295.504 78.2734 295.885 78.8663 296.039C79.4593 296.194 79.95 296.04 80.3386 295.579C80.6948 295.156 80.8105 294.736 80.6855 294.318C80.5429 293.902 80.2601 293.516 79.8371 293.16C79.5103 292.885 79.1822 292.699 78.8528 292.602C78.5057 292.507 78.1736 292.482 77.8564 292.527C77.5391 292.572 77.2361 292.678 76.9472 292.846C76.6502 293.023 76.3795 293.247 76.1351 293.517L75.7708 293.95L76.8955 294.897ZM65.8623 298.566L64.7962 297.553L71.2091 290.801L65.6234 290.851L64.1061 289.41L69.9604 289.433L69.8671 282.715L71.439 284.208L71.4168 290.582L74.6103 287.219L75.6764 288.232L65.8623 298.566ZM62.6627 277.295C63.5191 277.22 64.2625 277.319 64.8927 277.591C65.5137 277.872 66.1064 278.316 66.6709 278.924C67.1413 279.43 67.4772 279.967 67.6786 280.535C67.8708 281.111 67.9475 281.683 67.9088 282.251C67.8615 282.809 67.7034 283.359 67.4344 283.901C67.1569 284.433 66.7833 284.917 66.3137 285.353C65.8165 285.815 65.2837 286.155 64.7154 286.375C64.1379 286.602 63.5649 286.706 62.9966 286.685C62.419 286.672 61.8592 286.54 61.3171 286.289C60.7751 286.038 60.2817 285.673 59.8369 285.194C59.4178 284.743 59.1112 284.256 58.9171 283.733C58.7137 283.219 58.6354 282.691 58.682 282.15C58.7109 281.609 58.8687 281.068 59.1554 280.527C59.4329 279.995 59.8387 279.481 60.3728 278.985L60.7181 278.664L65.5675 283.885C65.8267 283.61 66.0338 283.298 66.189 282.948C66.3265 282.597 66.4063 282.24 66.4286 281.876C66.4417 281.521 66.3881 281.167 66.2676 280.816C66.1472 280.465 65.9502 280.142 65.6765 279.847C65.2403 279.378 64.7896 279.059 64.3245 278.89C63.8594 278.722 63.346 278.659 62.7842 278.7L62.6627 277.295ZM60.8841 280.671C60.3488 281.203 60.0735 281.793 60.0585 282.441C60.0435 283.09 60.3139 283.713 60.8699 284.312C61.4258 284.91 62.0406 285.24 62.7142 285.3C63.3878 285.361 64.035 285.171 64.6559 284.732L60.8841 280.671ZM50.2268 271.495L51.8257 273.547L55.3053 270.836C55.5333 270.658 55.7426 270.487 55.9331 270.322C56.1137 270.166 56.2514 269.995 56.346 269.81C56.4307 269.632 56.4636 269.439 56.4447 269.231C56.4158 269.03 56.301 268.801 56.1002 268.543C55.9689 268.375 55.8139 268.217 55.6352 268.069C55.4565 267.922 55.2657 267.799 55.0628 267.703L56.0838 266.835C56.3275 266.964 56.5657 267.137 56.7985 267.354C57.0235 267.561 57.221 267.774 57.391 267.992C57.7154 268.408 57.9196 268.783 58.0037 269.115C58.0877 269.448 58.0847 269.761 57.9946 270.054C57.9045 270.348 57.735 270.631 57.4861 270.905C57.2196 271.176 56.9079 271.451 56.551 271.729L52.7294 274.707L53.9112 276.223L52.9298 276.988L51.748 275.471L49.7703 277.012L48.8665 275.852L50.8443 274.311L49.2453 272.259L50.2268 271.495ZM43.6584 273.778L42.8202 272.57L48.2873 268.776L48.2658 268.745C48.0639 268.763 47.8457 268.746 47.6112 268.695C47.3663 268.651 47.119 268.57 46.8693 268.452C46.6125 268.325 46.3619 268.162 46.1177 267.964C45.8735 267.767 45.6546 267.529 45.4612 267.25C45.1316 266.775 44.9209 266.317 44.829 265.876C44.7299 265.424 44.7307 264.996 44.8312 264.589C44.9317 264.183 45.1319 263.799 45.432 263.438C45.7146 263.074 46.0727 262.741 46.5063 262.44L50.9822 259.334L51.8205 260.542L47.4685 263.562C46.8593 263.985 46.4723 264.452 46.3076 264.964C46.1428 265.477 46.2575 266.017 46.6515 266.584C46.9238 266.977 47.2273 267.271 47.5622 267.467C47.8898 267.652 48.242 267.752 48.6188 267.766C48.9884 267.77 49.3758 267.7 49.781 267.556C50.1791 267.402 50.5846 267.182 50.9976 266.896L54.5288 264.445L55.367 265.653L43.6584 273.778ZM44.2908 251.437C45.1442 251.541 45.8511 251.792 46.4112 252.188C46.9606 252.592 47.4485 253.149 47.8749 253.861C48.2303 254.454 48.4476 255.048 48.5271 255.646C48.5958 256.249 48.5524 256.825 48.3969 257.372C48.235 257.908 47.9664 258.414 47.5912 258.888C47.2095 259.351 46.7437 259.747 46.194 260.077C45.6119 260.426 45.0201 260.648 44.4187 260.745C43.8066 260.848 43.2247 260.831 42.673 260.692C42.1105 260.561 41.5901 260.316 41.1118 259.958C40.6335 259.6 40.2264 259.141 39.8905 258.58C39.5739 258.052 39.3748 257.512 39.2932 256.96C39.2008 256.415 39.2334 255.882 39.391 255.363C39.5313 254.839 39.7977 254.343 40.1902 253.873C40.5719 253.41 41.0754 252.991 41.7006 252.616L42.1049 252.374L45.768 258.486C46.0785 258.271 46.3459 258.008 46.5702 257.697C46.7772 257.383 46.9293 257.05 47.0265 256.699C47.1129 256.354 47.1335 255.997 47.0884 255.629C47.0434 255.26 46.9175 254.903 46.7107 254.558C46.3812 254.009 46.0064 253.603 45.5863 253.342C45.1661 253.081 44.6769 252.913 44.1188 252.837L44.2908 251.437ZM41.8517 254.372C41.2179 254.781 40.8264 255.301 40.6774 255.933C40.5284 256.564 40.6638 257.23 41.0837 257.931C41.5037 258.631 42.0369 259.081 42.6834 259.28C43.3299 259.478 44.0024 259.427 44.7008 259.126L41.8517 254.372ZM35.091 246.858L35.9326 248.586L34.8139 249.131L33.9723 247.402L32.1926 248.269C31.7068 248.505 31.2441 248.674 30.8046 248.777C30.3538 248.884 29.9292 248.902 29.5309 248.83C29.1271 248.747 28.7581 248.564 28.4239 248.279C28.0784 248 27.7764 247.595 27.5178 247.064C27.4353 246.894 27.3643 246.705 27.3047 246.497C27.245 246.288 27.2189 246.105 27.2262 245.948L28.5034 245.557C28.5444 245.928 28.6337 246.255 28.7712 246.538C28.9362 246.877 29.1276 247.112 29.3454 247.243C29.552 247.381 29.7873 247.448 30.0515 247.445C30.2989 247.436 30.575 247.372 30.8798 247.251C31.1791 247.12 31.4982 246.971 31.8372 246.806L33.3288 246.08L32.3882 244.148L33.5068 243.603L34.4474 245.536L41.2611 242.219L41.9047 243.541L35.091 246.858ZM31.6569 242.535L31.0547 241.193L39.1033 237.58L39.7055 238.922L31.6569 242.535ZM28.6486 244.257C28.3849 244.375 28.1144 244.387 27.8372 244.291C27.5548 244.183 27.3518 243.992 27.2283 243.717C27.1048 243.442 27.0993 243.169 27.2119 242.898C27.3193 242.615 27.5048 242.415 27.7685 242.297C28.0552 242.168 28.3314 242.154 28.5972 242.255C28.863 242.356 29.0602 242.55 29.1888 242.837C29.3175 243.123 29.3313 243.4 29.2302 243.665C29.1291 243.931 28.9352 244.128 28.6486 244.257ZM31.8113 237.645C31.4386 237.796 31.094 237.95 30.7774 238.105C30.4608 238.261 30.1686 238.393 29.9007 238.502L29.3762 237.209C29.5974 237.119 29.8163 237.024 30.0329 236.922C30.2494 236.821 30.4741 236.723 30.707 236.628L30.6928 236.594C30.4571 236.581 30.2129 236.531 29.9605 236.443C29.7033 236.344 29.4575 236.206 29.2233 236.03C28.9774 235.859 28.7546 235.644 28.5549 235.386C28.3436 235.133 28.1695 234.837 28.0324 234.499C27.9946 234.406 27.9626 234.311 27.9365 234.213C27.9103 234.115 27.8958 234.012 27.8929 233.905L29.3083 233.432C29.3329 233.694 29.3972 233.952 29.5012 234.209C29.8415 235.047 30.3632 235.547 31.0665 235.71C31.7534 235.865 32.5684 235.751 33.5117 235.368L37.4943 233.752L38.0472 235.115L31.8113 237.645ZM33.4768 229.835C33.7244 229.441 33.8925 229.049 33.9812 228.658C34.0656 228.255 34.0201 227.804 33.8446 227.307C33.7694 227.093 33.6704 226.888 33.5478 226.692C33.421 226.483 33.2729 226.309 33.1036 226.169C32.9342 226.029 32.7537 225.932 32.562 225.88C32.3585 225.832 32.1441 225.847 31.9189 225.927C31.6937 226.006 31.5288 226.124 31.4242 226.281C31.3154 226.426 31.2428 226.598 31.2065 226.798C31.1584 227.001 31.1423 227.22 31.1582 227.454C31.1742 227.689 31.1982 227.927 31.2302 228.169C31.2851 228.589 31.3219 228.996 31.3406 229.389C31.3593 229.782 31.3338 230.144 31.2639 230.475C31.1781 230.799 31.0281 231.091 30.814 231.354C30.5958 231.604 30.2733 231.804 29.8466 231.954C29.4436 232.097 29.0567 232.133 28.6859 232.064C28.315 231.995 27.9766 231.848 27.6707 231.622C27.3647 231.397 27.0936 231.12 26.8574 230.79C26.6212 230.46 26.4341 230.099 26.2962 229.708C26.0873 229.116 26.0135 228.529 26.0751 227.947C26.1324 227.354 26.3776 226.821 26.8107 226.349L27.9826 227.235C27.749 227.517 27.5955 227.838 27.5222 228.197C27.4329 228.548 27.4613 228.931 27.6076 229.346C27.6744 229.536 27.7671 229.723 27.8856 229.908C27.9998 230.08 28.1315 230.227 28.2807 230.348C28.4298 230.469 28.6002 230.555 28.7919 230.607C28.9676 230.652 29.1502 230.641 29.3399 230.574C29.5177 230.511 29.6529 230.404 29.7457 230.251C29.8224 230.091 29.8748 229.899 29.9027 229.676C29.9265 229.441 29.9301 229.187 29.9134 228.913C29.8926 228.627 29.8578 228.339 29.8091 228.05C29.7507 227.657 29.7222 227.274 29.7237 226.901C29.7134 226.531 29.7592 226.189 29.861 225.873C29.9629 225.557 30.131 225.278 30.3653 225.035C30.5996 224.793 30.9242 224.599 31.339 224.452C31.8131 224.285 32.2495 224.238 32.6482 224.31C33.047 224.383 33.4094 224.542 33.7356 224.787C34.0457 225.024 34.3192 225.327 34.5562 225.697C34.7889 226.054 34.9784 226.441 35.1246 226.855C35.3754 227.566 35.486 228.22 35.4565 228.817C35.4111 229.406 35.1651 230.013 34.7188 230.636L33.4768 229.835ZM24.5668 219.512L25.3173 222.003L29.5409 220.731C29.8176 220.647 30.0745 220.563 30.3116 220.479C30.5366 220.398 30.7266 220.288 30.8817 220.149C31.0248 220.014 31.1251 219.846 31.1827 219.645C31.2282 219.448 31.2038 219.193 31.1095 218.88C31.0479 218.675 30.9604 218.472 30.847 218.27C30.7336 218.068 30.5998 217.885 30.4455 217.721L31.7107 217.281C31.8915 217.489 32.0513 217.736 32.1901 218.023C32.3252 218.297 32.4327 218.566 32.5124 218.831C32.6647 219.336 32.72 219.76 32.6783 220.1C32.6365 220.441 32.5207 220.732 32.3308 220.973C32.1409 221.214 31.8806 221.417 31.5497 221.582C31.2032 221.739 30.8134 221.883 30.3802 222.013L25.7415 223.411L26.2962 225.252L25.1049 225.611L24.5502 223.77L22.1496 224.493L21.7254 223.085L24.126 222.362L23.3755 219.871L24.5668 219.512ZM27.9245 211.321C28.22 210.962 28.4365 210.594 28.5741 210.217C28.709 209.828 28.7209 209.376 28.6099 208.86C28.5624 208.639 28.4902 208.423 28.3935 208.212C28.2942 207.989 28.1694 207.798 28.0192 207.637C27.869 207.476 27.7021 207.358 27.5186 207.282C27.3228 207.208 27.1082 207.197 26.8748 207.247C26.6413 207.297 26.4628 207.393 26.3391 207.536C26.2128 207.666 26.119 207.827 26.0577 208.02C25.9841 208.216 25.9404 208.431 25.9265 208.666C25.9127 208.9 25.9063 209.139 25.9073 209.383C25.9085 209.807 25.8934 210.215 25.8621 210.608C25.8308 211 25.7596 211.356 25.6483 211.676C25.5221 211.985 25.3363 212.257 25.0907 212.49C24.8424 212.71 24.4972 212.868 24.0548 212.963C23.6371 213.053 23.2487 213.04 22.8896 212.924C22.5305 212.809 22.2135 212.62 21.9386 212.358C21.6637 212.095 21.43 211.786 21.2375 211.429C21.045 211.072 20.9051 210.69 20.8179 210.285C20.6858 209.67 20.6871 209.079 20.8219 208.51C20.954 207.929 21.2648 207.431 21.7543 207.018L22.8044 208.045C22.5368 208.295 22.344 208.594 22.2257 208.941C22.0926 209.278 22.0722 209.662 22.1647 210.092C22.207 210.288 22.2751 210.486 22.3692 210.684C22.4606 210.87 22.5727 211.032 22.7053 211.171C22.8379 211.309 22.996 211.417 23.1795 211.493C23.3481 211.56 23.5307 211.572 23.7273 211.529C23.9116 211.49 24.0594 211.4 24.1708 211.261C24.2672 211.111 24.3434 210.928 24.3994 210.71C24.4528 210.48 24.4886 210.228 24.5069 209.954C24.5224 209.668 24.5244 209.378 24.5128 209.085C24.5046 208.689 24.5249 208.305 24.5738 207.934C24.6104 207.567 24.6993 207.233 24.8404 206.932C24.9814 206.632 25.1836 206.376 25.4467 206.166C25.7099 205.955 26.0565 205.803 26.4865 205.711C26.978 205.605 27.4169 205.613 27.8032 205.736C28.1895 205.859 28.5289 206.062 28.8214 206.346C29.0989 206.621 29.3318 206.956 29.5199 207.353C29.7054 207.737 29.8444 208.144 29.9369 208.574C30.0954 209.312 30.1222 209.974 30.0173 210.562C29.8975 211.141 29.5767 211.711 29.0548 212.273L27.9245 211.321ZM20.397 199.951L20.8249 202.517L25.176 201.792C25.4611 201.744 25.7266 201.694 25.9724 201.64C26.2059 201.588 26.4084 201.503 26.5798 201.386C26.7389 201.27 26.8598 201.116 26.9424 200.924C27.0126 200.734 27.0208 200.478 26.9671 200.155C26.932 199.945 26.871 199.732 26.7842 199.517C26.6974 199.302 26.5879 199.104 26.4556 198.922L27.7665 198.646C27.9194 198.875 28.0465 199.141 28.1478 199.442C28.247 199.732 28.3193 200.013 28.3648 200.285C28.4516 200.806 28.4527 201.233 28.368 201.565C28.2833 201.898 28.1315 202.172 27.9125 202.387C27.6935 202.601 27.4095 202.77 27.0603 202.892C26.6967 203.003 26.2918 203.096 25.8455 203.171L21.0668 203.968L21.3831 205.864L20.1558 206.069L19.8395 204.172L17.3665 204.585L17.1246 203.134L19.5977 202.722L19.1698 200.156L20.397 199.951ZM25.2302 189.621C25.9634 190.07 26.5023 190.592 26.847 191.185C27.1792 191.78 27.3914 192.49 27.4837 193.314C27.5606 194.001 27.5112 194.633 27.3354 195.209C27.1472 195.786 26.8687 196.292 26.4999 196.725C26.1297 197.146 25.6755 197.494 25.1372 197.769C24.5976 198.032 24.0093 198.199 23.3723 198.27C22.6979 198.346 22.0671 198.303 21.4799 198.141C20.8802 197.98 20.3582 197.723 19.9137 197.368C19.4568 197.014 19.0852 196.575 18.7989 196.051C18.5125 195.527 18.333 194.94 18.2603 194.29C18.1918 193.678 18.235 193.104 18.39 192.568C18.5325 192.034 18.7833 191.563 19.1424 191.156C19.4876 190.738 19.9363 190.397 20.4884 190.133C21.028 189.87 21.6601 189.698 22.3844 189.617L22.8528 189.565L23.6457 196.646C24.0176 196.579 24.37 196.451 24.7029 196.262C25.022 196.062 25.2986 195.823 25.5329 195.543C25.7547 195.266 25.9217 194.95 26.0338 194.596C26.1459 194.242 26.1796 193.865 26.1349 193.465C26.0635 192.828 25.891 192.304 25.6173 191.892C25.3435 191.48 24.9685 191.124 24.4922 190.823L25.2302 189.621ZM21.7925 191.277C21.046 191.386 20.4738 191.697 20.0759 192.209C19.678 192.721 19.5245 193.384 19.6154 194.195C19.7063 195.007 20.0046 195.638 20.5101 196.087C21.0157 196.536 21.6487 196.769 22.4093 196.785L21.7925 191.277ZM17.856 187.765L17.7957 186.295L19.0764 186.243L19.0749 186.205C18.5812 185.823 18.1917 185.374 17.9063 184.857C17.6205 184.328 17.4644 183.743 17.438 183.103C17.4097 182.412 17.5031 181.779 17.7185 181.205C17.9208 180.618 18.2208 180.115 18.6187 179.696C19.0166 179.277 19.4934 178.943 20.0491 178.694C20.6049 178.445 21.2156 178.306 21.8811 178.279C22.5466 178.252 23.1665 178.339 23.7408 178.542C24.3152 178.745 24.8178 179.039 25.2487 179.423C25.6791 179.796 26.0246 180.247 26.2854 180.777C26.5336 181.308 26.6704 181.881 26.6957 182.496C26.7282 183.287 26.5873 183.991 26.273 184.607C25.9457 185.212 25.5366 185.663 25.0457 185.96L25.0472 185.997L30.9049 185.757L30.9653 187.226L17.856 187.765ZM22.2031 186.114C22.6677 186.095 23.0981 186.008 23.4942 185.854C23.8773 185.687 24.2138 185.459 24.5038 185.171C24.7813 184.883 25.0002 184.547 25.1605 184.163C25.3077 183.767 25.3715 183.33 25.3519 182.853C25.3323 182.376 25.2331 181.952 25.0544 181.582C24.8626 181.2 24.6166 180.877 24.3165 180.613C24.0038 180.349 23.6499 180.156 23.255 180.034C22.847 179.899 22.4107 179.842 21.9461 179.861C21.4815 179.88 21.0577 179.973 20.6746 180.14C20.2784 180.294 19.9416 180.516 19.6642 180.804C19.3742 181.092 19.1556 181.435 19.0083 181.831C18.848 182.215 18.7777 182.645 18.7973 183.122C18.8169 183.6 18.9226 184.029 19.1144 184.411C19.2931 184.781 19.5388 185.098 19.8515 185.362C20.1517 185.626 20.5058 185.826 20.9138 185.96C21.3087 186.082 21.7385 186.133 22.2031 186.114ZM19.0358 165.979L18.9085 168.577L23.3144 168.793C23.6031 168.807 23.8733 168.814 24.125 168.814C24.3641 168.813 24.5799 168.773 24.7725 168.695C24.9525 168.615 25.1033 168.491 25.2249 168.32C25.3339 168.15 25.3964 167.901 25.4124 167.575C25.4229 167.361 25.4085 167.14 25.3694 166.912C25.3302 166.684 25.2654 166.466 25.1748 166.261L26.5144 166.27C26.6151 166.526 26.6828 166.813 26.7177 167.129C26.7531 167.433 26.7641 167.723 26.7506 167.999C26.7247 168.526 26.6351 168.943 26.4817 169.25C26.3282 169.557 26.1217 169.792 25.862 169.956C25.6024 170.119 25.289 170.223 24.9219 170.268C24.5429 170.3 24.1274 170.305 23.6756 170.283L18.8366 170.046L18.7426 171.966L17.4999 171.906L17.5939 169.985L15.0897 169.862L15.1617 168.394L17.6658 168.516L17.7931 165.918L19.0358 165.979ZM22.3014 164.972C21.6139 164.9 21.0014 164.716 20.4637 164.42C19.9261 164.123 19.4789 163.748 19.122 163.294C18.7527 162.838 18.4855 162.311 18.3207 161.713C18.1558 161.114 18.1087 160.477 18.1792 159.803C18.2498 159.128 18.4276 158.514 18.7127 157.963C18.9978 157.411 19.3682 156.951 19.8238 156.582C20.2669 156.211 20.7821 155.936 21.3694 155.758C21.9567 155.579 22.5941 155.526 23.2815 155.598C23.969 155.669 24.5815 155.853 25.1192 156.15C25.6568 156.446 26.1103 156.822 26.4796 157.278C26.8365 157.732 27.0974 158.258 27.2622 158.857C27.4271 159.455 27.4742 160.092 27.4037 160.767C27.3331 161.442 27.1553 162.055 26.8702 162.607C26.5851 163.158 26.221 163.619 25.7779 163.99C25.3223 164.359 24.8008 164.633 24.2135 164.812C23.6262 164.99 22.9888 165.044 22.3014 164.972ZM22.466 163.397C22.9285 163.445 23.3669 163.422 23.7813 163.326C24.1844 163.217 24.5504 163.04 24.8791 162.796C25.1953 162.552 25.4606 162.251 25.6748 161.894C25.8778 161.524 26.0041 161.101 26.0538 160.626C26.1034 160.151 26.0666 159.717 25.9433 159.325C25.8088 158.92 25.6122 158.564 25.3535 158.259C25.0823 157.953 24.7601 157.711 24.387 157.533C24.0027 157.341 23.5793 157.221 23.1169 157.172C22.6544 157.124 22.2216 157.155 21.8184 157.264C21.4041 157.36 21.0388 157.53 20.7225 157.775C20.3938 158.019 20.1279 158.326 19.9249 158.696C19.7107 159.053 19.5788 159.469 19.5291 159.944C19.4795 160.419 19.5219 160.859 19.6564 161.265C19.7797 161.657 19.9769 162.006 20.2481 162.312C20.5069 162.617 20.8284 162.866 21.2127 163.058C21.5858 163.236 22.0036 163.349 22.466 163.397ZM27.6815 146.79L27.6749 146.827C28.1213 147.188 28.465 147.696 28.7058 148.351C28.9364 148.992 28.9824 149.702 28.8437 150.482C28.7358 151.088 28.5232 151.638 28.2058 152.13C27.8761 152.62 27.4718 153.027 26.9931 153.35C26.5165 153.661 25.98 153.878 25.3836 154.002C24.7872 154.126 24.1611 154.129 23.5053 154.013C22.8496 153.896 22.2631 153.677 21.7459 153.355C21.2288 153.033 20.8013 152.638 20.4634 152.169C20.1255 151.701 19.8947 151.168 19.7711 150.572C19.6373 149.961 19.6309 149.315 19.7519 148.635C19.8642 148.004 20.0965 147.451 20.4488 146.978C20.8033 146.492 21.2508 146.093 21.7914 145.781L21.798 145.744L15.1908 144.568L15.4484 143.121L29.4795 145.617L29.2219 147.064L27.6815 146.79ZM24.8789 146.292C24.4211 146.21 23.9872 146.21 23.5773 146.29C23.1571 146.356 22.7805 146.499 22.4475 146.721C22.1021 146.94 21.8149 147.227 21.5858 147.582C21.3466 147.923 21.1851 148.328 21.1014 148.798C21.0178 149.268 21.0285 149.711 21.1335 150.125C21.2283 150.525 21.3999 150.887 21.6485 151.212C21.8846 151.535 22.1875 151.806 22.557 152.025C22.9163 152.229 23.3249 152.372 23.7827 152.454C24.2405 152.535 24.6795 152.543 25.0996 152.477C25.5096 152.397 25.8873 152.247 26.2327 152.028C26.5657 151.806 26.8518 151.525 27.0911 151.185C27.3202 150.83 27.4766 150.417 27.5602 149.947C27.6439 149.477 27.6383 149.042 27.5435 148.642C27.4385 148.228 27.2679 147.859 27.0318 147.536C26.7832 147.211 26.4793 146.947 26.1199 146.742C25.7504 146.523 25.3368 146.373 24.8789 146.292ZM22.4615 141.657C22.1191 141.106 21.9183 140.505 21.8592 139.856C21.7909 139.192 21.8338 138.549 21.9881 137.927C22.3027 136.658 22.8284 135.817 23.5653 135.404C24.3021 134.992 25.2804 134.936 26.5002 135.239L30.1779 136.151C30.4219 136.211 30.681 136.263 30.9554 136.305C31.2177 136.344 31.4631 136.373 31.6917 136.39L31.3514 137.763C31.1441 137.763 30.9231 137.741 30.6883 137.695C30.4444 137.635 30.2309 137.582 30.0479 137.537L30.0389 137.573C30.4084 137.963 30.6745 138.43 30.837 138.975C31.0026 139.508 31.0038 140.104 30.8404 140.763C30.7315 141.202 30.5738 141.603 30.3672 141.966C30.1637 142.317 29.9219 142.613 29.6419 142.855C29.3528 143.081 29.0285 143.24 28.669 143.332C28.3095 143.424 27.9224 143.419 27.5076 143.316C26.8002 143.14 26.2905 142.82 25.9788 142.354C25.667 141.888 25.48 141.363 25.418 140.778C25.3589 140.18 25.3822 139.565 25.4876 138.93C25.5962 138.284 25.7154 137.699 25.8455 137.174L25.9816 136.625L25.7255 136.562C25.1034 136.407 24.5869 136.48 24.176 136.78C23.7681 137.067 23.4809 137.546 23.3146 138.217C23.1996 138.68 23.1655 139.157 23.2121 139.648C23.2496 140.123 23.3845 140.571 23.617 140.991L22.4615 141.657ZM26.8353 138.352C26.6084 139.267 26.5565 140.024 26.6796 140.624C26.8026 141.225 27.1569 141.597 27.7424 141.743C28.2791 141.876 28.7072 141.794 29.0267 141.498C29.337 141.186 29.5587 140.762 29.6918 140.226C29.7947 139.811 29.8168 139.434 29.7583 139.096C29.6905 138.743 29.5665 138.434 29.3862 138.169C29.2058 137.904 28.9768 137.679 28.6991 137.493C28.4092 137.305 28.0889 137.161 27.7381 137.061L27.1892 136.925L26.8353 138.352ZM35.1757 131.848C35.4899 132.105 35.7664 132.357 36.005 132.603C36.2593 132.841 36.4544 133.1 36.5902 133.38C36.7418 133.652 36.8243 133.955 36.8378 134.288C36.867 134.614 36.8156 134.986 36.6834 135.406C36.6192 135.61 36.5393 135.822 36.4435 136.042C36.3516 136.25 36.2275 136.435 36.0712 136.596L34.9052 136.032C35.0104 135.907 35.0936 135.768 35.1546 135.616C35.2277 135.468 35.2963 135.292 35.3605 135.088C35.504 134.632 35.4839 134.257 35.3001 133.962C35.1164 133.667 34.8393 133.376 34.4688 133.088L33.0678 132.014L23.5004 132.834L24.0158 131.198L31.4358 130.67L31.4471 130.634L25.6358 126.056L26.1172 124.527L35.1757 131.848ZM34.7323 109.168C34.3163 108.96 33.9678 108.688 33.6868 108.351C33.4057 108.014 33.1977 107.643 33.0627 107.238C32.9278 106.833 32.8715 106.412 32.8939 105.974C32.9163 105.535 33.0314 105.108 33.2393 104.692C33.4472 104.276 33.7197 103.928 34.0569 103.647C34.3941 103.365 34.765 103.157 35.1696 103.022C35.5743 102.888 35.9958 102.831 36.4342 102.854C36.8726 102.876 37.2997 102.991 37.7157 103.199C38.1316 103.407 38.4801 103.68 38.7612 104.017C39.0422 104.354 39.2503 104.725 39.3852 105.129C39.5202 105.534 39.5764 105.956 39.554 106.394C39.5316 106.832 39.4165 107.26 39.2086 107.675C39.0007 108.091 38.7282 108.44 38.391 108.721C38.0538 109.002 37.6829 109.21 37.2783 109.345C36.8737 109.48 36.4521 109.536 36.0138 109.514C35.5754 109.491 35.1482 109.376 34.7323 109.168ZM48.4311 76.8488L45.8588 80.4323L55.5067 87.3577L54.5834 88.6441L44.9354 81.7187L42.3631 85.3022L41.1686 84.4448L47.2365 75.9914L48.4311 76.8488ZM51.5705 79.7799C51.4931 79.1357 51.5648 78.507 51.7856 77.8938C52.0046 77.2628 52.3154 76.6981 52.7182 76.1995C53.5396 75.1829 54.3715 74.6432 55.2138 74.5805C56.0561 74.5178 56.966 74.8814 57.9436 75.6712L60.8909 78.0524C61.0864 78.2104 61.2996 78.3665 61.5305 78.5207C61.7515 78.667 61.9619 78.7966 62.1616 78.9094L61.273 80.0091C61.085 79.9219 60.8942 79.8081 60.7006 79.6678C60.5051 79.5099 60.334 79.3716 60.1874 79.2532L60.1637 79.2825C60.334 79.7917 60.3775 80.3277 60.2943 80.8906C60.219 81.4437 59.9681 81.9842 59.5416 82.5121C59.2573 82.864 58.9448 83.1608 58.6041 83.4026C58.2713 83.6345 57.927 83.8007 57.5713 83.901C57.2136 83.9837 56.8525 83.9908 56.4877 83.9223C56.123 83.8538 55.7744 83.6853 55.4421 83.4168C54.8751 82.9587 54.5488 82.4527 54.4631 81.8988C54.3775 81.3449 54.4302 80.7897 54.6213 80.2332C54.8203 79.667 55.1016 79.1188 55.4653 78.5886C55.8369 78.0487 56.1925 77.5686 56.5321 77.1482L56.8875 76.7083L56.6823 76.5425C56.1837 76.1397 55.6849 75.9871 55.1859 76.0848C54.6948 76.1727 54.2321 76.4855 53.7977 77.0232C53.4976 77.3946 53.2649 77.8126 53.0998 78.2769C52.9328 78.7236 52.8658 79.1865 52.8988 79.6656L51.5705 79.7799ZM56.9313 78.634C56.3389 79.3671 55.9716 80.0317 55.8294 80.6277C55.6872 81.2237 55.8507 81.7112 56.3199 82.0903C56.75 82.4378 57.1725 82.5449 57.5873 82.4114C58.0002 82.2603 58.3804 81.9697 58.7279 81.5396C58.9964 81.2072 59.1756 80.8754 59.2656 80.5441C59.3536 80.1952 59.3719 79.8626 59.3204 79.5463C59.2689 79.2301 59.1565 78.9293 58.9832 78.6438C58.8002 78.3505 58.5708 78.0844 58.2952 77.8456L57.8553 77.4902L56.9313 78.634ZM53.0505 67.669L54.0432 66.5843L60.9127 72.8717L60.7591 67.2879L62.1718 65.7444L62.2573 71.5981L68.9725 71.3811L67.5088 72.9802L61.1352 73.0754L64.556 76.2064L63.5633 77.291L53.0505 67.669ZM74.2558 64.0679C74.3475 64.9227 74.2634 65.6678 74.0034 66.3032C73.7347 66.9295 73.302 67.5308 72.7054 68.107C72.2082 68.5871 71.6777 68.9334 71.1141 69.1457C70.5417 69.349 69.9714 69.4368 69.403 69.4091C68.8437 69.3727 68.2908 69.2253 67.7443 68.9669C67.2068 68.6997 66.7154 68.3356 66.2702 67.8746C65.7988 67.3864 65.448 66.8603 65.2179 66.2964C64.979 65.7234 64.8646 65.1526 64.8745 64.5839C64.8757 64.0062 64.9966 63.444 65.2373 62.8971C65.4779 62.3503 65.8333 61.8499 66.3034 61.3959C66.7463 60.9682 67.2274 60.6522 67.7464 60.4479C68.2568 60.2346 68.7827 60.1461 69.3242 60.1822C69.866 60.2005 70.4101 60.3478 70.9563 60.624C71.4938 60.8911 72.0157 61.2868 72.522 61.8112L72.8494 62.1502L67.7236 67.1001C68.0035 67.3538 68.32 67.5549 68.6729 67.7032C69.0261 67.8338 69.3848 67.9068 69.749 67.922C70.1044 67.9282 70.4565 67.8677 70.8053 67.7405C71.1542 67.6133 71.4733 67.41 71.7625 67.1306C72.2236 66.6854 72.5338 66.2286 72.693 65.7604C72.8523 65.2921 72.9057 64.7775 72.8533 64.2167L74.2558 64.0679ZM70.8461 62.3552C70.3042 61.8302 69.7089 61.5665 69.0601 61.5641C68.4113 61.5616 67.7931 61.8441 67.2055 62.4116C66.6179 62.979 66.3004 63.6001 66.2531 64.2747C66.2057 64.9494 66.4078 65.5928 66.8593 66.2051L70.8461 62.3552ZM79.8158 51.5234L77.7941 53.1604L80.57 56.5886C80.7519 56.8133 80.9268 57.0193 81.0947 57.2067C81.2548 57.3844 81.4283 57.5188 81.6153 57.61C81.7944 57.6913 81.9879 57.7206 82.1958 57.6978C82.3958 57.6652 82.6228 57.5461 82.8767 57.3405C83.0428 57.206 83.1979 57.0481 83.342 56.8667C83.4862 56.6853 83.6048 56.4922 83.6978 56.2875L84.584 57.2921C84.4598 57.5382 84.2915 57.7796 84.079 58.0164C83.8762 58.2453 83.6674 58.4467 83.4525 58.6207C83.0423 58.9529 82.6716 59.1641 82.3404 59.2544C82.0092 59.3446 81.6962 59.3475 81.4013 59.2629C81.1064 59.1782 80.8198 59.0141 80.5417 58.7704C80.2653 58.509 79.9848 58.2025 79.7001 57.8509L76.6513 54.0857L75.157 55.2958L74.374 54.3288L75.8684 53.1188L74.2906 51.1703L75.4334 50.245L77.0111 52.1935L79.0329 50.5564L79.8158 51.5234ZM77.3986 45.0044L78.5894 44.1418L82.4932 49.5309L82.5237 49.5088C82.5019 49.3073 82.5144 49.0888 82.561 48.8533C82.6003 48.6076 82.676 48.3587 82.7883 48.1067C82.9108 47.8473 83.0683 47.5935 83.261 47.3453C83.4536 47.0971 83.6874 46.8735 83.9622 46.6744C84.4303 46.3353 84.8839 46.1153 85.323 46.0145C85.7723 45.9063 86.201 45.8983 86.6092 45.9906C87.0175 46.0828 87.4052 46.2752 87.7724 46.5679C88.1424 46.843 88.4822 47.1943 88.7918 47.6218L91.9879 52.0338L90.7971 52.8964L87.6895 48.6065C87.2545 48.006 86.7794 47.6286 86.2641 47.4743C85.7488 47.3199 85.2113 47.4455 84.6515 47.851C84.2648 48.1311 83.9768 48.4406 83.7877 48.7793C83.6088 49.1107 83.5162 49.4649 83.5099 49.8419C83.5138 50.2115 83.5916 50.5974 83.7433 50.9996C83.9052 51.3944 84.1336 51.7954 84.4285 52.2025L86.95 55.6832L85.7592 56.5458L77.3986 45.0044ZM99.7482 45.1923C99.6609 46.0476 99.4243 46.7592 99.0384 47.327C98.6459 47.8841 98.0981 48.3827 97.3951 48.8229C96.8092 49.1897 96.2186 49.4186 95.6232 49.5096C95.0211 49.59 94.4449 49.5578 93.8946 49.4131C93.355 49.2616 92.8446 49.0029 92.3634 48.6369C91.8929 48.2643 91.4876 47.8064 91.1474 47.2631C90.7873 46.6879 90.5531 46.1006 90.4447 45.5012C90.3297 44.8912 90.3359 44.309 90.4634 43.7548C90.5841 43.1899 90.8189 42.6648 91.1675 42.1796C91.5162 41.6945 91.9674 41.2785 92.5213 40.9317C93.0433 40.6049 93.5793 40.3954 94.1294 40.303C94.6728 40.2 95.2057 40.2223 95.728 40.3697C96.2543 40.4999 96.7561 40.7566 97.2333 41.1399C97.7038 41.5125 98.1325 42.0078 98.5193 42.6256L98.7694 43.025L92.7297 46.8063C92.951 47.1125 93.219 47.3747 93.5336 47.593C93.8521 47.7939 94.1879 47.9395 94.541 48.0298C94.8874 48.1095 95.2444 48.1232 95.6121 48.0709C95.9797 48.0187 96.334 47.8859 96.6748 47.6725C97.2181 47.3324 97.6161 46.9497 97.8689 46.5246C98.1216 46.0994 98.2805 45.6071 98.3453 45.0475L99.7482 45.1923ZM96.767 42.8108C96.3455 42.185 95.8177 41.8037 95.1835 41.667C94.5493 41.5303 93.886 41.6787 93.1936 42.1121C92.5013 42.5456 92.0621 43.0875 91.8761 43.7377C91.6901 44.3879 91.7545 45.0593 92.0695 45.7517L96.767 42.8108ZM104.15 35.911L102.439 36.7886L101.872 35.6816L103.582 34.804L102.679 33.0428C102.432 32.562 102.253 32.103 102.142 31.6657C102.025 31.2173 101.998 30.7932 102.061 30.3935C102.136 29.988 102.312 29.6152 102.589 29.2751C102.861 28.9238 103.26 28.6134 103.785 28.3438C103.953 28.2577 104.141 28.1827 104.348 28.1187C104.555 28.0548 104.737 28.0248 104.895 28.0288L105.313 29.2975C104.942 29.3463 104.617 29.4424 104.338 29.5858C104.002 29.7579 103.771 29.9542 103.644 30.1747C103.511 30.3841 103.449 30.6208 103.458 30.8849C103.471 31.132 103.542 31.4067 103.668 31.7089C103.806 32.0054 103.961 32.3213 104.133 32.6568L104.891 34.1328L106.803 33.1519L107.371 34.2589L105.459 35.2398L108.918 41.9824L107.609 42.6536L104.15 35.911ZM108.402 32.3873L109.731 31.758L113.506 39.7316L112.177 40.3609L108.402 32.3873ZM106.619 29.4147C106.495 29.1534 106.478 28.8833 106.568 28.6041C106.67 28.3196 106.857 28.1128 107.13 27.9837C107.402 27.8546 107.675 27.8436 107.949 27.9506C108.233 28.0523 108.437 28.2337 108.561 28.495C108.695 28.7789 108.715 29.0548 108.619 29.3226C108.523 29.5904 108.334 29.7915 108.05 29.926C107.766 30.0604 107.49 30.0798 107.222 29.9841C106.954 29.8885 106.753 29.6986 106.619 29.4147ZM113.294 32.4442C113.136 32.0745 112.976 31.7328 112.815 31.4192C112.653 31.1056 112.516 30.8159 112.402 30.5501L113.685 30.0013C113.778 30.2209 113.878 30.4379 113.984 30.6525C114.089 30.8671 114.191 31.0899 114.29 31.321L114.325 31.3062C114.333 31.0702 114.379 30.8252 114.461 30.5711C114.556 30.3121 114.689 30.0638 114.86 29.8263C115.027 29.5772 115.238 29.3504 115.492 29.1459C115.741 28.9299 116.033 28.7502 116.369 28.6068C116.461 28.5673 116.556 28.5335 116.653 28.5055C116.751 28.4775 116.853 28.4611 116.96 28.4562L117.459 29.8624C117.199 29.892 116.941 29.9611 116.687 30.0699C115.855 30.4259 115.365 30.9569 115.216 31.6631C115.073 32.3528 115.203 33.1656 115.603 34.1015L117.294 38.053L115.942 38.6314L113.294 32.4442ZM121.139 33.9593C121.537 34.1991 121.933 34.3594 122.326 34.4403C122.73 34.5167 123.179 34.4623 123.674 34.277C123.885 34.1975 124.088 34.0946 124.283 33.9681C124.489 33.8372 124.66 33.6856 124.797 33.5136C124.933 33.3415 125.026 33.1591 125.075 32.9664C125.119 32.7619 125.099 32.5479 125.015 32.3243C124.931 32.1007 124.81 31.9382 124.651 31.8367C124.504 31.7308 124.33 31.6617 124.13 31.6293C123.926 31.5852 123.707 31.5735 123.473 31.594C123.239 31.6146 123.001 31.6433 122.76 31.6801C122.341 31.7434 121.935 31.7882 121.542 31.8147C121.15 31.8412 120.787 31.8228 120.455 31.7596C120.129 31.6802 119.834 31.536 119.568 31.3272C119.313 31.1139 119.106 30.7954 118.948 30.3718C118.798 29.9717 118.753 29.5856 118.815 29.2135C118.877 28.8413 119.017 28.5001 119.237 28.1897C119.456 27.8794 119.728 27.6028 120.053 27.3601C120.378 27.1174 120.735 26.9233 121.123 26.7776C121.711 26.557 122.297 26.4717 122.879 26.5217C123.473 26.5672 124.011 26.8018 124.492 27.2255L123.629 28.4147C123.343 28.1867 123.019 28.0396 122.659 27.9734C122.306 27.8911 121.923 27.9271 121.511 28.0816C121.323 28.1522 121.138 28.2485 120.955 28.3706C120.785 28.4883 120.641 28.6229 120.523 28.7744C120.405 28.9259 120.322 29.098 120.274 29.2907C120.232 29.4672 120.247 29.6496 120.318 29.8379C120.384 30.0144 120.494 30.1475 120.649 30.2372C120.81 30.3107 121.003 30.3593 121.227 30.3828C121.462 30.4019 121.717 30.4004 121.99 30.3784C122.275 30.3519 122.562 30.3114 122.851 30.257C123.242 30.1908 123.624 30.1548 123.998 30.1489C124.367 30.1312 124.711 30.1702 125.028 30.2658C125.346 30.3614 125.628 30.5239 125.876 30.7534C126.123 30.9828 126.323 31.3035 126.478 31.7153C126.654 32.186 126.71 32.6214 126.646 33.0215C126.581 33.4216 126.429 33.7871 126.191 34.1181C125.96 34.4328 125.662 34.7123 125.298 34.9565C124.945 35.1963 124.562 35.3934 124.15 35.5478C123.444 35.8126 122.793 35.9362 122.195 35.9185C121.606 35.8847 120.994 35.6508 120.362 35.2169L121.139 33.9593ZM131.285 24.8528L128.809 25.6498L130.161 29.8488C130.249 30.124 130.338 30.3793 130.427 30.6147C130.512 30.8381 130.625 31.0261 130.767 31.1786C130.904 31.3191 131.074 31.4163 131.276 31.47C131.475 31.5118 131.729 31.4827 132.04 31.3825C132.244 31.3171 132.445 31.2258 132.645 31.1086C132.845 30.9915 133.026 30.8542 133.186 30.6969L133.65 31.9536C133.445 32.1383 133.201 32.3027 132.918 32.4468C132.646 32.5871 132.378 32.6996 132.115 32.7843C131.613 32.946 131.191 33.0092 130.849 32.9739C130.508 32.9385 130.215 32.8282 129.971 32.6428C129.726 32.4575 129.518 32.201 129.347 31.8733C129.183 31.5298 129.032 31.1427 128.894 30.7121L127.409 26.1003L125.579 26.6894L125.198 25.5051L127.028 24.916L126.26 22.5294L127.66 22.0789L128.428 24.4655L130.904 23.6684L131.285 24.8528ZM139.539 28.0425C139.904 28.3309 140.276 28.5401 140.656 28.6702C141.047 28.7974 141.5 28.8004 142.013 28.6793C142.234 28.6274 142.448 28.551 142.657 28.4501C142.878 28.3464 143.067 28.2179 143.224 28.0645C143.382 27.9112 143.497 27.742 143.569 27.557C143.639 27.3598 143.647 27.145 143.592 26.9126C143.537 26.6802 143.437 26.5036 143.293 26.3828C143.16 26.2591 142.997 26.1685 142.802 26.111C142.605 26.0413 142.389 26.0018 142.155 25.9926C141.92 25.9833 141.681 25.9816 141.437 25.9875C141.013 25.9971 140.605 25.9901 140.212 25.9665C139.819 25.9429 139.461 25.8787 139.14 25.7738C138.827 25.6538 138.552 25.4733 138.315 25.2323C138.09 24.9885 137.925 24.6464 137.821 24.206C137.723 23.7902 137.728 23.4016 137.837 23.0403C137.945 22.679 138.128 22.3583 138.385 22.0783C138.641 21.7982 138.946 21.5584 139.3 21.3589C139.653 21.1594 140.031 21.0121 140.435 20.9169C141.047 20.7727 141.638 20.7623 142.209 20.8858C142.793 21.0065 143.297 21.3074 143.72 21.7886L142.713 22.8588C142.458 22.5962 142.155 22.4093 141.806 22.2979C141.467 22.1714 141.083 22.1586 140.655 22.2596C140.459 22.3057 140.263 22.3778 140.067 22.4758C139.882 22.5708 139.722 22.686 139.586 22.8214C139.45 22.9567 139.346 23.1169 139.274 23.3019C139.21 23.4717 139.202 23.6545 139.248 23.8502C139.291 24.0337 139.384 24.1798 139.526 24.2883C139.677 24.3818 139.862 24.4544 140.08 24.5061C140.311 24.5549 140.564 24.5858 140.838 24.5986C141.125 24.6085 141.414 24.6048 141.707 24.5874C142.104 24.5714 142.488 24.5841 142.859 24.6257C143.227 24.655 143.563 24.7373 143.866 24.8724C144.169 25.0075 144.429 25.2046 144.645 25.4635C144.861 25.7225 145.019 26.066 145.12 26.4942C145.235 26.9834 145.236 27.4224 145.121 27.811C145.006 28.1997 144.809 28.543 144.531 28.8411C144.262 29.124 143.931 29.3634 143.538 29.5594C143.157 29.7524 142.753 29.8994 142.325 30.0003C141.591 30.1734 140.929 30.2133 140.339 30.12C139.758 30.0116 139.182 29.7021 138.609 29.1915L139.539 28.0425ZM150.76 20.2996L148.203 20.7749L149.009 25.1118C149.062 25.396 149.117 25.6605 149.175 25.9053C149.231 26.1378 149.32 26.3386 149.441 26.5079C149.559 26.6648 149.715 26.7828 149.909 26.8619C150.1 26.9286 150.357 26.9321 150.678 26.8724C150.888 26.8333 151.1 26.7685 151.313 26.6777C151.526 26.587 151.722 26.4738 151.902 26.3382L152.202 27.6438C151.975 27.8009 151.712 27.9329 151.413 28.0397C151.125 28.1442 150.846 28.2217 150.574 28.2723C150.055 28.3687 149.628 28.3776 149.294 28.2991C148.96 28.2206 148.684 28.0739 148.465 27.8589C148.246 27.6439 148.072 27.363 147.944 27.0162C147.825 26.6547 147.725 26.2515 147.642 25.8067L146.757 21.0435L144.867 21.3948L144.639 20.1716L146.53 19.8203L146.072 17.3553L147.517 17.0867L147.976 19.5517L150.533 19.0764L150.76 20.2996ZM161.182 24.9334C160.747 25.675 160.236 26.2239 159.649 26.58C159.06 26.9236 158.355 27.1494 157.532 27.2576C156.847 27.3477 156.215 27.3105 155.635 27.1458C155.054 26.9687 154.544 26.7 154.103 26.3396C153.675 25.9776 153.319 25.5302 153.033 24.9973C152.76 24.4628 152.582 23.8779 152.498 23.2424C152.41 22.5696 152.441 21.938 152.591 21.3478C152.74 20.7452 152.988 20.2183 153.334 19.7671C153.679 19.3035 154.11 18.9235 154.629 18.6271C155.148 18.3307 155.731 18.1399 156.379 18.0547C156.99 17.9744 157.564 18.0066 158.103 18.1512C158.64 18.2834 159.116 18.525 159.529 18.8762C159.954 19.2133 160.304 19.6554 160.578 20.2023C160.851 20.7368 161.036 21.3654 161.131 22.0881L161.192 22.5553L154.127 23.4845C154.201 23.855 154.336 24.2049 154.531 24.5341C154.738 24.8492 154.983 25.1212 155.266 25.3501C155.548 25.5665 155.867 25.7274 156.223 25.8327C156.579 25.9379 156.957 25.9644 157.355 25.9119C157.991 25.8283 158.512 25.6457 158.919 25.3641C159.325 25.0825 159.674 24.7006 159.966 24.2187L161.182 24.9334ZM159.46 21.5283C159.337 20.7839 159.015 20.2178 158.495 19.8299C157.975 19.4419 157.31 19.3012 156.5 19.4077C155.69 19.5143 155.065 19.8246 154.626 20.3387C154.187 20.8528 153.966 21.4902 153.965 22.2509L159.46 21.5283ZM162.893 17.5238L164.361 17.4337L164.439 18.7132L164.477 18.7109C164.849 18.2096 165.291 17.8111 165.801 17.5153C166.325 17.2188 166.906 17.0509 167.546 17.0117C168.236 16.9694 168.87 17.05 169.449 17.2538C170.04 17.4441 170.549 17.734 170.976 18.1233C171.403 18.5126 171.746 18.9826 172.007 19.5332C172.267 20.0838 172.418 20.6916 172.458 21.3564C172.499 22.0212 172.424 22.6428 172.233 23.2211C172.042 23.7994 171.758 24.3079 171.382 24.7464C171.019 25.1842 170.575 25.5389 170.05 25.8103C169.524 26.0692 168.954 26.2175 168.34 26.2552C167.549 26.3036 166.843 26.177 166.22 25.8753C165.609 25.5602 165.15 25.1603 164.843 24.6755L164.805 24.6778L165.164 30.5295L163.697 30.6195L162.893 17.5238ZM164.631 21.8366C164.66 22.3007 164.755 22.7292 164.918 23.1222C165.092 23.5018 165.327 23.8337 165.621 24.1178C165.915 24.3894 166.255 24.6014 166.642 24.754C167.041 24.8932 167.479 24.9481 167.955 24.9189C168.432 24.8897 168.854 24.782 169.22 24.5958C169.598 24.3963 169.916 24.1439 170.174 23.8384C170.432 23.5205 170.618 23.1628 170.732 22.7655C170.858 22.3548 170.906 21.9175 170.878 21.4533C170.849 20.9892 170.748 20.5674 170.574 20.1877C170.411 19.7948 170.183 19.4625 169.889 19.191C169.595 18.9068 169.248 18.6952 168.849 18.556C168.462 18.4034 168.03 18.3418 167.554 18.371C167.077 18.4003 166.65 18.5146 166.272 18.7141C165.905 18.9003 165.593 19.1523 165.336 19.4703C165.078 19.7758 164.885 20.1338 164.76 20.5444C164.645 20.9418 164.603 21.3725 164.631 21.8366ZM184.698 18.2959L182.098 18.2202L181.97 22.6295C181.961 22.9184 181.96 23.1887 181.965 23.4403C181.971 23.6793 182.015 23.8943 182.097 24.0853C182.18 24.2638 182.308 24.4121 182.48 24.5303C182.653 24.6359 182.903 24.6934 183.23 24.7029C183.443 24.7092 183.664 24.6904 183.891 24.6468C184.119 24.6031 184.335 24.5339 184.538 24.4393L184.556 25.7788C184.302 25.8846 184.017 25.958 183.701 25.9991C183.398 26.0406 183.108 26.0573 182.832 26.0492C182.304 26.0339 181.886 25.9525 181.576 25.8052C181.266 25.6579 181.026 25.456 180.858 25.1997C180.689 24.9433 180.579 24.6321 180.527 24.2659C180.487 23.8876 180.474 23.4723 180.487 23.0201L180.628 18.1774L178.706 18.1215L178.743 16.8778L180.665 16.9338L180.738 14.4276L182.207 14.4704L182.134 16.9766L184.735 17.0523L184.698 18.2959ZM185.773 21.5399C185.831 20.8511 186.002 20.2347 186.286 19.6909C186.571 19.1471 186.937 18.692 187.383 18.3256C187.831 17.9466 188.352 17.6683 188.947 17.4908C189.542 17.3132 190.178 17.2525 190.854 17.3087C191.53 17.3649 192.147 17.5297 192.704 17.803C193.262 18.0763 193.73 18.4367 194.109 18.8844C194.489 19.3195 194.775 19.8287 194.966 20.4121C195.157 20.9955 195.224 21.6316 195.167 22.3204C195.109 23.0092 194.938 23.6256 194.653 24.1694C194.369 24.7132 194.002 25.1746 193.555 25.5535C193.108 25.92 192.587 26.192 191.993 26.3695C191.398 26.5471 190.762 26.6078 190.086 26.5516C189.41 26.4954 188.793 26.3306 188.235 26.0573C187.678 25.784 187.209 25.4298 186.829 24.9947C186.45 24.5471 186.165 24.0316 185.974 23.4482C185.783 22.8648 185.716 22.2287 185.773 21.5399ZM187.351 21.671C187.313 22.1344 187.346 22.5722 187.45 22.9845C187.568 23.3852 187.753 23.7473 188.003 24.0708C188.255 24.3817 188.561 24.6405 188.922 24.847C189.297 25.0421 189.722 25.1594 190.198 25.199C190.674 25.2385 191.107 25.1925 191.496 25.0609C191.899 24.9178 192.25 24.7137 192.55 24.4485C192.85 24.1708 193.085 23.8436 193.255 23.4668C193.439 23.0785 193.55 22.6527 193.588 22.1893C193.627 21.7259 193.587 21.2938 193.469 20.8931C193.365 20.4808 193.187 20.1193 192.935 19.8083C192.685 19.4848 192.372 19.2256 191.997 19.0305C191.636 18.8239 191.217 18.7009 190.742 18.6613C190.266 18.6218 189.826 18.6735 189.423 18.8166C189.034 18.9482 188.689 19.1529 188.389 19.4305C188.089 19.6957 187.848 20.0224 187.664 20.4107C187.494 20.7875 187.39 21.2076 187.351 21.671ZM204.05 26.5512L204.013 26.5453C203.661 26.9985 203.16 27.3517 202.509 27.6048C201.872 27.8474 201.163 27.9067 200.381 27.7827C199.773 27.6863 199.22 27.4841 198.721 27.176C198.225 26.8555 197.811 26.459 197.478 25.9864C197.159 25.5158 196.931 24.9835 196.796 24.3895C196.662 23.7956 196.646 23.1696 196.751 22.5118C196.855 21.8539 197.063 21.2634 197.375 20.7403C197.687 20.2172 198.074 19.7823 198.536 19.4357C198.998 19.089 199.526 18.8483 200.12 18.7134C200.729 18.5681 201.374 18.5496 202.057 18.6578C202.69 18.7582 203.246 18.9801 203.726 19.3234C204.219 19.6687 204.626 20.1086 204.949 20.6433L204.986 20.6492L206.037 14.021L207.489 14.2513L205.257 28.3268L203.805 28.0966L204.05 26.5512ZM204.496 23.7399C204.569 23.2806 204.561 22.8468 204.473 22.4384C204.4 22.0195 204.249 21.6457 204.021 21.3169C203.795 20.9757 203.503 20.694 203.144 20.4716C202.799 20.2388 202.391 20.085 201.919 20.0102C201.447 19.9354 201.005 19.9544 200.593 20.0672C200.195 20.1695 199.836 20.3479 199.515 20.6025C199.197 20.8447 198.932 21.1526 198.72 21.5262C198.522 21.8893 198.387 22.3005 198.315 22.7598C198.242 23.219 198.242 23.6581 198.316 24.0769C198.404 24.4853 198.56 24.8601 198.786 25.2013C199.014 25.5301 199.3 25.8109 199.645 26.0437C200.004 26.2661 200.42 26.4146 200.892 26.4894C201.363 26.5642 201.798 26.5504 202.196 26.4481C202.608 26.3354 202.974 26.1579 203.292 25.9157C203.612 25.6611 203.871 25.3522 204.069 24.9891C204.281 24.6155 204.423 24.1991 204.496 23.7399ZM209.087 21.2388C209.632 20.8872 210.229 20.6764 210.877 20.6064C211.54 20.527 212.184 20.5592 212.808 20.703C214.082 20.9964 214.931 21.5079 215.357 22.2378C215.782 22.9676 215.853 23.9449 215.571 25.1695L214.721 28.862C214.665 29.1069 214.618 29.3669 214.58 29.642C214.545 29.9048 214.521 30.1507 214.507 30.3796L213.129 30.0623C213.125 29.855 213.144 29.6337 213.185 29.3982C213.242 29.1532 213.291 28.9389 213.333 28.7552L213.297 28.7467C212.913 29.1227 212.451 29.3966 211.908 29.5683C211.378 29.7428 210.782 29.7539 210.121 29.6016C209.68 29.5 209.276 29.349 208.91 29.1486C208.555 28.9509 208.255 28.7141 208.009 28.4383C207.778 28.153 207.614 27.8313 207.516 27.4734C207.418 27.1155 207.416 26.7284 207.512 26.312C207.676 25.6017 207.988 25.0868 208.448 24.7672C208.909 24.4477 209.431 24.252 210.015 24.1801C210.611 24.1111 211.227 24.124 211.863 24.2189C212.511 24.3165 213.099 24.426 213.625 24.5473L214.176 24.6742L214.236 24.417C214.38 23.7924 214.298 23.2772 213.992 22.8714C213.698 22.4683 213.214 22.1893 212.541 22.0342C212.075 21.927 211.598 21.9008 211.108 21.9557C210.633 22.0011 210.188 22.1435 209.771 22.383L209.087 21.2388ZM212.464 25.5567C211.546 25.3451 210.788 25.3059 210.189 25.439C209.591 25.5721 209.225 25.9326 209.089 26.5204C208.965 27.0593 209.054 27.4859 209.355 27.8004C209.672 28.1055 210.1 28.32 210.639 28.4441C211.055 28.54 211.432 28.5559 211.769 28.4917C212.121 28.418 212.428 28.2889 212.69 28.1041C212.952 27.9194 213.173 27.6866 213.354 27.4058C213.538 27.1128 213.676 26.7901 213.77 26.4378L213.897 25.8867L212.464 25.5567ZM219.172 33.7733C218.922 34.0935 218.677 34.3758 218.436 34.6201C218.204 34.88 217.95 35.0811 217.673 35.2235C217.405 35.3814 217.104 35.471 216.771 35.4923C216.446 35.5292 216.073 35.4865 215.65 35.3643C215.445 35.3049 215.231 35.2299 215.009 35.1394C214.799 35.0524 214.611 34.9326 214.446 34.7802L214.983 33.6012C215.11 33.7035 215.251 33.7834 215.404 33.8409C215.554 33.9104 215.732 33.9749 215.937 34.0343C216.396 34.167 216.77 34.1381 217.061 33.9474C217.352 33.7568 217.637 33.4729 217.916 33.0958L218.956 31.67L217.911 22.1245L219.559 22.6013L220.262 30.0068L220.298 30.0173L224.738 24.0999L226.277 24.5453L219.172 33.7733ZM241.802 32.8824C242.002 32.4623 242.267 32.1084 242.599 31.8206C242.93 31.5328 243.297 31.3174 243.699 31.1743C244.1 31.0312 244.521 30.9664 244.959 30.98C245.398 30.9936 245.828 31.1001 246.248 31.2996C246.668 31.499 247.022 31.7645 247.309 32.0959C247.597 32.4273 247.813 32.794 247.956 33.1958C248.099 33.5977 248.164 34.018 248.15 34.4567C248.136 34.8955 248.03 35.3249 247.83 35.7449C247.631 36.1649 247.366 36.5189 247.034 36.8067C246.703 37.0945 246.336 37.3099 245.934 37.453C245.532 37.5961 245.112 37.6608 244.673 37.6473C244.235 37.6337 243.805 37.5272 243.385 37.3277C242.965 37.1283 242.611 36.8628 242.323 36.5314C242.036 36.1999 241.82 35.8333 241.677 35.4315C241.534 35.0296 241.469 34.6093 241.483 34.1706C241.496 33.7318 241.603 33.3024 241.802 32.8824Z" fill="#51644C"/>
</svg>
