<svg width="50" height="51" viewBox="0 0 50 51" fill="none" xmlns="http://www.w3.org/2000/svg">
<circle cx="25" cy="25.9437" r="25" fill="#F58A38"/>
<g clip-path="url(#clip0_77_986)">
<path d="M23.4494 34.7325V30.6762L18.6031 25.8829C18.3469 25.6311 18.0004 25.4897 17.6393 25.4897C17.2781 25.4897 16.9316 25.6311 16.6755 25.8829L16.5524 26.0046C16.2978 26.258 16.1549 26.6007 16.1549 26.9579C16.1549 27.3151 16.2978 27.6578 16.5524 27.9111L19.6899 31.0142" stroke="white" stroke-linecap="round" stroke-linejoin="round"/>
<path d="M15.2469 24.5913V18.5068C15.2469 18.1482 15.1028 17.8043 14.8465 17.5507C14.5901 17.2971 14.2424 17.1547 13.8798 17.1547C13.5172 17.1547 13.1695 17.2971 12.9131 17.5507C12.6567 17.8043 12.5127 18.1482 12.5127 18.5068V26.1259C12.5125 26.9258 12.6718 27.7179 12.9814 28.4569C13.2911 29.1958 13.745 29.8672 14.3173 30.4324L17.9811 34.0561V34.7321" stroke="white" stroke-linecap="round" stroke-linejoin="round"/>
<path d="M27.5507 34.7325V30.6762L32.397 25.8829C32.6531 25.6311 32.9996 25.4897 33.3608 25.4897C33.722 25.4897 34.0684 25.6311 34.3246 25.8829L34.4476 26.0046C34.7022 26.258 34.8452 26.6007 34.8452 26.9579C34.8452 27.3151 34.7022 27.6578 34.4476 27.9111L31.3102 31.0142" stroke="white" stroke-linecap="round" stroke-linejoin="round"/>
<path d="M35.7531 24.5913V18.5068C35.7531 18.1482 35.8971 17.8043 36.1535 17.5507C36.4099 17.2971 36.7576 17.1547 37.1202 17.1547C37.4828 17.1547 37.8305 17.2971 38.0869 17.5507C38.3432 17.8043 38.4873 18.1482 38.4873 18.5068V26.1259C38.4875 26.9258 38.3282 27.7179 38.0185 28.4569C37.7089 29.1958 37.255 29.8672 36.6827 30.4324L33.0189 34.0561V34.7321" stroke="white" stroke-linecap="round" stroke-linejoin="round"/>
<path d="M25.5 26.6198C28.8976 26.6198 31.6519 23.8957 31.6519 20.5353C31.6519 17.1749 28.8976 14.4508 25.5 14.4508C22.1024 14.4508 19.3481 17.1749 19.3481 20.5353C19.3481 23.8957 22.1024 26.6198 25.5 26.6198Z" stroke="white" stroke-linecap="round" stroke-linejoin="round"/>
<path d="M23.4493 23.2391H26.1835C26.5461 23.2391 26.8938 23.0967 27.1502 22.8431C27.4066 22.5895 27.5506 22.2456 27.5506 21.887C27.5506 21.5284 27.4066 21.1845 27.1502 20.9309C26.8938 20.6774 26.5461 20.5349 26.1835 20.5349H24.8164C24.4539 20.5349 24.1061 20.3925 23.8498 20.1389C23.5934 19.8853 23.4493 19.5414 23.4493 19.1828C23.4493 18.8242 23.5934 18.4803 23.8498 18.2267C24.1061 17.9731 24.4539 17.8307 24.8164 17.8307H27.5506" stroke="white" stroke-linecap="round" stroke-linejoin="round"/>
<path d="M25.5 16.4786V17.8308" stroke="white" stroke-linecap="round" stroke-linejoin="round"/>
<path d="M25.5 23.2397V24.5919" stroke="white" stroke-linecap="round" stroke-linejoin="round"/>
<path d="M17.2975 37.4368V36.0847H24.1329V37.4368" stroke="white" stroke-linecap="round" stroke-linejoin="round"/>
<path d="M26.8671 37.4368V36.0847H33.7025V37.4368" stroke="white" stroke-linecap="round" stroke-linejoin="round"/>
</g>
<defs>
<clipPath id="clip0_77_986">
<rect width="27" height="24" fill="white" transform="translate(12 13.9437)"/>
</clipPath>
</defs>
</svg>
