<svg width="50" height="51" viewBox="0 0 50 51" fill="none" xmlns="http://www.w3.org/2000/svg">
<circle cx="25" cy="25.9437" r="25" fill="#F58A38"/>
<g clip-path="url(#clip0_77_984)">
<path d="M24.9978 14.9437C21.689 14.9437 19.544 17.1646 17.0074 17.9742C15.9756 18.3042 15.4597 18.4681 15.2507 18.7002C15.0417 18.9312 14.9812 19.2711 14.8591 19.9487C13.5501 27.2043 16.4101 33.9121 23.2301 36.5235C23.9616 36.804 24.3279 36.9437 25.0011 36.9437C25.6743 36.9437 26.0417 36.8029 26.7743 36.5224C33.5932 33.9121 36.4499 27.2043 35.1409 19.9487C35.0188 19.2711 34.9572 18.9312 34.7482 18.6991C34.5392 18.467 34.0244 18.3031 32.9926 17.9742C30.4549 17.1646 28.3066 14.9437 24.9978 14.9437Z" stroke="white" stroke-width="1.5" stroke-linecap="round" stroke-linejoin="round"/>
<path d="M23.075 23.6985C23.075 23.6325 23.0838 23.2519 23.086 22.7745C23.086 22.3367 23.0486 21.9165 23.2576 21.5315C24.0386 19.9761 26.2826 20.1345 26.837 21.7185C26.9327 21.9792 26.9393 22.3917 26.936 22.7745C26.9327 23.2618 26.9426 23.6985 26.9426 23.6985M23.1707 24.1616C21.9827 24.1616 21.3887 25.0196 21.2567 25.5476C21.1247 26.0756 21.1247 27.9896 21.2039 28.7816C21.4679 29.7716 22.1279 30.1808 22.7747 30.3128C23.3687 30.3656 25.8767 30.3458 26.6027 30.3458C27.6587 30.3656 28.4507 29.9696 28.7807 28.7816C28.8467 28.3856 28.9127 26.2076 28.7477 25.5476C28.3979 24.4916 27.5267 24.1616 26.8667 24.1616H23.1707Z" stroke="white" stroke-width="1.5" stroke-linecap="round" stroke-linejoin="round"/>
</g>
<defs>
<clipPath id="clip0_77_984">
<rect width="24" height="24" fill="white" transform="translate(13 13.9437)"/>
</clipPath>
</defs>
</svg>
