<svg xmlns="http://www.w3.org/2000/svg" width="50" height="51" viewBox="0 0 50 51" fill="none">
  <circle cx="25" cy="25.9437" r="25" fill="#F58A38"/>
  <path d="M24.9997 37.8012C31.5483 37.8012 36.8569 32.4926 36.8569 25.9441C36.8569 19.3955 31.5483 14.0869 24.9997 14.0869C18.4512 14.0869 13.1426 19.3955 13.1426 25.9441C13.1426 32.4926 18.4512 37.8012 24.9997 37.8012Z" stroke="white" stroke-linecap="round" stroke-linejoin="round"/>
  <path d="M29.124 30.0677C33.4738 25.7179 35.1536 20.3454 32.876 18.0677C30.5984 15.7901 25.2258 17.4699 20.876 21.8197C16.5262 26.1695 14.8464 31.5421 17.124 33.8197C19.4016 36.0973 24.7742 34.4175 29.124 30.0677Z" stroke="white" stroke-linecap="round" stroke-linejoin="round"/>
  <path d="M13.2833 24.1217C16.3416 24.954 19.1126 26.61 21.2943 28.909C23.9992 31.6214 25.7408 34.7265 26.178 37.335" stroke="white" stroke-linecap="round" stroke-linejoin="round"/>
  <path d="M36.4122 27.1515C33.8036 26.692 30.6985 24.9727 27.9862 22.2678C25.6744 20.0806 24.0103 17.2985 23.1766 14.2272" stroke="white" stroke-linecap="round" stroke-linejoin="round"/>
  <path d="M33.3812 17.562L16.6182 34.3251" stroke="white" stroke-linecap="round" stroke-linejoin="round"/>
  <path d="M32.8625 33.8063L16.6182 17.562" stroke="white" stroke-linecap="round" stroke-linejoin="round"/>
</svg>